<?xml version="1.0" standalone="no"?>
<!DOCTYPE svg PUBLIC "-//W3C//DTD SVG 1.1//EN" "http://www.w3.org/Graphics/SVG/1.1/DTD/svg11.dtd" >
<svg xmlns="http://www.w3.org/2000/svg" xmlns:xlink="http://www.w3.org/1999/xlink" version="1.1">
<metadata></metadata>
<defs>
<font id="lyonbold" horiz-adv-x="1120" >
<font-face units-per-em="2048" ascent="1638" descent="-410" />
<missing-glyph horiz-adv-x="512" />
<glyph horiz-adv-x="0" />
<glyph unicode="&#xd;" horiz-adv-x="512" />
<glyph unicode=" "  horiz-adv-x="512" />
<glyph unicode="&#x09;" horiz-adv-x="512" />
<glyph unicode="&#xa0;" horiz-adv-x="512" />
<glyph unicode="!" horiz-adv-x="559" d="M137 135q0 72 41.5 117t104.5 45q61 0 100 -43t39 -111t-41 -112.5t-102 -44.5t-101.5 42t-40.5 107zM143 1221q0 70 39 114.5t99 44.5q59 0 97 -45t38 -114q0 -57 -10 -121l-107 -670h-37l-108 670q-10 63 -11 121z" />
<glyph unicode="&#x22;" horiz-adv-x="686" d="M82 1282q0 111 104 111t105 -117q0 -53 -10 -109l-60 -319h-69l-58 319q-12 68 -12 115zM395 1282q0 111 105 111q104 0 104 -117q0 -53 -10 -109l-59 -319h-70l-57 319q-12 68 -13 115z" />
<glyph unicode="#" horiz-adv-x="1243" d="M96 434v152h256l39 223h-227v152h254l71 405h160l-71 -405h227l72 405h161l-71 -405h209v-152h-236l-39 -223h207v-152h-234l-77 -434h-160l76 434h-228l-77 -434h-158l76 434h-230zM512 586h227l39 223h-227z" />
<glyph unicode="$" d="M121 997q0 186 158 291q86 57 231 74v160h117v-160q143 -20 217 -76q94 -72 94 -170q0 -68 -39 -111.5t-98 -43.5q-57 0 -95 35.5t-38 90.5q0 25 12 58q12 25 12 41q0 63 -117 63q-88 0 -141 -42t-53 -111q0 -55 40 -99.5t142 -99.5l158 -86q168 -92 237.5 -184 t69.5 -221q0 -199 -160 -318q-86 -66 -241 -90v-178h-117v178q-168 25 -244 74q-143 90 -143 221q0 70 44 119t107 49q59 0 99.5 -37t40.5 -92q0 -31 -19 -64q-23 -41 -22 -55q0 -37 53 -64.5t125 -27.5q104 0 167.5 55t63.5 146q0 68 -36.5 106.5t-176.5 116.5l-157 88 q-176 98 -233.5 180t-57.5 184z" />
<glyph unicode="%" horiz-adv-x="1488" d="M68 975q0 168 82 269.5t217 101.5q131 0 203.5 -97.5t72.5 -271.5t-73.5 -268.5t-209.5 -94.5q-139 0 -215.5 94.5t-76.5 266.5zM252 1008q0 -305 131 -306q94 0 94 236q0 342 -125 342q-100 0 -100 -272zM330 6l770 1417l84 -47l-768 -1415zM846 340q0 168 82 269.5 t217 101.5q131 0 202.5 -96.5t71.5 -272.5q0 -362 -282 -362q-139 0 -215 94t-76 266zM1030 373q0 -305 129 -305q94 0 94 235q0 342 -125 342q-98 0 -98 -272z" />
<glyph unicode="&#x26;" horiz-adv-x="1576" d="M82 324q0 268 389 426q-61 147 -61 264q0 160 94 256t250 96q137 0 225 -69.5t88 -178.5q0 -131 -111 -217q-74 -57 -213 -117q86 -199 263 -422q150 195 149 293q0 55 -96 72v55h434v-55q-96 -14 -136 -49t-161 -213q-53 -78 -137 -168q162 -154 291 -154q78 0 157 52 l35 -43q-174 -166 -319 -166q-166 0 -332 153q-229 -154 -428 -153q-162 0 -271.5 96t-109.5 242zM348 444q0 -123 86 -217t197 -94q78 0 198 72q-217 227 -323 469q-158 -100 -158 -230zM625 1135q0 -121 86 -283q168 123 168 270q0 164 -127 164q-57 0 -92 -42t-35 -109z " />
<glyph unicode="'" horiz-adv-x="372" d="M82 1282q0 111 104 111t105 -117q0 -53 -10 -109l-60 -319h-69l-58 319q-12 68 -12 115z" />
<glyph unicode="(" horiz-adv-x="724" d="M129 559q0 168 63.5 340t174.5 305q88 106 258 223l30 -41q-123 -125 -184 -256q-102 -217 -102 -571q0 -373 118 -600q61 -119 168 -227l-30 -39q-186 127 -287 258q-209 276 -209 608z" />
<glyph unicode=")" horiz-adv-x="724" d="M68 -268q125 131 184 258q102 219 102 569q0 373 -118 602q-59 113 -168 225l30 41q193 -133 287 -258q209 -276 209 -610q0 -166 -63.5 -338t-174.5 -305q-88 -106 -258 -223z" />
<glyph unicode="*" horiz-adv-x="890" d="M104 1128q0 39 26 66t63 27q57 0 184 -117q23 -20 31 -21q12 0 12 17q0 14 -23 61q-49 102 -49 152q0 39 28.5 66.5t67.5 27.5q37 0 62.5 -25.5t25.5 -62.5q0 -59 -59 -184q-10 -27 -10 -31q0 -12 12 -12q16 0 60 41q104 98 157 98q39 0 66.5 -27.5t27.5 -66.5 q0 -92 -145 -93q-37 0 -109 9q-8 2 -22 2q-18 0 -18 -13q0 -16 57 -47q147 -80 147 -149q0 -39 -27.5 -66.5t-64.5 -27.5q-51 0 -78.5 48t-52.5 171q-8 37 -18 37q-18 0 -33 -70q-20 -106 -47 -148t-76 -42q-39 0 -66.5 26.5t-27.5 63.5q0 74 170 166q31 16 31 24 q0 16 -29 16q-20 0 -49 -4q-55 -8 -101 -8q-123 0 -123 96z" />
<glyph unicode="+" d="M117 608v150h364v346h160v-346h363v-150h-363v-346h-160v346h-364z" />
<glyph unicode="," horiz-adv-x="491" d="M45 -223q207 63 238 237q-43 -27 -74 -26q-45 0 -74 35.5t-29 91.5q0 74 43.5 123t106.5 49q70 0 115 -55.5t45 -141.5q0 -156 -121 -260q-82 -70 -250 -109v56z" />
<glyph unicode="-" horiz-adv-x="419" d="M0 365v198h420v-198h-420z" />
<glyph unicode="." horiz-adv-x="491" d="M102 135q0 72 41.5 117t104.5 45q61 0 100 -43t39 -111t-41 -112.5t-102 -44.5t-101.5 42t-40.5 107z" />
<glyph unicode="/" horiz-adv-x="722" d="M-14 -301l573 1679h137l-573 -1679h-137z" />
<glyph unicode="0" d="M80 655q0 311 136.5 497.5t363.5 186.5q207 0 333.5 -172t126.5 -512q0 -324 -121.5 -496.5t-351.5 -172.5q-233 0 -360 174t-127 495zM373 713q0 -586 233 -586q172 0 172 457q0 307 -59.5 482t-163.5 175q-182 0 -182 -528z" />
<glyph unicode="1" d="M299 1079l363 246h57q-8 -297 -8 -393v-762q0 -66 22.5 -87.5t89.5 -27.5v-55h-485v55q82 2 97.5 39t15.5 225v592q0 117 -7.5 132.5t-25.5 15.5t-96 -27z" />
<glyph unicode="2" d="M45 68l367 397q133 145 188 243.5t55 194.5q0 115 -62.5 183.5t-166.5 68.5q-180 0 -256 -225l-68 10q68 399 441 399q180 0 296.5 -108.5t116.5 -274.5q0 -129 -86 -249q-72 -100 -249 -232l-285 -209h457q106 0 143 41h57l-108 -307h-819z" />
<glyph unicode="3" d="M80 147l41 54q127 -88 246 -88q127 0 207.5 78.5t80.5 203.5q0 162 -118 238q-57 37 -195 53l285 379h-246q-133 0 -168 -35h-53l63 295h721l-379 -502q135 -2 219 -55q164 -102 164 -317q0 -195 -138 -330t-337 -135q-219 0 -393 161z" />
<glyph unicode="4" d="M96 358v209l576 770h155v-759h195v-220h-195v-358h-254v358h-477zM236 578h337v444z" />
<glyph unicode="5" d="M106 119l35 55q111 -72 221 -72q135 0 223.5 86t88.5 220q0 123 -78 204.5t-197 81.5q-88 0 -231 -67l115 698h422q143 0 174 10h51l-51 -262h-551l-45 -248q154 70 274 70q180 0 295 -120t115 -308q0 -203 -143.5 -342t-354.5 -139q-199 0 -363 133z" />
<glyph unicode="6" d="M102 557q0 307 152 526q178 256 469 256q106 1 217 -36l-22 -70q-82 25 -142 24q-283 0 -377 -315q-33 -111 -41 -305q78 145 160 209.5t195 64.5q147 0 239 -114.5t92 -300.5q0 -217 -137 -363.5t-344 -146.5q-223 0 -350 161q-111 139 -111 410zM367 547 q57 -410 260 -410q82 0 130 62.5t48 167.5q0 139 -67.5 236t-166.5 97q-106 1 -204 -153z" />
<glyph unicode="7" d="M139 991l80 334h787l-23 -59q-51 -133 -156 -416l-118 -330q-68 -186 -168 -520h-230q209 588 410 1059h-309q-111 0 -146 -11.5t-71 -56.5h-56z" />
<glyph unicode="8" d="M98 336q0 240 316 317q-106 70 -156 117q-96 92 -96 229q0 156 113.5 248t306.5 92q178 0 286.5 -81.5t108.5 -215.5q0 -194 -250 -282q156 -100 209 -148q92 -82 92 -221q0 -186 -126 -295.5t-339 -109.5q-207 0 -336 97t-129 253zM391 356q0 -113 67.5 -183.5 t176.5 -70.5q86 0 140 45.5t54 114.5q0 92 -106 172q-62 45 -242 168q-90 -133 -90 -246zM401 1090q0 -74 48 -127.5t208 -155.5q4 6 9 14q82 111 82 215q0 94 -52.5 154.5t-134.5 60.5q-70 0 -115 -46t-45 -115z" />
<glyph unicode="9" d="M76 854q0 215 132 350t343 135q221 0 343 -155.5t122 -438.5q0 -360 -150 -550q-164 -209 -407 -209q-172 -1 -336 108l39 56q125 -78 231 -78q201 0 297 231q51 127 64 381q-76 -133 -146.5 -187.5t-171.5 -54.5q-160 0 -260 115t-100 297zM315 1008q0 -150 71 -247 t177 -97q55 0 91 21.5t83 82.5q0 82 -16 166q-59 309 -229 309q-78 0 -127.5 -65.5t-49.5 -169.5z" />
<glyph unicode=":" horiz-adv-x="491" d="M102 135q0 72 41.5 117t104.5 45q61 0 100 -43t39 -111t-41 -112.5t-102 -44.5t-101.5 42t-40.5 107zM102 754q0 72 41.5 116.5t104.5 44.5q61 0 100 -43t39 -110q0 -68 -41 -113t-102 -45t-101.5 42t-40.5 108z" />
<glyph unicode=";" horiz-adv-x="491" d="M43 -223q207 63 238 237q-43 -27 -74 -26q-45 0 -74 35.5t-29 91.5q0 74 43 123t107 49q70 0 115 -55.5t45 -141.5q0 -156 -121 -260q-82 -70 -250 -109v56zM102 754q0 70 41.5 115.5t104.5 45.5t102 -43t39 -110q0 -68 -41 -113t-102 -45q-63 0 -103.5 42t-40.5 108z " />
<glyph unicode="&#x3c;" horiz-adv-x="1024" d="M82 735v17l862 540v-123l-530 -335l530 -359v-328z" />
<glyph unicode="=" d="M117 471v141h887v-141h-887zM117 786v142h887v-142h-887z" />
<glyph unicode="&#x3e;" horiz-adv-x="1024" d="M82 147v123l530 336l-530 361v325l862 -585v-19z" />
<glyph unicode="?" horiz-adv-x="964" d="M82 1110q0 127 101.5 198.5t281.5 71.5q195 0 306.5 -84t111.5 -229q0 -164 -183 -315l-112 -95q-76 -63 -96 -98q-29 -47 -29 -129h-47q0 119 13 169t67 132l75 117q72 111 72 207q0 100 -66.5 175t-154.5 75q-94 0 -94 -107v-37q2 -16 2 -45q0 -68 -28 -93.5t-99 -25.5 q-66 0 -93.5 25t-27.5 88zM295 135q0 72 41 117t104 45q61 0 100.5 -43t39.5 -111t-41 -112.5t-103 -44.5q-61 0 -101 42t-40 107z" />
<glyph unicode="@" horiz-adv-x="1523" d="M88 674q0 297 208 502.5t507 205.5q266 0 455.5 -173t189.5 -416q0 -250 -197 -398q-133 -100 -270 -100q-104 0 -143 100q-121 -84 -209 -84q-113 0 -184.5 78t-71.5 199q0 168 121.5 305t271.5 137q125 0 199 -92l20 59h189l-156 -485q-18 -57 -19 -63q0 -41 41 -41 q78 0 168 104q98 115 99 268q0 195 -148.5 332t-357.5 137q-238 0 -400.5 -164.5t-162.5 -406.5t165.5 -410t403.5 -168q137 0 262 68.5t203 187.5h158q-94 -180 -266.5 -286.5t-370.5 -106.5q-291 0 -498 209t-207 502zM580 518q0 -117 86 -117q106 0 176 201l45 129 q23 66 22 100q0 41 -23.5 69t-58.5 28q-104 0 -178 -156q-70 -145 -69 -254z" />
<glyph unicode="A" horiz-adv-x="1378" d="M10 0v55q70 6 103 51q20 29 47 97q31 80 92 241l381 981h84l497 -1194q51 -119 72 -142t90 -34v-55h-559v55q88 10 88 56q0 25 -41 131l-63 164h-443l-61 -164q-37 -98 -37 -127q0 -45 96 -60v-55h-346zM395 508h367l-187 479z" />
<glyph unicode="B" horiz-adv-x="1247" d="M66 0v55q92 6 112 41q14 25 15 88v971q0 98 -20.5 124t-106.5 32v55h552q260 0 375 -98q100 -86 101 -232q0 -141 -101 -223q-76 -61 -237 -84q188 -31 276 -94q123 -90 123 -270q0 -201 -158 -293q-123 -72 -401 -72h-530zM500 260q0 -121 15 -147.5t81 -26.5 q225 0 225 266q0 152 -70.5 238t-195.5 86q6 0 -55 -4v-412zM500 768q35 -4 69 -4q190 0 191 244q0 270 -215 270q-22 0 -45 -2v-508z" />
<glyph unicode="C" horiz-adv-x="1343" d="M88 666q0 311 193.5 515.5t488.5 204.5q80 0 231 -30q100 -20 150 -21q33 0 66 4l12 -469h-55q-68 223 -153 316.5t-218 93.5q-170 0 -275.5 -139.5t-105.5 -364.5q0 -262 134 -441t329 -179q180 0 358 190l45 -33q-127 -176 -259 -254.5t-304 -78.5q-276 0 -456.5 194.5 t-180.5 491.5z" />
<glyph unicode="D" horiz-adv-x="1546" d="M66 0v55q92 6 112 41q14 25 15 88v971q0 98 -20.5 124t-106.5 32v55h618q379 0 563 -152q211 -174 211 -514q0 -289 -164 -475q-197 -225 -604 -225h-624zM514 395q0 -201 14.5 -247t137.5 -46q211 0 326.5 142.5t115.5 404.5q0 291 -133 449.5t-377 158.5q-37 0 -84 -4 v-858z" />
<glyph unicode="E" horiz-adv-x="1208" d="M66 0v55q92 6 112 41q14 25 15 88v971q0 98 -20.5 124t-106.5 32v55h976l21 -313l-55 -4q-47 127 -109.5 167.5t-218.5 40.5h-166v-493h121q121 0 163 30.5t74 141.5h48v-442h-48q-33 117 -81 147q-39 25 -160 25h-117v-557h154q195 0 265.5 38.5t164.5 200.5h53 l-76 -348h-1009z" />
<glyph unicode="F" horiz-adv-x="1087" d="M66 0v55q92 6 112 41q14 25 15 88v971q0 98 -20.5 124t-106.5 32v55h985l20 -330l-55 -2q-55 145 -114.5 184t-221.5 39h-166v-493h131q117 0 162 33.5t63 136.5h56v-461h-56q-29 117 -72.5 149.5t-168.5 32.5h-115v-458q0 -82 21.5 -109t105.5 -33v-55h-575z" />
<glyph unicode="G" horiz-adv-x="1589" d="M88 672q0 309 210 511.5t527 202.5q111 0 244 -28q115 -25 156 -25q20 0 71 6l11 -415h-56q-139 356 -411 356q-184 0 -301 -147.5t-117 -382.5q0 -291 153 -484q118 -149 311 -149h3q133 0 186 51q23 25 23 127v65l-2 127q-2 86 -22.5 111t-102.5 31v55h559v-55 q-88 -6 -113 -41q-12 -23 -12 -88v-62l-2 -78v-163q-281 -217 -600 -217q-317 0 -516 192.5t-199 499.5z" />
<glyph unicode="H" horiz-adv-x="1574" d="M66 0v55q92 6 112 41q14 25 15 88v971q0 98 -20.5 124t-106.5 32v55h575v-55q-92 -6 -113 -41q-14 -25 -14 -88v-426h549v413q0 82 -19 107q-25 29 -108 35v55h575v-55q-92 -6 -112 -41q-14 -25 -15 -88v-971q0 -98 20.5 -124t106.5 -32v-55h-575v55q92 6 113 41 q14 25 14 88v463h-549v-450q0 -82 21.5 -109t105.5 -33v-55h-575z" />
<glyph unicode="I" horiz-adv-x="702" d="M66 0v55q92 6 112 41q14 25 15 88v971q0 98 -20.5 124t-106.5 32v55h575v-55q-92 -6 -113 -41q-14 -25 -14 -88v-985q0 -82 21.5 -109t105.5 -33v-55h-575z" />
<glyph unicode="J" horiz-adv-x="696" d="M66 1311v55h575v-55q-92 -6 -113 -41q-14 -25 -14 -88v-897q0 -272 -84 -394t-326 -204l-34 37q70 49 98 114q27 60 27 163v15l-2 129v1010q0 98 -20.5 124t-106.5 32z" />
<glyph unicode="K" horiz-adv-x="1427" d="M66 0v55q92 6 112 41q14 25 15 88v971q0 98 -20.5 124t-106.5 32v55h575v-55q-92 -6 -113 -41q-14 -25 -14 -88v-985q0 -82 21.5 -109t105.5 -33v-55h-575zM522 674l332 438q82 109 82 148q0 45 -105 51v55h474v-55q-78 -12 -136.5 -56.5t-201.5 -197.5l-215 -232 l462 -592q84 -106 116 -134.5t89 -43.5v-55h-563v55q68 8 68 41q0 29 -99 164z" />
<glyph unicode="L" horiz-adv-x="1177" d="M66 0v55q92 6 112 41q14 25 15 88v971q0 98 -20.5 124t-106.5 32v55h575v-55q-92 -6 -113 -41q-14 -25 -14 -88v-1073h199q158 0 238.5 55t160.5 217l53 -6l-90 -375h-1009z" />
<glyph unicode="M" horiz-adv-x="1738" d="M57 0v55q88 6 111 41q14 23 16 88q0 2 2 62l2 78l17 817q0 109 -20.5 135.5t-108.5 34.5v55h450l232 -590q57 -145 110 -352q51 164 127 352l240 590h428v-55q-89 -8 -109 -36q-19 -26 -18 -127v-20l2 -86l12 -718q2 -158 4 -181q2 -33 15 -51q27 -31 114 -37v-55h-573 v55q88 8 108 35q19 25 19 115v18l-2 101v499q0 186 10 312q-20 -61 -49 -142l-61 -172l-324 -821h-82l-323 840q-37 98 -99 295q10 -109 10 -342v-596q0 -84 19 -107q23 -29 108 -35v-55h-387z" />
<glyph unicode="N" horiz-adv-x="1433" d="M18 1311v55h418l553 -698q74 -92 158 -232q-14 133 -14 269v464q0 82 -19 107q-25 29 -108 35v55h370v-55q-92 -6 -112 -41q-14 -25 -15 -88v-1209h-102l-698 875q-78 98 -158 223q14 -115 14 -262v-485q0 -209 17 -232q20 -29 110 -37v-55h-369v55q88 6 113 41 q14 31 14 228v858l-71 69q-57 55 -101 60z" />
<glyph unicode="O" horiz-adv-x="1595" d="M88 672q0 375 258 567q197 147 457 147q313 0 507.5 -198.5t194.5 -517.5q0 -326 -231 -529q-183 -161 -473 -161h-4q-317 0 -513 190t-196 502zM422 770q0 -293 121 -485.5t303 -192.5q156 0 247 143.5t91 385.5q0 303 -109 481t-293 178q-166 0 -263 -138t-97 -372z " />
<glyph unicode="P" horiz-adv-x="1171" d="M66 0v55q92 6 112 41q14 25 15 88v971q0 98 -20.5 124t-106.5 32v55h622q229 0 330 -78q115 -88 115 -276q0 -197 -127 -316q-133 -123 -390 -123q-55 1 -102 5v-381q0 -82 21.5 -109t105.5 -33v-55h-575zM514 662q45 -4 61 -5q223 0 224 310q0 311 -228 311 q-24 0 -57 -8v-608z" />
<glyph unicode="Q" horiz-adv-x="1595" d="M88 672q0 317 198.5 515.5t518.5 198.5q309 0 504.5 -198.5t195.5 -509.5q0 -383 -297 -586q51 -25 109 -61q113 -70 242 -119v-51q-31 -2 -70 -2q-315 0 -522 135q-92 -14 -168 -14q-319 0 -515 190t-196 502zM422 770q0 -293 121 -485.5t303 -192.5q156 0 247 143.5 t91 385.5q0 303 -109 481t-293 178q-166 0 -263 -138t-97 -372z" />
<glyph unicode="R" horiz-adv-x="1347" d="M66 0v55q92 6 112 41q14 25 15 88v971q0 98 -20.5 124t-106.5 32v55h622q256 0 359.5 -89t103.5 -257q0 -184 -119 -287q-82 -72 -235 -88q66 -27 92 -48.5t69 -86.5l179 -268q84 -125 112.5 -150.5t96.5 -36.5v-55h-388l-241 397q-92 154 -118 174.5t-75 20.5h-24v-395 q0 -82 21.5 -109t105.5 -33v-55h-561zM500 662q23 -2 55 -3q274 0 274 310q0 309 -264 309q-26 0 -65 -8v-608z" />
<glyph unicode="S" horiz-adv-x="1140" d="M127 1028q0 162 115.5 260t306.5 98q72 0 172 -20q111 -23 137 -23q29 0 92 15v-344l-55 -4q-45 113 -96 174q-80 96 -213 96q-86 0 -141.5 -45t-55.5 -117q0 -94 170 -186l211 -115q152 -82 218.5 -179t66.5 -232q0 -188 -127 -307t-328 -119q-127 0 -332 59 q-57 16 -84 16q-16 0 -49 -4v436l53 5q68 -197 159 -286t228 -89q100 0 163 53t63 139q0 66 -46 119t-163 117l-186 102q-279 154 -279 381z" />
<glyph unicode="T" horiz-adv-x="1196" d="M18 1014l27 366q272 -14 401 -14h465q94 0 267 4l-21 -369h-55q-27 178 -80 219.5t-254 41.5v-1065q0 -82 21.5 -109t105.5 -33v-55h-576v55q92 6 113 41q14 25 14 88v1078h-15q-173 0 -241 -46q-70 -48 -116 -202h-56z" />
<glyph unicode="U" horiz-adv-x="1431" d="M57 1311v55h576v-55q-92 -6 -113 -41q-14 -25 -14 -88v-652q0 -111 6 -155q14 -86 59 -139q76 -90 238 -91q193 0 266 117q55 88 55 318v589q0 84 -20 110t-106 32v55h370v-55q-92 -6 -112 -41q-14 -25 -15 -88v-695q0 -274 -145 -397q-130 -110 -369 -110h-4 q-309 0 -448 153q-96 106 -97 354v668q0 98 -20.5 124t-106.5 32z" />
<glyph unicode="V" horiz-adv-x="1300" d="M-23 1311v55h570v-55q-109 -16 -109 -66q0 -31 43 -139l197 -498q37 -94 80 -237q23 61 86 223l194 491q51 129 52 166q0 53 -105 60v55h350v-55q-72 -16 -102 -74q-12 -20 -35 -78l-61 -149l-422 -1037h-127l-385 973q-102 260 -131 306t-95 59z" />
<glyph unicode="W" horiz-adv-x="1781" d="M-8 1311v55h543v-55q-88 -16 -89 -72q0 -23 37 -139l215 -676l164 481l-63 211q-35 113 -64.5 150t-97.5 45v55h555v-55q-115 -10 -115 -58q0 -20 45 -184l178 -645l203 645q43 137 43 168q0 57 -106 74v55h364v-55q-76 -12 -107.5 -61.5t-103.5 -266.5l-333 -1010h-121 l-226 758l-260 -758h-118l-361 1078q-55 168 -84 207.5t-98 52.5z" />
<glyph unicode="X" horiz-adv-x="1449" d="M14 0v55q92 12 139.5 44t131.5 141l305 391l-262 413q-102 162 -152.5 207t-140.5 60v55h676v-55l-23 -2q-102 -10 -102 -68q0 -39 41 -102l178 -275l194 275q55 78 56 110q0 29 -24.5 41.5t-100.5 20.5v55h454v-55q-82 -10 -127 -40t-120 -130l-277 -365l307 -475 q96 -150 145.5 -195t125.5 -51v-55h-664v55q74 4 99.5 17.5t25.5 44.5t-45 100l-207 324l-215 -299q-61 -86 -61 -129q0 -39 82 -54l24 -4v-55h-463z" />
<glyph unicode="Y" horiz-adv-x="1327" d="M-14 1311v55h628v-55l-26 -2q-96 -8 -96 -72q0 -27 53 -113l143 -229q27 -43 98 -168q20 37 97 174l129 232q53 96 53 120q0 31 -23.5 43.5t-93.5 14.5v55h400v-55q-63 -16 -99.5 -49t-99.5 -138l-309 -512v-288q0 -137 2 -154q0 -63 30.5 -86t126.5 -29v-55h-641v55 q111 6 142 41q18 29 18 88v428l-319 512q-68 109 -106 142.5t-107 44.5z" />
<glyph unicode="Z" horiz-adv-x="1339" d="M47 0l674 1053q68 106 151 196h-321q-158 0 -224.5 -46t-113.5 -191h-53l22 354h1088l-664 -1051q-68 -104 -137 -198h369q213 0 284 90q43 53 78 180h55l-22 -387h-1186z" />
<glyph unicode="[" horiz-adv-x="630" d="M158 -281v1667h391v-102h-176v-1462h176v-103h-391z" />
<glyph unicode="\" horiz-adv-x="722" d="M27 1378h137l573 -1679h-137z" />
<glyph unicode="]" horiz-adv-x="630" d="M82 -178h176v1462h-176v102h391v-1667h-391v103z" />
<glyph unicode="^" horiz-adv-x="1024" d="M-61 571l587 863h17l540 -863h-122l-336 531l-359 -531h-327z" />
<glyph unicode="_" horiz-adv-x="1024" d="M20 -186h981v-146h-981v146z" />
<glyph unicode="`" horiz-adv-x="1024" d="M170 1319q0 31 24.5 52.5t59.5 21.5q55 0 149 -103l207 -223h-92l-252 143q-96 55 -96 109z" />
<glyph unicode="a" horiz-adv-x="964" d="M80 219q0 145 121 228t387 122v129q0 152 -107 152q-63 0 -86 -35q-16 -27 -18 -96q-2 -86 -33 -109q-23 -16 -108 -16q-59 0 -82 18.5t-23 73.5q0 242 350 242q207 0 287 -92q45 -51 55 -150q4 -37 4 -164v-286q0 -68 2 -82q8 -29 29 -29q18 -1 49 22l19 -45 q-128 -108 -206 -108h-1q-59 0 -87 37t-38 129q-88 -98 -150.5 -136t-138.5 -38q-100 0 -162.5 65.5t-62.5 167.5zM352 285q0 -53 32 -87t83 -34q47 0 121 51v287q-236 -63 -236 -217z" />
<glyph unicode="b" horiz-adv-x="1069" d="M41 1290v60q150 18 309 98h51q-8 -297 -8 -393v-287q158 160 291 160q145 0 233.5 -116t88.5 -308q0 -236 -115 -383.5t-297 -147.5q-133 0 -234 93q-94 -38 -180 -93h-43v1020q0 215 -8 255t-88 42zM393 164q68 -74 148 -74q88 0 141 87t53 233q0 152 -54 239.5 t-149 87.5q-59 0 -139 -45v-528z" />
<glyph unicode="c" horiz-adv-x="880" d="M63 424q0 221 123 362.5t316 141.5q147 0 241 -66q74 -51 74 -180q0 -63 -26.5 -85t-102.5 -22q-98 0 -117 43q-12 29 -14 132q-2 110 -94 110h-2q-78 0 -128 -81t-50 -204q0 -170 76.5 -270t205.5 -100q138 0 242 131l45 -25q-129 -338 -399 -338q-172 0 -281 126 t-109 325z" />
<glyph unicode="d" horiz-adv-x="1052" d="M63 426q0 213 112 357.5t278 144.5q109 0 213 -94v159q0 223 -9 254q-10 41 -94 43v60q146 18 316 98h51q-8 -297 -8 -393v-635q0 -221 8 -252q10 -41 94 -43v-59q-135 -18 -293 -93h-47v168q-72 -96 -131 -132t-143 -36q-152 0 -249.5 127t-97.5 326zM324 500 q0 -143 61 -239.5t154 -96.5q72 0 99.5 53.5t27.5 190.5v204q0 184 -140 185q-90 0 -146 -82t-56 -215z" />
<glyph unicode="e" horiz-adv-x="909" d="M63 436q0 217 113 354.5t291 137.5q231 0 317 -191q33 -73 39 -198h-547q2 -145 81 -238.5t198 -93.5q127 0 250 129l49 -27q-129 -336 -405 -336q-170 0 -278 129t-108 334zM276 618h293q-6 225 -135 226q-86 0 -127 -84q-23 -46 -31 -142z" />
<glyph unicode="f" horiz-adv-x="589" d="M49 0v55q41 6 55 13q29 12 36 39.5t7 207.5v504h-88v82h88v107q0 217 97.5 328.5t261.5 111.5q90 0 144.5 -45t54.5 -119q0 -108 -95 -108h-2q-59 0 -80 34q-14 25 -14 95q0 61 -43 61q-78 0 -78 -149q0 4 4 -70q6 -111 6 -152v-94h152v-82h-152v-504q0 -193 11 -217 q12 -31 98 -43v-55h-463z" />
<glyph unicode="g" horiz-adv-x="950" d="M49 -240q0 66 43 110t150 85q-78 29 -105 43q-59 35 -59 94q0 61 61 111q37 29 146 88q-195 109 -195 293q0 145 102.5 244.5t253.5 99.5q139 0 250 -97q109 86 162 87q39 0 63.5 -26t24.5 -67q0 -86 -76 -86q-27 0 -73 43q-12 10 -23 11q-14 0 -33 -13q70 -102 70 -213 q0 -139 -93 -228t-239 -89q-49 0 -121 14q-61 -45 -61 -63q0 -21 96 -31l264 -31q119 -14 186.5 -81.5t67.5 -170.5q0 -154 -134 -246t-357 -92q-371 0 -371 211zM309 -178q0 -72 66.5 -117t169.5 -45q92 0 156.5 42t64.5 101q0 91 -158 105l-254 22q-45 -53 -45 -108z M309 694q0 -123 55.5 -223t124.5 -100q102 0 103 137q0 131 -53 227t-125 96q-104 0 -105 -137z" />
<glyph unicode="h" horiz-adv-x="1085" d="M41 0v55q41 6 55 13q29 12 36 39.5t7 207.5v678q0 215 -8 255t-86 42v60q147 18 307 98h51q-8 -297 -8 -393v-303q86 92 153.5 127.5t153.5 35.5q127 0 191 -81q55 -72 55 -240v-279q0 -190 11.5 -218.5t87.5 -41.5v-55h-453v55q41 6 55 13q29 12 36 39.5t7 207.5v230 q0 133 -39 176q-33 35 -88 35q-80 0 -170 -80v-361q0 -190 11.5 -218.5t87.5 -41.5v-55h-453z" />
<glyph unicode="i" horiz-adv-x="540" d="M47 774v55q160 25 318 103h49l-2 -49q-6 -147 -6 -226v-342q0 -190 11 -218.5t87 -41.5v-55h-453v55q41 6 55 13q29 12 36.5 39.5t7.5 207.5v285q0 125 -14.5 148.5t-88.5 25.5zM123 1210q0 74 43.5 123t109.5 49q59 0 97.5 -43t38.5 -110q0 -70 -42 -117t-106 -47 q-63 0 -102 40t-39 105z" />
<glyph unicode="j" horiz-adv-x="536" d="M-55 -305q0 63 16 84.5t72 21.5q92 0 92 -75v-25q-2 -14 -2 -31q0 -37 24 -37q49 0 50 82q0 39 -17 117q-30 139 -30 315v11v442q0 125 -14.5 148.5t-88.5 25.5v55q160 25 318 103h49l-2 -49q-6 -147 -6 -226v-512q0 -352 -66 -458q-84 -137 -231 -138q-164 0 -164 146z M133 1210q0 74 44 123t110 49q59 0 97 -43t38 -110q0 -70 -42 -117t-106 -47q-63 0 -102 40t-39 105z" />
<glyph unicode="k" horiz-adv-x="1044" d="M41 0v55q41 6 55 13q29 12 36 39.5t7 207.5v678q0 215 -8 255t-86 42v60q143 18 307 98h51q-8 -297 -8 -393v-576l164 183q113 125 113 149q0 33 -66 35v55h381v-55q-119 -8 -242 -133l-139 -142l287 -397q78 -106 143 -119v-55h-450v55q59 2 59 33q0 16 -74 121 l-176 250v-166q0 -170 11 -195q12 -31 90 -43v-55h-455z" />
<glyph unicode="l" horiz-adv-x="528" d="M41 0v55q41 6 55 13q29 12 36 39.5t7 207.5v678q0 215 -8 255t-86 42v60q143 18 307 98h51q-8 -297 -8 -393v-740q0 -190 11.5 -218.5t87.5 -41.5v-55h-453z" />
<glyph unicode="m" horiz-adv-x="1581" d="M49 0v55q41 6 55 13q29 12 36 39.5t7 207.5v285q0 127 -12 149.5t-76 24.5v55q135 25 285 103h45l-6 -180q88 92 156.5 127.5t152.5 35.5q88 0 136.5 -36.5t76.5 -126.5q86 92 152.5 127.5t150.5 35.5q152 0 205 -120q31 -70 31 -242v-238q0 -193 11 -219t87 -41v-55 h-452v55q41 6 57 15q29 12 35 41.5t6 203.5v185q0 117 -4 145q-16 109 -113 109q-72 0 -147 -64v-375q0 -190 11 -218.5t87 -41.5v-55h-453v55q41 6 56 13q29 12 36 39.5t7 207.5v185q0 170 -21 202q-31 51 -92 52q-66 0 -152 -64v-375q0 -190 11.5 -218.5t87.5 -41.5v-55 h-453z" />
<glyph unicode="n" horiz-adv-x="1093" d="M49 0v55q41 6 55 13q29 12 36 39.5t7 207.5v285q0 127 -12 149.5t-76 24.5v55q135 25 285 103h45l-6 -180q90 90 162.5 126.5t165.5 36.5q127 0 190 -81q55 -72 55 -240v-279q0 -190 11.5 -218.5t87.5 -41.5v-55h-453v55q41 6 55 13q29 12 36 39.5t7 207.5v230 q0 133 -38 176q-33 35 -91 35q-80 0 -168 -70v-371q0 -190 11.5 -218.5t87.5 -41.5v-55h-453z" />
<glyph unicode="o" horiz-adv-x="1042" d="M63 438q0 211 134 351.5t335 140.5q195 0 322 -134t127 -341q0 -203 -132 -342.5t-325 -139.5q-199 0 -330 132.5t-131 332.5zM311 561q0 -182 82 -344q72 -141 189 -141q155 0 155 234q0 243 -102 411q-66 106 -162 106q-162 0 -162 -266z" />
<glyph unicode="p" horiz-adv-x="1054" d="M43 774v55q160 25 317 103h50l-9 -182q84 94 145.5 129.5t137.5 35.5q139 0 224 -118.5t85 -313.5q0 -217 -103.5 -357t-260.5 -140q-126 0 -228 104v-205q0 -188 15.5 -219t111.5 -41v-55h-481v55q41 6 55 13q29 12 36 39.5t7 207.5v715q0 125 -14 148.5t-88 25.5z M401 221q85 -108 175 -108h2q155 0 155 265q0 155 -54 250t-142 95q-66 0 -136 -53v-449z" />
<glyph unicode="q" horiz-adv-x="1032" d="M63 410q0 248 134 387q112 118 265 118h3h3q107 0 202 -81l198 81h50q-8 -221 -9 -274v-756q0 -190 11.5 -218.5t87.5 -41.5v-55h-482v55q94 8 115 43q12 27 12 88v375q-76 -84 -130 -114.5t-132 -30.5q-152 0 -240 112.5t-88 311.5zM324 532q0 -160 55 -259t145 -99 q63 0 96 43t33 172v201q0 217 -155 217q-82 0 -128 -72.5t-46 -202.5z" />
<glyph unicode="r" horiz-adv-x="753" d="M49 0v55q74 10 90 43q8 16 8 217v285q0 127 -12 150.5t-76 23.5v55q141 25 285 103h47l-8 -227q76 137 120 180t109 43q68 0 93.5 -39t25.5 -141q0 -86 -14 -111q-23 -39 -103 -39q-51 0 -73 10q-29 14 -36 58.5t-28 44.5q-25 0 -74 -64v-332q0 -188 15.5 -218.5 t111.5 -41.5v-55h-481z" />
<glyph unicode="s" horiz-adv-x="780" d="M94 27l6 297h56q20 -104 80 -162q82 -80 196 -80q129 0 129 102q0 41 -27.5 69t-109.5 71l-145 75q-184 96 -185 256q0 119 83 196t212 77q51 0 135 -15q59 -10 97 -10q25 0 45 4l14 -235h-53q-61 186 -219 186q-57 0 -92 -27.5t-35 -72.5q0 -61 102 -117l154 -82 q96 -51 137 -114.5t41 -159.5q0 -141 -82 -226.5t-219 -85.5q-59 0 -205 37q-43 10 -115 17z" />
<glyph unicode="t" horiz-adv-x="600" d="M53 819v43q207 59 281 314h67v-275h191v-82h-191v-463q0 -143 17 -180q18 -43 65 -43q33 0 80 41l37 -45q-80 -84 -131 -113.5t-117 -29.5q-119 0 -168 84q-32 55 -32 238v11v500h-99z" />
<glyph unicode="u" horiz-adv-x="1097" d="M39 774v55q160 25 317 103h50l-3 -49q-6 -147 -6 -226v-256q0 -143 23 -186q33 -63 125 -63q74 0 147 67v381q0 125 -14 148.5t-88 25.5v55q160 25 317 103h49l-2 -49l-2 -95l-4 -131v-237q0 -223 6 -252q8 -41 84 -43v-59q-137 -18 -299 -93h-47v168q-82 -96 -141 -132 t-139 -36q-139 0 -211 90q-59 74 -60 265v272q0 125 -14 148.5t-88 25.5z" />
<glyph unicode="v" horiz-adv-x="892" d="M-12 846v55h465v-55q-86 -14 -86 -51q0 -14 28 -90l90 -236q20 -55 50 -143l49 145l92 254q18 51 18 74q0 39 -78 47v55h289v-55q-47 -10 -73.5 -46t-79.5 -169l-265 -658h-69l-283 672q-57 135 -76.5 163t-70.5 38z" />
<glyph unicode="w" horiz-adv-x="1411" d="M-12 846v55h450v-55q-80 -10 -80 -51q0 -25 35 -107l80 -186q35 -82 70 -197q16 35 39 86l94 209l-45 119q-25 66 -49.5 91.5t-71.5 35.5v55h463v-55q-86 -16 -86 -55q0 -20 18 -72l82 -230q23 -61 53 -165q23 55 58 149l82 215q34 89 34 110q0 36 -92 48v55h301v-55 q-41 -8 -60.5 -33t-62.5 -125l-313 -715h-67l-193 500l-238 -500h-65l-301 689q-47 109 -69.5 139t-65.5 45z" />
<glyph unicode="x" horiz-adv-x="954" d="M14 0v55q68 18 146 127l178 250l-174 266q-84 129 -150 148v55h461v-55q-61 -6 -61 -41q0 -31 35 -84l79 -123l80 125q37 57 37 80q0 31 -63 43v55h305v-55q-88 -6 -168 -125l-137 -203l200 -305q94 -143 160 -158v-55h-467v45q63 10 64 45q0 31 -39 92l-109 170 l-112 -176q-41 -66 -41 -86q0 -31 73 -47v-43h-297z" />
<glyph unicode="y" horiz-adv-x="815" d="M-6 850v51h440v-55q-69 -2 -69 -46q0 -17 32 -100l78 -196q18 -47 53 -168q10 35 23 82q6 16 20 67l62 228q18 68 18 80q0 45 -80 53v55h256v-55q-33 -14 -51 -46t-53 -136l-221 -664q-78 -236 -145.5 -317.5t-182.5 -81.5q-151 0 -151 168q0 82 20 110.5t78 28.5 q68 0 85 -20.5t21 -98.5q2 -53 29 -53q31 0 55.5 35.5t65.5 144.5l37 96l-281 641q-51 117 -76.5 152t-62.5 45z" />
<glyph unicode="z" horiz-adv-x="923" d="M59 0l451 805h-164q-88 0 -125 -35t-63 -145h-56v276h756l-450 -805h178q96 0 139 38t78 157h55l-18 -291h-781z" />
<glyph unicode="{" horiz-adv-x="710" d="M68 541v24q0 23 82 51q49 16 61 34t12 67v459q0 129 40 169.5t167 40.5h199v-102h-56q-111 0 -127 -51q-8 -25 -8 -78v-455q0 -78 -88 -147q88 -70 88 -147v-455q0 -102 47 -119q27 -10 88 -10h56v-103h-199q-127 0 -167 41t-40 170v459q0 49 -12 66.5t-61 33.5 q-82 27 -82 52z" />
<glyph unicode="|" horiz-adv-x="1024" d="M416 -342v1708h192v-1708h-192z" />
<glyph unicode="}" horiz-adv-x="710" d="M82 -178h55q111 0 127 51q8 25 8 78v455q0 78 88 147q-88 70 -88 147v455q0 102 -47 119q-27 10 -88 10h-55v102h227q115 0 146.5 -29.5t31.5 -154.5v-485q0 -49 12.5 -66.5t61.5 -34.5q82 -29 82 -51v-24q0 -25 -82 -52q-49 -16 -61.5 -33.5t-12.5 -66.5v-485 q0 -125 -31.5 -155t-146.5 -30h-227v103z" />
<glyph unicode="~" horiz-adv-x="1366" d="M276 1266q125 223 273 223q51 0 168 -41q111 -39 162 -39q89 0 165 94l46 -28q-115 -221 -275 -222q-45 0 -217 60q-59 20 -119 20q-74 0 -141 -76q-4 -4 -19 -20z" />
<glyph unicode="&#xa1;" horiz-adv-x="559" d="M137 758q0 68 41.5 112.5t102.5 44.5t101 -42t40 -107q0 -72 -41 -117t-105 -45q-61 0 -100 43t-39 111zM143 -317q0 55 11 118l108 670h37l107 -670q10 -63 10 -118q0 -70 -39 -115t-98 -45t-97.5 45t-38.5 115z" />
<glyph unicode="&#xa2;" d="M186 655q0 223 131 371q78 88 201 123v162h125v-152q111 -6 182 -41q115 -55 115 -205q0 -63 -26.5 -84.5t-102.5 -21.5q-98 0 -117 43q-12 29 -14 131q-2 111 -96 111q-78 0 -128 -81t-50 -204q0 -170 76.5 -270.5t205.5 -100.5q137 0 242 131l45 -24 q-111 -301 -332 -332v-156h-125v154q-152 23 -242 143.5t-90 302.5z" />
<glyph unicode="&#xa3;" d="M92 170q0 78 55.5 127t141.5 49q61 0 164 -39q-2 0 28 -10q-8 129 -78 270h-213v111h154l-47 88q-76 141 -76 254q0 158 118 262t294 104q160 0 264 -74.5t104 -189.5q0 -72 -39.5 -116.5t-103.5 -44.5q-57 0 -96 34.5t-39 87.5q0 31 14.5 66t14.5 47q0 37 -32 63.5 t-75 26.5q-66 0 -114 -60.5t-48 -142.5q0 -78 78 -256l66 -149h229v-111h-188q14 -59 14 -114q0 -98 -47 -201q102 -43 192 -43q57 0 85 30.5t53 127.5h67q-6 -160 -37 -242q-55 -145 -198 -145q-57 0 -119 30q-20 12 -105 68q-10 4 -36 24q-133 -117 -238 -116 q-90 0 -148.5 52t-58.5 132zM201 162q0 -74 94 -74q71 0 141 86q-82 61 -143 62q-92 0 -92 -74z" />
<glyph unicode="&#xa4;" horiz-adv-x="1488" d="M80 535l45 108h88q-2 10 -2 25q0 26 2 55h-133l45 108h102q51 252 233.5 403.5t432.5 151.5q82 0 233 -30q100 -20 148 -21l65 4l13 -469h-54q-68 223 -152.5 316.5t-217.5 93.5q-160 0 -263.5 -123t-115.5 -326h551l-47 -108h-504q0 -39 8 -80h463l-45 -108h-393 q51 -172 167.5 -274.5t260.5 -102.5q180 0 356 188l45 -33q-125 -176 -258 -254.5t-305 -78.5q-242 0 -414 152.5t-213 402.5h-141z" />
<glyph unicode="&#xa5;" d="M-2 1270v55h565v-55q-66 -6 -82 -15q-37 -16 -37 -53q0 -23 45 -115l166 -342l156 351q45 102 45 123q0 35 -45 45q-16 4 -70 6v55h389v-55q-23 -4 -45 -19q-98 -63 -153 -164l-137 -303h186v-110h-238l-47 -109v-67h285v-111h-285v-74q0 -131 2 -147q0 -63 30 -85 t124 -26v-55h-547v55q109 6 137 39q18 29 19 84v209h-299v111h299v67l-53 109h-246v110h190l-151 303q-43 84 -78 121q-49 51 -125 62z" />
<glyph unicode="&#xa6;" horiz-adv-x="1024" d="M416 313h192v-655h-192v655zM416 645v721h192v-721h-192z" />
<glyph unicode="&#xa7;" horiz-adv-x="1050" d="M102 580q0 125 82 192q68 55 211 66q-127 88 -173 147t-46 137q0 119 90 188.5t248 69.5q332 0 332 -239q0 -86 -94 -86q-104 0 -125 37q-12 20 -15 84q-2 80 -26 98q-33 25 -92 24q-145 0 -146 -106q0 -41 34 -76.5t134 -103.5l219 -146q121 -80 167 -144.5t46 -154.5 q0 -143 -102 -211q-68 -45 -187 -57q135 -98 178.5 -157.5t43.5 -147.5q0 -129 -92.5 -205t-247.5 -76q-164 0 -256 68.5t-92 193.5q0 66 36 80q20 6 60 6q109 0 129 -41q10 -20 10 -102q0 -123 135 -123q66 0 107 35t41 90q0 47 -35 85t-162 128l-235 166 q-176 125 -177 281zM260 662q0 -47 31 -84t119 -101l182 -129q195 16 194 139q1 72 -120 156l-224 156q-182 -27 -182 -137z" />
<glyph unicode="&#xa8;" horiz-adv-x="1024" d="M205 1223q0 55 35 94t84 39q51 0 85.5 -39t34.5 -96q0 -53 -35.5 -92t-84.5 -39t-84 38.5t-35 94.5zM580 1223q0 55 34.5 94t83.5 39q51 0 86 -39t35 -96q0 -53 -35.5 -92t-85.5 -39q-49 0 -83.5 38.5t-34.5 94.5z" />
<glyph unicode="&#xa9;" horiz-adv-x="1560" d="M68 682q0 295 208.5 499.5t511.5 204.5q289 0 497 -207.5t208 -496.5q0 -291 -209 -496.5t-504 -205.5t-503.5 205.5t-208.5 496.5zM143 682q0 -266 186.5 -454.5t448.5 -188.5t448.5 188.5t186.5 454.5q0 264 -185.5 454.5t-443.5 190.5q-268 0 -454.5 -187.5 t-186.5 -457.5zM379 686q0 176 117.5 293t298.5 117q39 0 141 -19q57 -10 88 -10q-4 0 45 4l8 -276h-45q-41 125 -90 176t-127 51q-98 0 -159.5 -76t-61.5 -198q0 -143 79 -241.5t191 -98.5q104 0 213 108l37 -27q-147 -195 -346 -194q-168 0 -278.5 110.5t-110.5 280.5z " />
<glyph unicode="&#xaa;" horiz-adv-x="747" d="M76 608v68h610v-68h-610zM121 952q0 170 330 211v76q0 84 -64 84q-57 0 -59 -69.5t-41 -79.5q-18 -4 -56 -5q-78 0 -77 62q0 152 231 151q141 0 195 -57q39 -43 38 -190v-170q0 -59 15 -60q10 1 35 19l16 -39q-90 -70 -143 -70q-72 0 -84 90q-96 -94 -183 -94 q-66 0 -109.5 40t-43.5 101zM311 991q0 -68 68 -67q31 -1 72 28v162q-139 -35 -140 -123z" />
<glyph unicode="&#xab;" horiz-adv-x="1032" d="M55 465q227 195 373 364h139q-123 -225 -266 -364q147 -152 266 -367h-139q-152 172 -373 367zM444 465q227 195 373 364h139q-123 -225 -266 -364q147 -152 266 -367h-139q-152 172 -373 367z" />
<glyph unicode="&#xac;" horiz-adv-x="1024" d="M61 412v133h900v-545h-314v412h-586z" />
<glyph unicode="&#xad;" horiz-adv-x="419" d="M0 365v198h420v-198h-420z" />
<glyph unicode="&#xae;" horiz-adv-x="1560" d="M68 682q0 295 208.5 499.5t511.5 204.5q289 0 497 -207.5t208 -496.5q0 -291 -209 -496.5t-504 -205.5t-503.5 205.5t-208.5 496.5zM143 682q0 -266 186.5 -454.5t448.5 -188.5t448.5 188.5t186.5 454.5q0 264 -185.5 454.5t-443.5 190.5q-268 0 -454.5 -187.5 t-186.5 -457.5zM422 307v43q35 4 41 6q25 6 31 25q4 10 4 37v565q0 37 -15.5 46t-60.5 13v43h381q154 0 218 -51t64 -149q0 -186 -190 -213q39 -18 74 -68l106 -151q39 -55 70 -82q18 -14 57 -21v-43h-241l-148 225q-55 86 -68.5 96.5t-39.5 10.5h-9v-229q0 -37 16.5 -47.5 t59.5 -12.5v-43h-350zM696 690h27q158 0 158 166t-152 166q-20 0 -33 -4v-328z" />
<glyph unicode="&#xaf;" horiz-adv-x="1024" d="M20 1591v146h981v-146h-981z" />
<glyph unicode="&#xb0;" horiz-adv-x="804" d="M109 1087q0 115 86.5 199t205.5 84q121 0 207 -84t86 -203t-86 -202.5t-207 -83.5q-123 0 -207.5 85t-84.5 205zM248 1085q0 -63 45 -108t108 -45t108.5 44t45.5 107t-45.5 107.5t-108.5 44.5t-108 -44t-45 -106z" />
<glyph unicode="&#xb1;" d="M117 8v150h887v-150h-887zM117 608v150h364v346h160v-346h363v-150h-363v-346h-160v346h-364z" />
<glyph unicode="&#xb2;" horiz-adv-x="763" d="M49 594l242 237q158 156 158 259q0 141 -142 141q-115 0 -166 -137l-55 8q61 248 297 248q119 0 196.5 -66.5t77.5 -167.5q0 -76 -50 -138.5t-177 -150.5l-160 -110h273q67 -1 90 24h51l-78 -194h-540z" />
<glyph unicode="&#xb3;" horiz-adv-x="763" d="M70 639l34 39q86 -53 160 -53q80 0 131 45t51 116q0 92 -73 134q-39 23 -137 30l184 226h-146q-84 0 -106 -23h-45l45 188h487l-245 -297q111 -4 176 -65t65 -162q0 -117 -92 -198.5t-223 -81.5q-145 0 -266 102z" />
<glyph unicode="&#xb4;" horiz-adv-x="1024" d="M416 1067l207 223q94 102 149 103q35 0 59.5 -21.5t24.5 -52.5q0 -53 -96 -109l-252 -143h-92z" />
<glyph unicode="&#xb5;" horiz-adv-x="974" d="M-10 -285q0 41 18 131q61 299 62 660v430h256v-588q0 -152 31.5 -205t97.5 -53q82 0 172 119v727h254v-670q0 -84 6 -110q16 -57 78 -58q24 1 57 13v-41l-250 -93q-4 -2 -12 -2q-45 0 -72 37q-16 23 -45 111q-88 -94 -139 -124t-123 -30q-86 0 -135 38t-88 134v-39 q0 -88 57 -284q23 -78 23 -105q0 -49 -35 -81.5t-86 -32.5q-57 0 -92 31.5t-35 84.5z" />
<glyph unicode="&#xb6;" horiz-adv-x="1183" d="M96 993q0 246 221 332q104 41 330 41h402v-55q-92 -6 -113 -41q-14 -25 -14 -88v-1395q0 -82 21.5 -108.5t105.5 -32.5v-56h-283v1684h-145v-1684h-283v56q92 6 113 41q14 25 14 88v868q-31 -6 -49 -6q-137 0 -228.5 102.5t-91.5 253.5z" />
<glyph unicode="&#xb7;" horiz-adv-x="491" d="M102 459q0 72 41.5 117t104.5 45q61 0 100 -43t39 -111t-41 -113t-102 -45t-101.5 42t-40.5 108z" />
<glyph unicode="&#xb8;" horiz-adv-x="1024" d="M293 -322l35 58q74 -43 147 -43q90 0 90 67q0 59 -76 60q-25 0 -57 -4l-16 20l69 164h80l-47 -113q20 2 53 2q72 0 117 -33.5t45 -88.5q0 -63 -60.5 -104.5t-152.5 -41.5q-113 0 -227 57z" />
<glyph unicode="&#xb9;" horiz-adv-x="763" d="M211 1192l242 149h47l-6 -239v-449q0 -37 14 -47t59 -14v-45h-329v45q55 4 64 22.5t9 128.5v349q0 59 -2 69t-12 10q-7 0 -66 -16z" />
<glyph unicode="&#xba;" horiz-adv-x="747" d="M68 608v68h610v-68h-610zM68 1083q0 129 89 214t222 85q129 0 214 -81.5t85 -206.5q0 -123 -88 -207t-215 -84q-131 0 -219 80t-88 200zM242 1159q0 -115 50 -198.5t120 -83.5q94 0 94 133q0 125 -48 212t-118 87q-98 0 -98 -150z" />
<glyph unicode="&#xbb;" horiz-adv-x="1032" d="M76 98q119 215 266 367q-143 139 -266 364h139q156 -178 373 -364q-221 -195 -373 -367h-139zM465 98q119 215 266 367q-143 139 -266 364h139q156 -178 373 -364q-221 -195 -373 -367h-139z" />
<glyph unicode="&#xbc;" horiz-adv-x="1753" d="M211 1192l242 149h47l-6 -239v-449q0 -37 14 -47t59 -14v-45h-329v45q55 4 64 22.5t9 128.5v349q0 59 -2 69t-12 10q-7 0 -66 -16zM444 10l775 1413l92 -51l-776 -1411zM1065 211v133l379 459h110v-461h127v-131h-127v-211h-172v211h-317zM1157 338h225v266z" />
<glyph unicode="&#xbd;" horiz-adv-x="1753" d="M211 1192l242 149h47l-6 -239v-449q0 -37 14 -47t59 -14v-45h-329v45q55 4 64 22.5t9 128.5v349q0 59 -2 69t-12 10q-7 0 -66 -16zM444 10l775 1413l92 -51l-776 -1411zM1038 47l242 238q158 156 158 258q0 141 -142 141q-115 0 -163 -137l-56 8q57 248 295 248 q119 0 197 -66.5t78 -167.5q0 -74 -50.5 -137t-177.5 -151l-159 -111h274q65 0 90 25h49l-76 -195h-542z" />
<glyph unicode="&#xbe;" horiz-adv-x="1753" d="M68 639l34 39q86 -53 160 -53q80 0 131 45t51 116q0 92 -73 134q-39 23 -138 30l185 226h-146q-84 0 -106 -23h-45l45 188h487l-245 -297q111 -4 176 -65t65 -162q0 -117 -92 -198.5t-223 -81.5q-145 0 -266 102zM444 10l775 1413l92 -51l-774 -1411zM1067 211v133 l379 459h110v-461h125v-131h-125v-211h-172v211h-317zM1159 338h225v266z" />
<glyph unicode="&#xbf;" horiz-adv-x="964" d="M82 -166q0 164 182 316l113 94q76 63 96 98q29 47 29 129h47q0 -119 -13.5 -169t-66.5 -132l-76 -117q-72 -111 -71 -205q0 -100 66.5 -174.5t154.5 -74.5q94 0 94 106v35q-2 16 -2 47q0 66 27.5 91.5t99.5 25.5q66 0 93.5 -24.5t27.5 -86.5q0 -129 -100.5 -199.5 t-282.5 -70.5q-195 0 -306.5 83t-111.5 228zM383 758q0 68 41 112.5t102 44.5q63 0 103.5 -42t40.5 -107q0 -70 -41 -116t-105 -46q-63 0 -102 43t-39 111z" />
<glyph unicode="&#xc0;" horiz-adv-x="1378" d="M10 0v55q70 6 103 51q20 29 47 97q31 80 92 241l381 981h84l497 -1194q51 -119 72 -142t90 -34v-55h-559v55q88 10 88 56q0 25 -41 131l-63 164h-443l-61 -164q-37 -98 -37 -127q0 -45 96 -60v-55h-346zM297 1710q0 37 27.5 62.5t68.5 25.5q51 0 131 -82l217 -221h-114 l-221 107q-109 53 -109 108zM395 508h367l-187 479z" />
<glyph unicode="&#xc1;" horiz-adv-x="1378" d="M10 0v55q70 6 103 51q20 29 47 97q31 80 92 241l381 981h84l497 -1194q51 -119 72 -142t90 -34v-55h-559v55q88 10 88 56q0 25 -41 131l-63 164h-443l-61 -164q-37 -98 -37 -127q0 -45 96 -60v-55h-346zM395 508h367l-187 479zM629 1495l219 221q82 82 131 82 q41 0 67.5 -25.5t26.5 -64.5q0 -55 -106 -106l-224 -107h-114z" />
<glyph unicode="&#xc2;" horiz-adv-x="1378" d="M10 0v55q70 6 103 51q20 29 47 97q31 80 92 241l381 981h84l497 -1194q51 -119 72 -142t90 -34v-55h-559v55q88 10 88 56q0 25 -41 131l-63 164h-443l-61 -164q-37 -98 -37 -127q0 -45 96 -60v-55h-346zM381 1489l233 299h136l231 -299h-111l-190 151l-188 -151h-111z M395 508h367l-187 479z" />
<glyph unicode="&#xc3;" horiz-adv-x="1378" d="M10 0v55q70 6 103 51q20 29 47 97q31 80 92 241l381 981h84l497 -1194q51 -119 72 -142t90 -34v-55h-559v55q88 10 88 56q0 25 -41 131l-63 164h-443l-61 -164q-37 -98 -37 -127q0 -45 96 -60v-55h-346zM371 1532q16 86 77.5 143.5t137.5 57.5q43 0 100 -23l74 -29 q57 -23 98 -22q55 0 88 74h82q-8 -88 -70.5 -146.5t-148.5 -58.5q-33 0 -88 18l-86 29q-72 25 -94 24q-51 0 -88 -67h-82zM395 508h367l-187 479z" />
<glyph unicode="&#xc4;" horiz-adv-x="1378" d="M10 0v55q70 6 103 51q20 29 47 97q31 80 92 241l381 981h84l497 -1194q51 -119 72 -142t90 -34v-55h-559v55q88 10 88 56q0 25 -41 131l-63 164h-443l-61 -164q-37 -98 -37 -127q0 -45 96 -60v-55h-346zM358 1638q0 55 35 94.5t84 39.5q51 0 86 -39t35 -97q0 -53 -35 -92 t-86 -39q-49 0 -84 39t-35 94zM395 508h367l-187 479zM762 1638q0 55 35 94.5t84 39.5q51 0 84.5 -39t33.5 -97q0 -53 -34.5 -92t-83.5 -39t-84 39t-35 94z" />
<glyph unicode="&#xc5;" horiz-adv-x="1378" d="M10 0v55q70 6 103 51q20 29 47 97q31 80 92 241l381 981h84l497 -1194q51 -119 72 -142t90 -34v-55h-559v55q88 10 88 56q0 25 -41 131l-63 164h-443l-61 -164q-37 -98 -37 -127q0 -45 96 -60v-55h-346zM395 508h367l-187 479zM489 1667q0 78 56.5 134.5t134.5 56.5 q82 0 137 -56.5t55 -138.5q0 -76 -57 -132t-135 -56t-134.5 56t-56.5 136zM592 1667q0 -37 26.5 -63.5t61.5 -26.5q37 0 63.5 26.5t26.5 61.5q0 39 -25.5 64.5t-64.5 25.5q-35 0 -61.5 -26.5t-26.5 -61.5z" />
<glyph unicode="&#xc6;" horiz-adv-x="1959" d="M-14 0v55q55 8 82.5 37t91.5 144l514 923q37 66 37 92q0 53 -117 62v53h1198l20 -313l-55 -4q-47 127 -110.5 167.5t-219.5 40.5h-165v-493h122q121 0 163 30.5t75 141.5h47v-442h-47q-33 117 -82 147q-39 25 -162 25h-116v-557h153q197 0 267.5 38.5t164.5 200.5h54 l-76 -348h-1012v55q92 6 113 41q14 25 14 88v385h-469l-188 -350q-49 -92 -50 -115q0 -47 101 -49v-55h-348zM524 672h416v585q-72 -2 -94.5 -21t-81.5 -128z" />
<glyph unicode="&#xc7;" horiz-adv-x="1343" d="M88 664q0 311 193.5 516.5t488.5 205.5q80 0 231 -30q100 -20 150 -21q33 0 66 4l12 -469h-55q-68 223 -153 316.5t-218 93.5q-170 0 -275.5 -139.5t-105.5 -364.5q0 -262 134 -441t329 -179q180 0 358 190l45 -33q-233 -332 -559 -333l-39 -105q45 4 55 4 q178 0 179 -141q0 -76 -64.5 -122t-169.5 -46q-123 0 -252 61l39 64q86 -47 162 -47q102 0 102 82q0 74 -86 73q-12 0 -61 -6l-21 23l70 164q-254 39 -404.5 222t-150.5 458z" />
<glyph unicode="&#xc8;" horiz-adv-x="1208" d="M66 0v55q92 6 112 41q14 25 15 88v971q0 98 -20.5 124t-106.5 32v55h976l21 -313l-55 -4q-47 127 -109.5 167.5t-218.5 40.5h-166v-493h121q121 0 163 30.5t74 141.5h48v-442h-48q-33 117 -81 147q-39 25 -160 25h-117v-557h154q195 0 265.5 38.5t164.5 200.5h53 l-76 -348h-1009zM272 1710q0 37 28 62.5t69 25.5q51 0 131 -82l217 -221h-115l-221 107q-109 53 -109 108z" />
<glyph unicode="&#xc9;" horiz-adv-x="1208" d="M66 0v55q92 6 112 41q14 25 15 88v971q0 98 -20.5 124t-106.5 32v55h976l21 -313l-55 -4q-47 127 -109.5 167.5t-218.5 40.5h-166v-493h121q121 0 163 30.5t74 141.5h48v-442h-48q-33 117 -81 147q-39 25 -160 25h-117v-557h154q195 0 265.5 38.5t164.5 200.5h53 l-76 -348h-1009zM524 1495l219 221q82 82 131 82q41 0 68 -25.5t27 -64.5q0 -55 -107 -106l-223 -107h-115z" />
<glyph unicode="&#xca;" horiz-adv-x="1208" d="M66 0v55q92 6 112 41q14 25 15 88v971q0 98 -20.5 124t-106.5 32v55h976l21 -313l-55 -4q-47 127 -109.5 167.5t-218.5 40.5h-166v-493h121q121 0 163 30.5t74 141.5h48v-442h-48q-33 117 -81 147q-39 25 -160 25h-117v-557h154q195 0 265.5 38.5t164.5 200.5h53 l-76 -348h-1009zM315 1489l234 299h135l231 -299h-110l-191 151l-188 -151h-111z" />
<glyph unicode="&#xcb;" horiz-adv-x="1208" d="M66 0v55q92 6 112 41q14 25 15 88v971q0 98 -20.5 124t-106.5 32v55h976l21 -313l-55 -4q-47 127 -109.5 167.5t-218.5 40.5h-166v-493h121q121 0 163 30.5t74 141.5h48v-442h-48q-33 117 -81 147q-39 25 -160 25h-117v-557h154q195 0 265.5 38.5t164.5 200.5h53 l-76 -348h-1009zM295 1638q0 55 35 94.5t84 39.5q51 0 86 -39t35 -97q0 -53 -35 -92t-86 -39q-49 0 -84 39t-35 94zM698 1638q0 55 35 94.5t84 39.5q51 0 85 -39t34 -97q0 -53 -35 -92t-84 -39t-84 39t-35 94z" />
<glyph unicode="&#xcc;" horiz-adv-x="702" d="M29 1710q0 37 27.5 62.5t68.5 25.5q51 0 131 -82l217 -221h-115l-221 107q-109 53 -108 108zM63 0v55q92 6 113 41q14 25 14 88v971q0 98 -20 124t-107 32v55h576v-55q-92 -6 -113 -41q-14 -25 -14 -88v-985q0 -82 21.5 -109t105.5 -33v-55h-576z" />
<glyph unicode="&#xcd;" horiz-adv-x="702" d="M66 0v55q92 6 112 41q14 25 15 88v971q0 98 -20.5 124t-106.5 32v55h575v-55q-92 -6 -113 -41q-14 -25 -14 -88v-985q0 -82 21.5 -109t105.5 -33v-55h-575zM311 1495l219 221q82 82 132 82q41 0 67.5 -25.5t26.5 -64.5q0 -55 -107 -106l-223 -107h-115z" />
<glyph unicode="&#xce;" horiz-adv-x="702" d="M66 0v55q92 6 112 41q14 25 15 88v971q0 98 -20.5 124t-106.5 32v55h575v-55q-92 -6 -113 -41q-14 -25 -14 -88v-985q0 -82 21.5 -109t105.5 -33v-55h-575zM66 1489l233 299h135l232 -299h-111l-190 151l-189 -151h-110z" />
<glyph unicode="&#xcf;" horiz-adv-x="702" d="M66 0v55q92 6 112 41q14 25 15 88v971q0 98 -20.5 124t-106.5 32v55h575v-55q-92 -6 -113 -41q-14 -25 -14 -88v-985q0 -82 21.5 -109t105.5 -33v-55h-575zM72 1638q0 55 34.5 94.5t83.5 39.5q51 0 86 -39t35 -97q0 -53 -34.5 -92t-86.5 -39q-49 0 -83.5 39t-34.5 94z M434 1638q0 55 35 94.5t84 39.5q51 0 85 -39t34 -97q0 -53 -35 -92t-84 -39t-84 39t-35 94z" />
<glyph unicode="&#xd0;" horiz-adv-x="1546" d="M66 0v55q92 6 112 41q14 25 15 88v463h-127v109h127v399q0 98 -20.5 124t-106.5 32v55h618q377 0 563 -152q211 -172 211 -512q0 -291 -164 -477q-197 -225 -604 -225h-624zM514 397q0 -203 14.5 -249t137.5 -46q211 0 326.5 142.5t115.5 404.5q0 291 -133 449.5 t-377 158.5q-37 0 -84 -4v-497h324v-109h-324v-250z" />
<glyph unicode="&#xd1;" horiz-adv-x="1433" d="M18 1311v55h418l553 -698q74 -92 158 -232q-14 133 -14 269v464q0 82 -19 107q-25 29 -108 35v55h370v-55q-92 -6 -112 -41q-14 -25 -15 -88v-1209h-102l-698 875q-78 98 -158 223q14 -115 14 -262v-485q0 -209 17 -232q20 -29 110 -37v-55h-369v55q88 6 113 41 q14 31 14 228v858l-71 69q-57 55 -101 60zM442 1532q16 86 78 143.5t137 57.5q43 0 101 -23l73 -29q57 -23 99 -22q55 0 88 74h82q-8 -88 -70.5 -146.5t-148.5 -58.5q-33 0 -88 18l-86 29q-72 25 -95 24q-51 0 -88 -67h-82z" />
<glyph unicode="&#xd2;" horiz-adv-x="1595" d="M88 672q0 375 258 567q197 147 457 147q313 0 507.5 -198.5t194.5 -517.5q0 -326 -231 -529q-184 -162 -477 -161q-317 0 -513 190t-196 502zM422 770q0 -293 121 -485.5t303 -192.5q156 0 247 143.5t91 385.5q0 303 -109 481t-293 178q-166 0 -263 -138t-97 -372z M471 1710q0 37 27.5 62.5t68.5 25.5q51 0 131 -82l217 -221h-114l-221 107q-109 53 -109 108z" />
<glyph unicode="&#xd3;" horiz-adv-x="1595" d="M88 672q0 375 258 567q197 147 457 147q313 0 507.5 -198.5t194.5 -517.5q0 -326 -231 -529q-184 -162 -477 -161q-317 0 -513 190t-196 502zM422 770q0 -293 121 -485.5t303 -192.5q156 0 247 143.5t91 385.5q0 303 -109 481t-293 178q-166 0 -263 -138t-97 -372z M735 1495l219 221q82 82 131 82q41 0 68 -25.5t27 -64.5q0 -55 -107 -106l-223 -107h-115z" />
<glyph unicode="&#xd4;" horiz-adv-x="1595" d="M88 672q0 375 258 567q197 147 457 147q313 0 507.5 -198.5t194.5 -517.5q0 -326 -231 -529q-184 -162 -477 -161q-317 0 -513 190t-196 502zM422 770q0 -293 121 -485.5t303 -192.5q156 0 247 143.5t91 385.5q0 303 -109 481t-293 178q-166 0 -263 -138t-97 -372z M504 1489l233 299h135l232 -299h-111l-190 151l-189 -151h-110z" />
<glyph unicode="&#xd5;" horiz-adv-x="1595" d="M88 672q0 375 258 567q197 147 457 147q313 0 507.5 -198.5t194.5 -517.5q0 -326 -231 -529q-184 -162 -477 -161q-317 0 -513 190t-196 502zM422 770q0 -293 121 -485.5t303 -192.5q156 0 247 143.5t91 385.5q0 303 -109 481t-293 178q-166 0 -263 -138t-97 -372z M530 1532q16 86 78 143.5t137 57.5q43 0 101 -23l74 -29q57 -23 98 -22q55 0 88 74h82q-8 -88 -70.5 -146.5t-148.5 -58.5q-33 0 -88 18l-86 29q-72 25 -95 24q-51 0 -88 -67h-82z" />
<glyph unicode="&#xd6;" horiz-adv-x="1595" d="M88 672q0 375 258 567q197 147 457 147q313 0 507.5 -198.5t194.5 -517.5q0 -326 -231 -529q-184 -162 -477 -161q-317 0 -513 190t-196 502zM422 770q0 -293 121 -485.5t303 -192.5q156 0 247 143.5t91 385.5q0 303 -109 481t-293 178q-166 0 -263 -138t-97 -372z M489 1638q0 55 35 94.5t84 39.5q51 0 86 -39t35 -97q0 -53 -35 -92t-86 -39q-49 0 -84 39t-35 94zM893 1638q0 55 35 94.5t84 39.5q51 0 84.5 -39t33.5 -97q0 -53 -34.5 -92t-83.5 -39t-84 39t-35 94z" />
<glyph unicode="&#xd7;" d="M150 379l305 305l-305 305l104 105l305 -306l305 306l107 -105l-305 -305l305 -305l-107 -107l-305 306l-305 -306z" />
<glyph unicode="&#xd8;" horiz-adv-x="1595" d="M88 672q0 319 198.5 516.5t520.5 197.5q176 0 367 -90l110 150l92 -66l-112 -149q242 -217 241 -551q0 -336 -231 -539q-184 -162 -477 -161q-203 0 -389 96l-107 -142l-90 64l104 141q-8 10 -18 21l-18 18q-190 190 -191 494zM422 772q0 -241 80 -401l542 774 q-86 135 -264 135q-164 0 -261 -138t-97 -370zM559 260q123 -168 287 -168q156 0 247 143.5t91 385.5q0 263 -78 419z" />
<glyph unicode="&#xd9;" horiz-adv-x="1431" d="M57 1311v55h576v-55q-92 -6 -113 -41q-14 -25 -14 -88v-652q0 -111 6 -155q14 -86 59 -139q76 -90 238 -91q193 0 266 117q55 88 55 318v589q0 84 -20 110t-106 32v55h370v-55q-92 -6 -112 -41q-14 -25 -15 -88v-695q0 -274 -145 -397q-131 -111 -373 -110 q-309 0 -448 153q-96 106 -97 354v668q0 98 -20.5 124t-106.5 32zM432 1710q0 37 27.5 62.5t68.5 25.5q51 0 131 -82l218 -221h-115l-221 107q-109 53 -109 108z" />
<glyph unicode="&#xda;" horiz-adv-x="1431" d="M57 1311v55h576v-55q-92 -6 -113 -41q-14 -25 -14 -88v-652q0 -111 6 -155q14 -86 59 -139q76 -90 238 -91q193 0 266 117q55 88 55 318v589q0 84 -20 110t-106 32v55h370v-55q-92 -6 -112 -41q-14 -25 -15 -88v-695q0 -274 -145 -397q-131 -111 -373 -110 q-309 0 -448 153q-96 106 -97 354v668q0 98 -20.5 124t-106.5 32zM715 1495l219 221q82 82 131 82q41 0 67.5 -25.5t26.5 -64.5q0 -55 -106 -106l-224 -107h-114z" />
<glyph unicode="&#xdb;" horiz-adv-x="1431" d="M57 1311v55h576v-55q-92 -6 -113 -41q-14 -25 -14 -88v-652q0 -111 6 -155q14 -86 59 -139q76 -90 238 -91q193 0 266 117q55 88 55 318v589q0 84 -20 110t-106 32v55h370v-55q-92 -6 -112 -41q-14 -25 -15 -88v-695q0 -274 -145 -397q-131 -111 -373 -110 q-309 0 -448 153q-96 106 -97 354v668q0 98 -20.5 124t-106.5 32zM479 1489l234 299h135l231 -299h-110l-191 151l-188 -151h-111z" />
<glyph unicode="&#xdc;" horiz-adv-x="1431" d="M57 1311v55h576v-55q-92 -6 -113 -41q-14 -25 -14 -88v-652q0 -111 6 -155q14 -86 59 -139q76 -90 238 -91q193 0 266 117q55 88 55 318v589q0 84 -20 110t-106 32v55h370v-55q-92 -6 -112 -41q-14 -25 -15 -88v-695q0 -274 -145 -397q-131 -111 -373 -110 q-309 0 -448 153q-96 106 -97 354v668q0 98 -20.5 124t-106.5 32zM477 1638q0 55 35 94.5t84 39.5q51 0 86 -39t35 -97q0 -53 -35 -92t-86 -39q-49 0 -84 39t-35 94zM881 1638q0 55 34.5 94.5t83.5 39.5q51 0 85 -39t34 -97q0 -53 -34.5 -92t-84.5 -39q-49 0 -83.5 39 t-34.5 94z" />
<glyph unicode="&#xdd;" horiz-adv-x="1327" d="M-14 1311v55h628v-55l-26 -2q-96 -8 -96 -72q0 -27 53 -113l143 -229q27 -43 98 -168q20 37 97 174l129 232q53 96 53 120q0 31 -23.5 43.5t-93.5 14.5v55h400v-55q-63 -16 -99.5 -49t-99.5 -138l-309 -512v-288q0 -137 2 -154q0 -63 30.5 -86t126.5 -29v-55h-641v55 q111 6 142 41q18 29 18 88v428l-319 512q-68 109 -106 142.5t-107 44.5zM664 1495l219 221q82 82 131 82q41 0 67.5 -25.5t26.5 -64.5q0 -55 -107 -106l-223 -107h-114z" />
<glyph unicode="&#xde;" horiz-adv-x="1171" d="M66 0v55q92 6 112 41q14 25 15 88v971q0 98 -20.5 124t-106.5 32v55h573v-55q-84 -4 -104.5 -24.5t-20.5 -96.5v-70h172q227 0 330 -78q115 -86 114 -278q0 -197 -129 -317.5t-385 -120.5q-34 0 -102 6v-135q0 -82 21.5 -109t105.5 -33v-55h-575zM514 416q35 -6 59 -6 q223 0 224 309q0 313 -228 313q-22 0 -55 -8v-608z" />
<glyph unicode="&#xdf;" horiz-adv-x="1122" d="M45 0v55q41 6 55 13q29 12 36 39.5t7 207.5v686q0 240 109 340q117 106 344 107q168 0 260 -70.5t92 -201.5q0 -137 -94 -230q-61 -61 -188 -123q182 -6 264 -82q111 -102 110 -307q0 -199 -92 -324.5t-237 -125.5q-178 0 -179 178q0 121 109 121q100 0 100 -111 q0 -10 -2 -32.5t-2 -33.5q0 -49 49 -49q88 0 88 158q0 199 -135 356q-100 119 -260 162v68q209 66 209 319q0 109 -42 174.5t-111 65.5q-72 0 -104 -61.5t-32 -204.5v-668q0 -260 15 -315q10 -37 55 -56v-55h-424z" />
<glyph unicode="&#xe0;" horiz-adv-x="964" d="M80 219q0 145 121 228t387 122v129q0 152 -107 152q-63 0 -86 -35q-16 -27 -18 -96q-2 -86 -33 -109q-23 -16 -108 -16q-59 0 -82 18.5t-23 73.5q0 242 350 242q207 0 287 -92q45 -51 55 -150q4 -37 4 -164v-286q0 -68 2 -82q8 -29 29 -29q18 -1 49 22l19 -45 q-129 -109 -207 -108q-59 0 -87 37t-38 129q-88 -98 -150.5 -136t-138.5 -38q-100 0 -162.5 65.5t-62.5 167.5zM131 1319q0 31 24.5 52.5t59.5 21.5q55 0 150 -103l206 -223h-92l-252 143q-96 55 -96 109zM352 285q0 -53 32 -87t83 -34q47 0 121 51v287q-236 -63 -236 -217z " />
<glyph unicode="&#xe1;" horiz-adv-x="964" d="M80 219q0 145 121 228t387 122v129q0 152 -107 152q-63 0 -86 -35q-16 -27 -18 -96q-2 -86 -33 -109q-23 -16 -108 -16q-59 0 -82 18.5t-23 73.5q0 242 350 242q207 0 287 -92q45 -51 55 -150q4 -37 4 -164v-286q0 -68 2 -82q8 -29 29 -29q18 -1 49 22l19 -45 q-129 -109 -207 -108q-59 0 -87 37t-38 129q-88 -98 -150.5 -136t-138.5 -38q-100 0 -162.5 65.5t-62.5 167.5zM352 285q0 -53 32 -87t83 -34q47 0 121 51v287q-236 -63 -236 -217zM438 1067l207 223q94 102 150 103q35 0 59.5 -21.5t24.5 -52.5q0 -53 -97 -109l-252 -143 h-92z" />
<glyph unicode="&#xe2;" horiz-adv-x="964" d="M80 219q0 145 121 228t387 122v129q0 152 -107 152q-63 0 -86 -35q-16 -27 -18 -96q-2 -86 -33 -109q-23 -16 -108 -16q-59 0 -82 18.5t-23 73.5q0 242 350 242q207 0 287 -92q45 -51 55 -150q4 -37 4 -164v-286q0 -68 2 -82q8 -29 29 -29q18 -1 49 22l19 -45 q-129 -109 -207 -108q-59 0 -87 37t-38 129q-88 -98 -150.5 -136t-138.5 -38q-100 0 -162.5 65.5t-62.5 167.5zM205 1065l244 328h106l244 -328h-82l-215 182l-215 -182h-82zM352 285q0 -53 32 -87t83 -34q47 0 121 51v287q-236 -63 -236 -217z" />
<glyph unicode="&#xe3;" horiz-adv-x="964" d="M80 219q0 145 121 228t387 122v129q0 152 -107 152q-63 0 -86 -35q-16 -27 -18 -96q-2 -86 -33 -109q-23 -16 -108 -16q-59 0 -82 18.5t-23 73.5q0 242 350 242q207 0 287 -92q45 -51 55 -150q4 -37 4 -164v-286q0 -68 2 -82q8 -29 29 -29q18 -1 49 22l19 -45 q-129 -109 -207 -108q-59 0 -87 37t-38 129q-88 -98 -150.5 -136t-138.5 -38q-100 0 -162.5 65.5t-62.5 167.5zM209 1114q29 94 76 141q59 59 123 60q39 0 100 -23l78 -28q49 -18 78 -19q83 0 112 72h60q-18 -88 -66 -137q-63 -66 -139 -66q-51 0 -86 14l-84 35 q-49 20 -84 21q-59 0 -109 -70h-59zM352 285q0 -53 32 -87t83 -34q47 0 121 51v287q-236 -63 -236 -217z" />
<glyph unicode="&#xe4;" horiz-adv-x="964" d="M80 219q0 145 121 228t387 122v129q0 152 -107 152q-63 0 -86 -35q-16 -27 -18 -96q-2 -86 -33 -109q-23 -16 -108 -16q-59 0 -82 18.5t-23 73.5q0 242 350 242q207 0 287 -92q45 -51 55 -150q4 -37 4 -164v-286q0 -68 2 -82q8 -29 29 -29q18 -1 49 22l19 -45 q-129 -109 -207 -108q-59 0 -87 37t-38 129q-88 -98 -150.5 -136t-138.5 -38q-100 0 -162.5 65.5t-62.5 167.5zM203 1223q0 55 35 94t84 39q51 0 85.5 -39t34.5 -96q0 -53 -35.5 -92t-84.5 -39t-84 38.5t-35 94.5zM352 285q0 -53 32 -87t83 -34q47 0 121 51v287 q-236 -63 -236 -217zM578 1223q0 55 34.5 94t83.5 39q51 0 86 -39t35 -96q0 -53 -36 -92t-85 -39t-83.5 38.5t-34.5 94.5z" />
<glyph unicode="&#xe5;" horiz-adv-x="964" d="M80 219q0 145 121 228t387 122v129q0 152 -107 152q-63 0 -86 -35q-16 -27 -18 -96q-2 -86 -33 -109q-23 -16 -108 -16q-59 0 -82 18.5t-23 73.5q0 242 350 242q207 0 287 -92q45 -51 55 -150q4 -37 4 -164v-286q0 -68 2 -82q8 -29 29 -29q18 -1 49 22l19 -45 q-129 -109 -207 -108q-59 0 -87 37t-38 129q-88 -98 -150.5 -136t-138.5 -38q-100 0 -162.5 65.5t-62.5 167.5zM305 1229q0 78 56.5 134t134.5 56q82 0 137 -56t55 -136q0 -76 -57.5 -132.5t-134.5 -56.5q-78 0 -134.5 56.5t-56.5 134.5zM352 285q0 -53 32 -87t83 -34 q47 0 121 51v287q-236 -63 -236 -217zM408 1229q0 -37 26.5 -62.5t61.5 -25.5q37 0 63.5 25.5t26.5 60.5q0 39 -25.5 64.5t-64.5 25.5q-35 0 -61.5 -25.5t-26.5 -62.5z" />
<glyph unicode="&#xe6;" horiz-adv-x="1449" d="M80 219q0 145 122 229t386 121v129q0 152 -107 152q-63 0 -86 -35q-16 -27 -18 -96q-2 -86 -33 -109q-23 -16 -108 -16q-59 0 -82 18.5t-23 73.5q0 242 346 242q203 0 277 -94q109 94 250 94q109 0 193.5 -51.5t125.5 -139.5q35 -75 37 -198h-547q4 -145 82 -238.5 t197 -93.5q129 0 251 129l48 -27q-125 -336 -404 -336q-201 0 -319 189q-197 -176 -357 -176q-104 0 -167.5 64.5t-63.5 168.5zM352 285q0 -53 32 -87t83 -34q47 0 121 51v287q-236 -63 -236 -217zM813 618h293q-6 225 -133 226q-88 0 -129 -84q-23 -46 -31 -142z" />
<glyph unicode="&#xe7;" horiz-adv-x="880" d="M63 424q0 221 123 362.5t316 141.5q150 0 241 -66q74 -53 74 -180q0 -63 -26.5 -85t-102.5 -22q-98 0 -117 43q-12 29 -14 132q-2 111 -96 110q-78 0 -128 -81t-50 -204q0 -170 76.5 -270t205.5 -100q138 0 242 131l45 -25q-121 -336 -389 -338l-33 -86q20 2 51 2 q72 0 117 -33.5t45 -88.5q0 -63 -60.5 -104.5t-152.5 -41.5q-113 0 -227 57l35 58q74 -43 147 -43q90 0 90 67q0 59 -76 60q-23 0 -55 -4l-18 20l61 139q-121 35 -180 88q-143 131 -144 361z" />
<glyph unicode="&#xe8;" horiz-adv-x="909" d="M63 436q0 217 113 354.5t291 137.5q231 0 317 -191q33 -73 39 -198h-547q2 -145 81 -238.5t198 -93.5q127 0 250 129l49 -27q-129 -336 -405 -336q-170 0 -278 129t-108 334zM119 1319q0 31 24.5 52.5t59.5 21.5q55 0 149 -103l207 -223h-92l-252 143q-96 55 -96 109z M276 618h293q-6 225 -135 226q-86 0 -127 -84q-23 -46 -31 -142z" />
<glyph unicode="&#xe9;" horiz-adv-x="909" d="M63 436q0 217 113 354.5t291 137.5q231 0 317 -191q33 -73 39 -198h-547q2 -145 81 -238.5t198 -93.5q127 0 250 129l49 -27q-129 -336 -405 -336q-170 0 -278 129t-108 334zM276 618h293q-6 225 -135 226q-86 0 -127 -84q-23 -46 -31 -142zM420 1067l207 223 q94 102 149 103q35 0 59.5 -21.5t24.5 -52.5q0 -53 -96 -109l-252 -143h-92z" />
<glyph unicode="&#xea;" horiz-adv-x="909" d="M63 436q0 217 113 354.5t291 137.5q231 0 317 -191q33 -73 39 -198h-547q2 -145 81 -238.5t198 -93.5q127 0 250 129l49 -27q-129 -336 -405 -336q-170 0 -278 129t-108 334zM182 1065l244 328h106l244 -328h-82l-215 182l-215 -182h-82zM276 618h293q-6 225 -135 226 q-86 0 -127 -84q-23 -46 -31 -142z" />
<glyph unicode="&#xeb;" horiz-adv-x="909" d="M63 436q0 217 113 354.5t291 137.5q231 0 317 -191q33 -73 39 -198h-547q2 -145 81 -238.5t198 -93.5q127 0 250 129l49 -27q-129 -336 -405 -336q-170 0 -278 129t-108 334zM178 1223q0 55 35 94t84 39q51 0 86 -39t35 -96q0 -53 -36 -92t-85 -39t-84 38.5t-35 94.5z M276 618h293q-6 225 -135 226q-86 0 -127 -84q-23 -46 -31 -142zM553 1223q0 55 35 94t84 39q51 0 86 -39t35 -96q0 -53 -36 -92t-85 -39t-84 38.5t-35 94.5z" />
<glyph unicode="&#xec;" horiz-adv-x="540" d="M-68 1319q0 31 25 52.5t59 21.5q41 0 80 -35q6 -6 60 -68l192 -223h-92l-240 143q-84 51 -84 109zM47 774v55q160 25 318 103h49l-2 -49q-6 -147 -6 -226v-342q0 -190 11 -218.5t87 -41.5v-55h-453v55q41 6 55 13q29 12 36.5 39.5t7.5 207.5v285q0 125 -14.5 148.5 t-88.5 25.5z" />
<glyph unicode="&#xed;" horiz-adv-x="540" d="M47 774v55q160 25 318 103h49l-2 -49q-6 -147 -6 -226v-342q0 -190 11 -218.5t87 -41.5v-55h-453v55q41 6 55 13q29 12 36.5 39.5t7.5 207.5v285q0 125 -14.5 148.5t-88.5 25.5zM229 1067l193 223q55 63 59 68q37 35 80 35q35 0 59.5 -21.5t24.5 -52.5q0 -57 -86 -109 l-237 -143h-93z" />
<glyph unicode="&#xee;" horiz-adv-x="540" d="M-8 1065l223 328h107l223 -328h-82l-195 182l-194 -182h-82zM47 774v55q160 25 318 103h49l-2 -49q-6 -147 -6 -226v-342q0 -190 11 -218.5t87 -41.5v-55h-453v55q41 6 55 13q29 12 36.5 39.5t7.5 207.5v285q0 125 -14.5 148.5t-88.5 25.5z" />
<glyph unicode="&#xef;" horiz-adv-x="540" d="M4 1223q0 55 35 94t84 39q51 0 86 -39t35 -96q0 -53 -36 -92t-85 -39t-84 38.5t-35 94.5zM47 774v55q160 25 318 103h49l-2 -49q-6 -147 -6 -226v-342q0 -190 11 -218.5t87 -41.5v-55h-453v55q41 6 55 13q29 12 36.5 39.5t7.5 207.5v285q0 125 -14.5 148.5t-88.5 25.5z M326 1223q0 55 34.5 94t83.5 39t84 -39t35 -96q0 -53 -35.5 -92t-83.5 -39q-49 0 -83.5 38.5t-34.5 94.5z" />
<glyph unicode="&#xf0;" horiz-adv-x="1044" d="M63 436q0 193 113 328q137 164 328 164q82 0 160 -68q-31 86 -94.5 201t-98.5 145l-133 -94l-53 64l141 104q-14 18 -29 33l-55 55l-23 21l-18 14l72 76q72 -39 172 -119l133 92l65 -53l-143 -101q180 -203 281.5 -419.5t101.5 -399.5q0 -213 -121 -350 q-137 -156 -342 -156q-174 0 -301 111q-156 137 -156 352zM309 561q0 -182 82 -344q72 -141 189 -141q156 0 155 237q0 240 -102 408q-66 106 -162 106q-162 0 -162 -266z" />
<glyph unicode="&#xf1;" horiz-adv-x="1093" d="M49 0v55q41 6 55 13q29 12 36 39.5t7 207.5v285q0 127 -12 149.5t-76 24.5v55q135 25 285 103h45l-6 -180q90 90 162.5 126.5t165.5 36.5q127 0 190 -81q55 -72 55 -240v-279q0 -190 11.5 -218.5t87.5 -41.5v-55h-453v55q41 6 55 13q29 12 36 39.5t7 207.5v230 q0 133 -38 176q-33 35 -91 35q-80 0 -168 -70v-371q0 -190 11.5 -218.5t87.5 -41.5v-55h-453zM266 1114q29 94 76 141q59 59 123 60q39 0 100 -23l78 -28q49 -18 78 -19q84 0 113 72h59q-18 -88 -66 -137q-63 -66 -139 -66q-51 0 -86 14l-84 35q-49 20 -84 21 q-59 0 -108 -70h-60z" />
<glyph unicode="&#xf2;" horiz-adv-x="1042" d="M63 438q0 211 134 351.5t335 140.5q195 0 322 -134t127 -341q0 -203 -132 -342.5t-325 -139.5q-199 0 -330 132.5t-131 332.5zM201 1319q0 31 24.5 52.5t59.5 21.5q55 0 149 -103l207 -223h-92l-252 143q-96 55 -96 109zM311 561q0 -182 82 -344q72 -141 189 -141 q156 0 155 237q0 240 -102 408q-66 106 -162 106q-162 0 -162 -266z" />
<glyph unicode="&#xf3;" horiz-adv-x="1042" d="M63 438q0 211 134 351.5t335 140.5q195 0 322 -134t127 -341q0 -203 -132 -342.5t-325 -139.5q-199 0 -330 132.5t-131 332.5zM311 561q0 -182 82 -344q72 -141 189 -141q156 0 155 237q0 240 -102 408q-66 106 -162 106q-162 0 -162 -266zM444 1067l207 223 q94 102 150 103q35 0 59.5 -21.5t24.5 -52.5q0 -53 -97 -109l-251 -143h-93z" />
<glyph unicode="&#xf4;" horiz-adv-x="1042" d="M63 438q0 211 134 351.5t335 140.5q195 0 322 -134t127 -341q0 -203 -132 -342.5t-325 -139.5q-199 0 -330 132.5t-131 332.5zM231 1065l244 328h107l243 -328h-82l-215 182l-215 -182h-82zM311 561q0 -182 82 -344q72 -141 189 -141q156 0 155 237q0 240 -102 408 q-66 106 -162 106q-162 0 -162 -266z" />
<glyph unicode="&#xf5;" horiz-adv-x="1042" d="M63 438q0 211 134 351.5t335 140.5q195 0 322 -134t127 -341q0 -203 -132 -342.5t-325 -139.5q-199 0 -330 132.5t-131 332.5zM250 1114q29 94 76 141q59 59 123 60q39 0 100 -23l78 -28q49 -18 78 -19q83 0 112 72h60q-18 -88 -66 -137q-63 -66 -139 -66q-51 0 -86 14 l-84 35q-49 20 -84 21q-59 0 -109 -70h-59zM311 561q0 -182 82 -344q72 -141 189 -141q156 0 155 237q0 240 -102 408q-66 106 -162 106q-162 0 -162 -266z" />
<glyph unicode="&#xf6;" horiz-adv-x="1042" d="M63 438q0 211 134 351.5t335 140.5q195 0 322 -134t127 -341q0 -203 -132 -342.5t-325 -139.5q-199 0 -330 132.5t-131 332.5zM229 1223q0 55 35 94t84 39q51 0 86 -39t35 -96q0 -53 -36 -92t-85 -39t-84 38.5t-35 94.5zM311 561q0 -182 82 -344q72 -141 189 -141 q156 0 155 237q0 240 -102 408q-66 106 -162 106q-162 0 -162 -266zM604 1223q0 55 35 94t84 39q51 0 86 -39t35 -96q0 -53 -36 -92t-85 -39t-84 38.5t-35 94.5z" />
<glyph unicode="&#xf7;" d="M117 608v150h887v-150h-887zM455 313q0 45 31.5 76t76.5 31q43 0 74 -32t31 -75t-32 -74.5t-75 -31.5t-74.5 31.5t-31.5 74.5zM455 1055q0 45 31.5 75.5t76.5 30.5q43 0 74 -31.5t31 -74.5t-32 -75t-75 -32t-74.5 32t-31.5 75z" />
<glyph unicode="&#xf8;" horiz-adv-x="1042" d="M63 438q0 211 133.5 351.5t333.5 140.5q123 0 238 -66l96 125l72 -53l-94 -129q139 -143 139 -348t-131 -345.5t-326 -140.5q-119 0 -252 70l-90 -119l-73 53l92 121q-137 139 -138 340zM311 563q0 -139 47 -264l281 416q-72 113 -166 112q-162 0 -162 -264zM401 201 q80 -125 179 -125q158 0 157 233q0 166 -55 303z" />
<glyph unicode="&#xf9;" horiz-adv-x="1097" d="M39 774v55q160 25 317 103h50l-3 -49q-6 -147 -6 -226v-256q0 -143 23 -186q33 -63 125 -63q74 0 147 67v381q0 125 -14 148.5t-88 25.5v55q160 25 317 103h49l-2 -49l-2 -95l-4 -131v-237q0 -223 6 -252q8 -41 84 -43v-59q-137 -18 -299 -93h-47v168q-82 -96 -141 -132 t-139 -36q-139 0 -211 90q-59 74 -60 265v272q0 125 -14 148.5t-88 25.5zM213 1319q0 31 24.5 52.5t59.5 21.5q55 0 149 -103l207 -223h-92l-252 143q-96 55 -96 109z" />
<glyph unicode="&#xfa;" horiz-adv-x="1097" d="M39 774v55q160 25 317 103h50l-3 -49q-6 -147 -6 -226v-256q0 -143 23 -186q33 -63 125 -63q74 0 147 67v381q0 125 -14 148.5t-88 25.5v55q160 25 317 103h49l-2 -49l-2 -95l-4 -131v-237q0 -223 6 -252q8 -41 84 -43v-59q-137 -18 -299 -93h-47v168q-82 -96 -141 -132 t-139 -36q-139 0 -211 90q-59 74 -60 265v272q0 125 -14 148.5t-88 25.5zM494 1067l206 223q94 102 150 103q35 0 59.5 -21.5t24.5 -52.5q0 -53 -96 -109l-252 -143h-92z" />
<glyph unicode="&#xfb;" horiz-adv-x="1097" d="M39 774v55q160 25 317 103h50l-3 -49q-6 -147 -6 -226v-256q0 -143 23 -186q33 -63 125 -63q74 0 147 67v381q0 125 -14 148.5t-88 25.5v55q160 25 317 103h49l-2 -49l-2 -95l-4 -131v-237q0 -223 6 -252q8 -41 84 -43v-59q-137 -18 -299 -93h-47v168q-82 -96 -141 -132 t-139 -36q-139 0 -211 90q-59 74 -60 265v272q0 125 -14 148.5t-88 25.5zM252 1065l244 328h106l244 -328h-82l-215 182l-215 -182h-82z" />
<glyph unicode="&#xfc;" horiz-adv-x="1097" d="M39 774v55q160 25 317 103h50l-3 -49q-6 -147 -6 -226v-256q0 -143 23 -186q33 -63 125 -63q74 0 147 67v381q0 125 -14 148.5t-88 25.5v55q160 25 317 103h49l-2 -49l-2 -95l-4 -131v-237q0 -223 6 -252q8 -41 84 -43v-59q-137 -18 -299 -93h-47v168q-82 -96 -141 -132 t-139 -36q-139 0 -211 90q-59 74 -60 265v272q0 125 -14 148.5t-88 25.5zM258 1223q0 55 35 94t84 39q51 0 86 -39t35 -96q0 -53 -36 -92t-85 -39t-84 38.5t-35 94.5zM633 1223q0 55 35 94t84 39q51 0 85.5 -39t34.5 -96q0 -53 -35.5 -92t-84.5 -39t-84 38.5t-35 94.5z" />
<glyph unicode="&#xfd;" horiz-adv-x="815" d="M-6 850v51h440v-55q-70 -2 -69 -47q0 -16 32 -99l78 -196q18 -47 53 -168q10 35 23 82q6 16 20 67l62 228q18 68 18 80q0 45 -80 53v55h256v-55q-33 -14 -51 -46t-53 -136l-221 -664q-78 -236 -145.5 -317.5t-182.5 -81.5q-152 0 -151 170q0 80 20 108.5t78 28.5 q68 0 85 -20.5t21 -98.5q2 -53 29 -53q31 0 55.5 35.5t65.5 144.5l37 96l-281 641q-51 117 -76.5 152t-62.5 45zM420 1067l207 223q94 102 149 103q35 0 59.5 -21.5t24.5 -52.5q0 -53 -96 -109l-252 -143h-92z" />
<glyph unicode="&#xfe;" horiz-adv-x="1034" d="M25 -375q41 6 55 13q29 12 36 39.5t7 207.5v1108q0 215 -8.5 255t-85.5 42v60q147 18 307 98h51q-8 -297 -8 -393v-305q84 94 145.5 129.5t137.5 35.5q139 0 224 -118.5t85 -313.5q0 -217 -103.5 -357t-261.5 -140q-125 0 -227 104v-205q0 -188 15.5 -219t111.5 -41v-55 h-481v55zM379 221q86 -109 176 -108q156 0 156 268q0 152 -54.5 247t-142.5 95q-65 0 -135 -53v-449z" />
<glyph unicode="&#xff;" horiz-adv-x="815" d="M-6 850v51h440v-55q-70 -2 -69 -47q0 -16 32 -99l78 -196q18 -47 53 -168q10 35 23 82q6 16 20 67l62 228q18 68 18 80q0 45 -80 53v55h256v-55q-33 -14 -51 -46t-53 -136l-221 -664q-78 -236 -145.5 -317.5t-182.5 -81.5q-152 0 -151 170q0 80 20 108.5t78 28.5 q68 0 85 -20.5t21 -98.5q2 -53 29 -53q31 0 55.5 35.5t65.5 144.5l37 96l-281 641q-51 117 -76.5 152t-62.5 45zM152 1223q0 55 34.5 94t83.5 39q51 0 86 -39t35 -96q0 -53 -36 -92t-85 -39t-83.5 38.5t-34.5 94.5zM526 1223q0 55 35 94t84 39q51 0 86 -39t35 -96 q0 -53 -36 -92t-85 -39t-84 38.5t-35 94.5z" />
<glyph unicode="&#x152;" horiz-adv-x="1941" d="M88 672q0 309 178 511.5t453 202.5q41 0 115 -6q170 -14 296 -14h646l20 -313l-55 -4q-47 127 -110.5 167.5t-219.5 40.5h-166v-493h123q121 0 163 30.5t75 141.5h47v-442h-47q-33 117 -82 147q-39 25 -162 25h-117v-557h154q197 0 267.5 38.5t164.5 200.5h53l-76 -348 h-761q-80 0 -195 -12q-76 -8 -135 -8q-289 0 -459 187t-170 505zM410 772q0 -272 120.5 -464.5t290.5 -192.5q84 0 97 57q6 26 6 92v834q0 84 -11 119q-18 66 -137 65q-162 0 -264 -142.5t-102 -367.5z" />
<glyph unicode="&#x153;" horiz-adv-x="1597" d="M63 438q0 211 133.5 351.5t333.5 140.5q195 0 322 -150q121 147 301 148q109 0 194 -51.5t126 -139.5q34 -75 36 -198h-546q2 -145 80.5 -238.5t197.5 -93.5q127 0 250 129l49 -27q-129 -336 -405 -336q-180 0 -291 148q-139 -147 -322 -148q-195 0 -327 133.5 t-132 331.5zM311 563q0 -184 82 -346q72 -141 189 -141q156 0 155 237q0 240 -102 408q-66 106 -162 106q-162 0 -162 -264zM963 618h292q-6 225 -133 226q-88 0 -129 -84q-22 -46 -30 -142z" />
<glyph unicode="&#x178;" horiz-adv-x="1327" d="M-14 1311v55h628v-55l-26 -2q-96 -8 -96 -72q0 -27 53 -113l143 -229q27 -43 98 -168q20 37 97 174l129 232q53 96 53 120q0 31 -23.5 43.5t-93.5 14.5v55h400v-55q-63 -16 -99.5 -49t-99.5 -138l-309 -512v-288q0 -137 2 -154q0 -63 30.5 -86t126.5 -29v-55h-641v55 q111 6 142 41q18 29 18 88v428l-319 512q-68 109 -106 142.5t-107 44.5zM428 1638q0 55 35 94.5t84 39.5q51 0 85 -39t34 -97q0 -53 -35 -92t-84 -39t-84 39t-35 94zM829 1638q0 55 35 94.5t84 39.5q51 0 86 -39t35 -97q0 -53 -35 -92t-86 -39q-49 0 -84 39t-35 94z" />
<glyph unicode="&#x2c6;" horiz-adv-x="1024" d="M215 1065l244 328h106l244 -328h-82l-215 182l-215 -182h-82z" />
<glyph unicode="&#x2dc;" horiz-adv-x="1024" d="M213 1114q29 94 76 141q59 59 123 60q39 0 100 -23l78 -28q49 -18 78 -19q83 0 112 72h60q-18 -88 -66 -137q-63 -66 -139 -66q-51 0 -86 14l-84 35q-49 20 -84 21q-59 0 -109 -70h-59z" />
<glyph unicode="&#x2000;" horiz-adv-x="929" />
<glyph unicode="&#x2001;" horiz-adv-x="1858" />
<glyph unicode="&#x2002;" horiz-adv-x="929" />
<glyph unicode="&#x2003;" horiz-adv-x="1858" />
<glyph unicode="&#x2004;" horiz-adv-x="619" />
<glyph unicode="&#x2005;" horiz-adv-x="464" />
<glyph unicode="&#x2006;" horiz-adv-x="309" />
<glyph unicode="&#x2007;" horiz-adv-x="309" />
<glyph unicode="&#x2008;" horiz-adv-x="232" />
<glyph unicode="&#x2009;" horiz-adv-x="371" />
<glyph unicode="&#x200a;" horiz-adv-x="103" />
<glyph unicode="&#x2010;" horiz-adv-x="419" d="M0 365v198h420v-198h-420z" />
<glyph unicode="&#x2011;" horiz-adv-x="419" d="M0 365v198h420v-198h-420z" />
<glyph unicode="&#x2012;" horiz-adv-x="419" d="M0 365v198h420v-198h-420z" />
<glyph unicode="&#x2013;" d="M156 389v150h809v-150h-809z" />
<glyph unicode="&#x2014;" horiz-adv-x="1296" d="M0 389v150h1296v-150h-1296z" />
<glyph unicode="&#x2018;" horiz-adv-x="526" d="M88 1012q0 154 121 258q84 73 250 110v-55q-207 -63 -238 -238q43 27 74 27q45 0 73.5 -36t28.5 -91q0 -74 -43 -123t-106 -49q-72 0 -116 54.5t-44 142.5z" />
<glyph unicode="&#x2019;" horiz-adv-x="526" d="M68 815v55q207 63 237 236q-43 -25 -74 -25q-45 0 -73.5 36t-28.5 91q0 74 43 123t107 49q70 0 114.5 -55t44.5 -141q0 -156 -121 -260q-85 -74 -249 -109z" />
<glyph unicode="&#x201a;" horiz-adv-x="526" d="M68 -223q207 63 237 237q-43 -27 -74 -26q-45 0 -73.5 35.5t-28.5 91.5q0 74 43 123t107 49q70 0 114.5 -55.5t44.5 -141.5q0 -156 -121 -260q-81 -70 -249 -109v56z" />
<glyph unicode="&#x201c;" horiz-adv-x="935" d="M88 1012q0 154 121 258q84 73 250 110v-55q-207 -63 -238 -238q43 27 74 27q45 0 73.5 -36t28.5 -91q0 -74 -43 -123t-106 -49q-72 0 -116 54.5t-44 142.5zM498 1012q0 154 120 258q84 73 250 110v-55q-207 -63 -237 -238q43 27 74 27q45 0 73.5 -36t28.5 -91 q0 -74 -43 -123t-107 -49q-72 0 -115.5 54.5t-43.5 142.5z" />
<glyph unicode="&#x201d;" horiz-adv-x="935" d="M68 815v55q207 63 237 236q-43 -25 -74 -25q-45 0 -73.5 36t-28.5 91q0 74 43 123t107 49q70 0 114.5 -55t44.5 -141q0 -156 -121 -260q-85 -74 -249 -109zM477 815v55q207 63 238 236q-43 -25 -74 -25q-45 0 -73.5 36t-28.5 91q0 74 43 123t106 49q70 0 115 -55t45 -141 q0 -156 -121 -260q-86 -74 -250 -109z" />
<glyph unicode="&#x201e;" horiz-adv-x="935" d="M68 -223q207 63 237 237q-43 -27 -74 -26q-45 0 -73.5 35.5t-28.5 91.5q0 74 43 123t107 49q70 0 114.5 -55.5t44.5 -141.5q0 -156 -121 -260q-81 -70 -249 -109v56zM477 -223q207 63 238 237q-43 -27 -74 -26q-45 0 -73.5 35.5t-28.5 91.5q0 74 43 123t106 49 q70 0 115 -55.5t45 -141.5q0 -156 -121 -260q-82 -70 -250 -109v56z" />
<glyph unicode="&#x2022;" horiz-adv-x="1366" d="M401 692q0 119 84 202t205 83q113 0 196 -84t83 -199q0 -119 -83 -201.5t-200 -82.5t-201 82.5t-84 199.5z" />
<glyph unicode="&#x2026;" horiz-adv-x="1474" d="M102 135q0 72 41.5 117t104.5 45q61 0 100 -43t39 -111t-41 -112.5t-102 -44.5t-101.5 42t-40.5 107zM594 135q0 72 41 117t104 45q61 0 100.5 -43t39.5 -111t-41 -112.5t-103 -44.5q-61 0 -101 42t-40 107zM1085 135q0 72 41.5 117t104.5 45q61 0 100 -43t39 -111 t-41 -112.5t-102 -44.5t-101.5 42t-40.5 107z" />
<glyph unicode="&#x202f;" horiz-adv-x="371" />
<glyph unicode="&#x2039;" horiz-adv-x="643" d="M55 465q227 195 373 364h139q-123 -225 -266 -364q147 -152 266 -367h-139q-152 172 -373 367z" />
<glyph unicode="&#x203a;" horiz-adv-x="643" d="M76 98q119 215 266 367q-143 139 -266 364h139q156 -178 373 -364q-221 -195 -373 -367h-139z" />
<glyph unicode="&#x205f;" horiz-adv-x="464" />
<glyph unicode="&#x20ac;" horiz-adv-x="1488" d="M80 535l45 108h88q-2 10 -2 25q0 26 2 55h-133l45 108h102q51 252 233.5 403.5t432.5 151.5q82 0 233 -30q100 -20 148 -21l65 4l13 -469h-54q-68 223 -152.5 316.5t-217.5 93.5q-160 0 -263.5 -123t-115.5 -326h551l-47 -108h-504q0 -39 8 -80h463l-45 -108h-393 q51 -172 167.5 -274.5t260.5 -102.5q180 0 356 188l45 -33q-125 -176 -258 -254.5t-305 -78.5q-242 0 -414 152.5t-213 402.5h-141z" />
<glyph unicode="&#x2122;" horiz-adv-x="1736" d="M27 1165l14 209q133 -8 229 -8h265q27 0 55 2h61h35l-12 -211h-31q-16 102 -45.5 126t-144.5 24v-535q0 -94 2 -108q6 -41 69 -46v-30h-325v30q51 6 61 22.5t10 51.5v615q-104 2 -145 -26t-68 -116h-30zM735 588v30q53 6 63.5 23.5t12.5 130.5l10 465q2 59 -9 76.5 t-64 21.5v31h256l131 -336q37 -94 63 -201q45 137 72 201l137 336h244v-31q-51 -6 -61.5 -21.5t-10.5 -82.5v-49l8 -410q2 -88 3 -105.5t7 -25.5q14 -16 66 -23v-30h-328v30q53 4 62.5 24t9.5 130v285q0 92 6 178l-12 -39l-15 -43l-36 -98l-185 -467h-47l-184 479 q-23 57 -55 168q6 -80 6 -197v-338q0 -49 12 -63t59 -19v-30h-221z" />
<glyph unicode="&#x25fc;" horiz-adv-x="901" d="M0 0v901h901v-901h-901z" />
<glyph unicode="&#xfb03;" horiz-adv-x="1646" d="M49 0v55q41 6 55 13q29 12 36 39.5t7 207.5v504h-88v82h88v107q0 227 92.5 333.5t247.5 106.5q88 0 140.5 -44t52.5 -120q0 -109 -92 -108q-55 0 -74 41q-10 23 -12 86t-43 63q-68 0 -68 -123q0 -27 6 -96.5t6 -151.5v-94h297v107q0 219 120 329.5t319 110.5 q131 0 206.5 -54.5t75.5 -146.5q0 -127 -125 -127q-76 0 -104 45q-16 27 -21 121q-4 80 -79 80q-147 0 -148 -147q0 -18 4 -72q8 -109 8 -152v-94h195q82 0 317 31h50l-2 -49l-3 -95l-4 -131v-342q0 -190 11.5 -218.5t87.5 -41.5v-55h-453v55q41 6 55 13q29 12 36 39.5 t7 207.5v328q0 127 -14 151.5t-88 24.5h-195v-504q0 -193 11 -217q12 -31 98 -43v-55h-463v55q41 6 55 13q29 12 36 39.5t7 207.5v504h-297v-504q0 -193 11 -217q12 -31 98 -43v-55h-463z" />
<glyph unicode="&#xfb04;" horiz-adv-x="1640" d="M49 0v55q41 6 55 13q29 12 36 39.5t7 207.5v504h-88v82h88v107q0 227 92.5 333.5t247.5 106.5q88 0 140.5 -44t52.5 -120q0 -109 -92 -108q-55 0 -74 41q-10 23 -12 86t-43 63q-68 0 -68 -123q0 -27 6 -96.5t6 -151.5v-94h297v107q0 215 123 327.5t301 112.5 q37 0 109 -14.5t108 -14.5q47 0 125 29h52q-8 -297 -9 -393v-740q0 -190 11.5 -218.5t87.5 -41.5v-55h-453v55q41 6 55 13q29 12 36 39.5t7 207.5v678q0 270 -18 316q-25 57 -129 57q-164 0 -164 -147q0 -29 4 -72q10 -106 10 -152v-94h152v-82h-152v-504q0 -193 11 -217 q12 -31 98 -43v-55h-463v55q41 6 55 13q29 12 36 39.5t7 207.5v504h-297v-504q0 -193 11 -217q12 -31 98 -43v-55h-463z" />
</font>
</defs>
</svg>
