<?xml version="1.0" standalone="no"?>
<!DOCTYPE svg PUBLIC "-//W3C//DTD SVG 1.1//EN" "http://www.w3.org/Graphics/SVG/1.1/DTD/svg11.dtd" >
<svg xmlns="http://www.w3.org/2000/svg" xmlns:xlink="http://www.w3.org/1999/xlink" version="1.1">
<metadata></metadata>
<defs>
<font id="lyonitalic" horiz-adv-x="1105" >
<font-face units-per-em="2048" ascent="1638" descent="-410" />
<missing-glyph horiz-adv-x="512" />
<glyph horiz-adv-x="0" />
<glyph unicode="&#xd;" horiz-adv-x="512" />
<glyph unicode=" "  horiz-adv-x="512" />
<glyph unicode="&#x09;" horiz-adv-x="512" />
<glyph unicode="&#xa0;" horiz-adv-x="512" />
<glyph unicode="!" horiz-adv-x="624" d="M117 82q0 49 37 86t86 37q41 0 68.5 -27.5t27.5 -68.5q0 -49 -37 -86t-86 -37q-41 0 -68.5 27.5t-27.5 68.5zM268 373l123 831q18 127 45 171t84 44q41 0 68.5 -27.5t27.5 -72.5q0 -29 -45 -166l-258 -780h-45z" />
<glyph unicode="&#x22;" horiz-adv-x="673" d="M272 922l11 276q2 74 6 94q2 29 14 54q23 47 82 47q66 0 66 -76q0 -51 -27 -119l-109 -276h-43zM567 922l8 276q4 106 25 150.5t80 44.5q66 0 65 -76q0 -45 -28 -119l-107 -276h-43z" />
<glyph unicode="#" horiz-adv-x="1234" d="M94 479l35 96h277l88 242h-275l35 96h274l164 453h117l-164 -453h232l163 453h117l-164 -453h269l-35 -96h-269l-90 -242h271l-35 -96h-270l-175 -479h-116l174 479h-232l-174 -479h-116l174 479h-275zM520 575h232l90 242h-232z" />
<glyph unicode="$" d="M133 268q0 66 36 110t89 44q45 0 76 -31t31 -76q0 -33 -31 -65.5t-31 -54.5q0 -49 65.5 -85t155.5 -36q117 0 196 68.5t79 170.5q0 113 -150 234l-164 133q-211 172 -211 344q0 203 191 297q98 49 248 51l32 148h80l-32 -160q113 -31 177 -98.5t64 -151.5 q0 -59 -30.5 -99t-77.5 -40q-43 0 -75 28.5t-32 67.5q0 37 35 86q10 14 10 31q0 45 -53 75.5t-131 30.5q-102 0 -171 -59.5t-69 -147.5q0 -111 162 -241l174 -142q172 -139 172 -313q0 -205 -180 -326q-96 -63 -266 -69l-35 -164h-82l35 164q-113 23 -184 82 q-102 86 -103 194z" />
<glyph unicode="%" horiz-adv-x="1527" d="M188 856q0 201 103 345.5t244 144.5q209 0 208 -242q0 -190 -107.5 -343t-242.5 -153q-94 0 -149.5 66.5t-55.5 181.5zM313 864q0 -178 103 -178q59 0 106 74q41 61 68.5 160.5t27.5 181.5q0 178 -98 178q-82 0 -144.5 -126t-62.5 -290zM342 4l887 1389l55 -37 l-887 -1387zM877 227q0 199 103.5 344.5t244.5 145.5q98 0 153.5 -63.5t55.5 -178.5q0 -193 -107.5 -344t-243.5 -151q-96 0 -151 66.5t-55 180.5zM1001 236q0 -178 103 -179q57 0 106 74q98 150 99 344q-1 176 -99 176q-84 0 -146.5 -125t-62.5 -290z" />
<glyph unicode="&#x26;" horiz-adv-x="1599" d="M117 279q0 190 196 348q98 78 289 164q-27 109 -27 180q0 176 112 292.5t280 116.5q203 0 202 -159q0 -152 -163 -275q-74 -55 -236 -127q102 -291 225 -463q184 268 185 338q0 47 -95 49v45h363v-45q-68 -2 -108 -41.5t-224 -277.5l-90 -117q61 -88 113 -139 q96 -94 213 -94q80 0 174 61l20 -35q-172 -121 -303 -120q-96 0 -172 46t-158 156q-125 -113 -227 -157.5t-231 -44.5q-156 0 -247 80.5t-91 218.5zM309 360q0 -115 74 -189.5t188 -74.5q150 0 308 131q-175 233 -263 516q-307 -182 -307 -383zM733 1057q0 -113 23 -193 q37 20 108 68q176 129 176 282q0 115 -96 115q-84 0 -147.5 -82t-63.5 -190z" />
<glyph unicode="'" horiz-adv-x="378" d="M272 922l11 276q2 74 6 94q2 29 14 54q23 47 82 47q66 0 66 -76q0 -51 -27 -119l-109 -276h-43z" />
<glyph unicode="(" horiz-adv-x="616" d="M125 276q0 324 164 636t436 511l25 -26q-227 -193 -347 -516q-59 -164 -99 -393.5t-40 -409.5q0 -233 76 -365l-31 -16q-184 285 -184 579z" />
<glyph unicode=")" horiz-adv-x="616" d="M-86 -279q225 195 344 519q61 166 101 394t40 408q0 229 -75 365l30 16q184 -285 185 -579q0 -324 -164 -637t-436 -510z" />
<glyph unicode="*" horiz-adv-x="864" d="M238 1112q0 39 24.5 65.5t59.5 26.5q63 0 170 -114q23 -25 36 -25q23 0 23 31q0 14 -16 59q-33 90 -33 143q0 39 25.5 65t62.5 26q33 0 55.5 -21.5t22.5 -52.5q0 -53 -76 -185q-16 -29 -17 -38q0 -18 19 -19q20 0 72 43q113 96 161 96q31 0 53.5 -22.5t22.5 -54.5 q0 -90 -139 -91q-55 0 -111 9q-14 2 -24 2q-31 0 -31 -23t57 -55q131 -76 131 -135q0 -37 -28.5 -65.5t-63.5 -28.5q-41 0 -65.5 39.5t-38.5 175.5q-4 45 -23 45q-31 0 -49 -74q-47 -184 -129 -184q-33 0 -54.5 22.5t-21.5 52.5q0 70 150 144q68 33 67 53q0 23 -34 22 q-23 0 -52 -4q-55 -8 -102 -8q-104 0 -104 80z" />
<glyph unicode="+" d="M158 625v110h385v359h119v-359h382v-110h-382v-361h-119v361h-385z" />
<glyph unicode="," horiz-adv-x="491" d="M-43 -240q106 45 160.5 104.5t89.5 166.5q-39 -41 -72 -41q-76 0 -76 88q0 51 36 89t83 38q109 0 109 -137q0 -109 -85.5 -201t-228.5 -137z" />
<glyph unicode="-" horiz-adv-x="454" d="M18 395v137h426v-137h-426z" />
<glyph unicode="." horiz-adv-x="491" d="M61 82q0 49 37 86t86 37q41 0 69 -27.5t28 -68.5q0 -49 -37 -86t-86 -37q-41 0 -69 27.5t-28 68.5z" />
<glyph unicode="/" horiz-adv-x="811" d="M-143 -322l968 1700h101l-969 -1700h-100z" />
<glyph unicode="0" d="M115 436q0 186 59 375.5t158 316.5q168 218 391 218q168 0 266 -114t98 -331q0 -174 -61 -364.5t-162 -323.5q-174 -233 -393 -233q-166 0 -261 121.5t-95 334.5zM293 444q0 -156 47 -249q57 -117 166 -117q164 0 291 293q47 111 79.5 266.5t32.5 269.5q0 363 -207 363 q-164 0 -286.5 -249t-122.5 -577z" />
<glyph unicode="1" d="M256 0v43h31q86 0 117.5 47t72.5 246l131 620q27 127 27 148q0 25 -23 24q-33 0 -192 -86l-25 48l477 276l-12 -59l-31 -131q-4 -14 -28 -134l-154 -720q-39 -182 -39 -218q0 -61 92 -61h39v-43h-483z" />
<glyph unicode="2" d="M53 0v86l232 207q291 258 426 414q117 133 116 268q0 109 -70.5 176.5t-183.5 67.5q-237 0 -284 -240h-53q20 172 130.5 269.5t282.5 97.5q162 0 266.5 -95.5t104.5 -244.5q0 -141 -90 -248q-106 -127 -303 -287l-367 -299q115 12 232 12h264q61 0 77.5 5.5t38.5 31.5h52 l-97 -221h-774z" />
<glyph unicode="3" d="M96 158l39 39q135 -129 264 -129q137 0 236.5 114.5t99.5 270.5q0 162 -121 237q-61 39 -178 49l389 426h-399q-90 0 -109 -39h-63l123 199h674l-490 -530q57 10 94 10q119 0 197 -93.5t78 -236.5q0 -199 -142.5 -347t-334.5 -148q-186 0 -357 178z" />
<glyph unicode="4" d="M113 539l766 817h114l-176 -830h234l-27 -127h-229l-84 -399h-170l84 399h-510zM203 526h448l133 627z" />
<glyph unicode="5" d="M94 147l43 39q129 -129 269 -129q152 0 260 123t108 293q0 143 -85 231.5t-224 88.5q-94 0 -229 -56l194 588h506q29 0 51 12h43l-63 -176h-525l-108 -309q102 74 223 74q178 0 289.5 -112t111.5 -288q0 -225 -152.5 -385.5t-365.5 -160.5q-199 0 -346 167z" />
<glyph unicode="6" d="M147 434q0 195 72 385.5t195 323.5q186 203 428 203q94 0 209 -39l-13 -52q-100 23 -155 23q-182 0 -319.5 -146.5t-207.5 -416.5q156 188 344 188q145 0 237.5 -102.5t92.5 -265.5q0 -221 -148.5 -388t-346.5 -167q-180 0 -284 121.5t-104 332.5zM330 424 q0 -131 39 -209q66 -133 209 -133q127 0 215 106.5t88 260.5q0 139 -81 233t-202 94q-119 0 -250 -119q-18 -127 -18 -233z" />
<glyph unicode="7" d="M258 1100l74 225h803q-522 -938 -680 -1325h-185l385 698q59 109 113 199q104 176 147 258h-460q-80 0 -101.5 -8t-42.5 -47h-53z" />
<glyph unicode="8" d="M92 291q0 301 424 411q-190 180 -190 334q0 139 111.5 224.5t293.5 85.5q166 0 258 -70t92 -197q0 -166 -149 -268q-76 -53 -215 -88q139 -123 193.5 -207t54.5 -178q0 -156 -127 -262q-115 -96 -322 -96q-201 0 -312.5 80.5t-111.5 230.5zM272 319q0 -113 82 -187.5 t209 -74.5q104 0 175 62.5t71 154.5q0 82 -57.5 167.5t-202.5 224.5q-6 -2 -25 -9q-252 -94 -252 -338zM496 1081q0 -78 37.5 -144t148.5 -181q20 10 53 22q86 41 138.5 118t52.5 161q0 98 -62.5 160.5t-161.5 62.5q-94 0 -150 -54.5t-56 -144.5z" />
<glyph unicode="9" d="M106 76l35 47q102 -68 201 -68q164 0 308.5 167t203.5 423q-133 -170 -313 -170q-156 0 -250 102.5t-94 270.5q0 213 134 355.5t335 142.5q180 0 287.5 -110t107.5 -329q0 -190 -67.5 -378.5t-188.5 -333.5q-178 -215 -410 -215q-150 0 -289 96zM367 924 q0 -143 78.5 -236.5t197.5 -93.5q113 0 219 113q20 158 21 254q0 330 -226 329q-121 0 -205.5 -106.5t-84.5 -259.5z" />
<glyph unicode=":" horiz-adv-x="491" d="M61 82q0 49 37 86t86 37q41 0 69 -27.5t28 -68.5q0 -49 -37 -86t-86 -37q-41 0 -69 27.5t-28 68.5zM209 778q0 49 37 86t86 37q41 0 68.5 -27.5t27.5 -68.5q0 -49 -37 -86t-86 -37q-41 0 -68.5 27.5t-27.5 68.5z" />
<glyph unicode=";" horiz-adv-x="491" d="M-43 -240q106 45 160.5 104.5t89.5 166.5q-39 -41 -72 -41q-76 0 -76 88q0 51 36 89t83 38q109 0 109 -137q0 -109 -85.5 -201t-228.5 -137zM209 778q0 49 38 86t87 37q41 0 68.5 -27.5t27.5 -68.5q0 -49 -38 -86t-87 -37q-41 0 -68.5 27.5t-27.5 68.5z" />
<glyph unicode="&#x3c;" horiz-adv-x="1024" d="M88 696v13l848 544v-75l-641 -418l641 -428v-203z" />
<glyph unicode="=" d="M162 496v106h887v-106h-887zM162 799v106h887v-106h-887z" />
<glyph unicode="&#x3e;" horiz-adv-x="1024" d="M88 129v78l641 418l-641 428v200l848 -565v-12z" />
<glyph unicode="?" horiz-adv-x="884" d="M211 82q0 49 37 86t86 37q41 0 68.5 -27.5t27.5 -68.5q0 -49 -37 -86t-86 -37q-41 0 -68.5 27.5t-27.5 68.5zM219 1075q0 125 111.5 221.5t257.5 96.5q156 0 251 -83t95 -216q0 -170 -174 -316l-109 -90q-143 -119 -215 -309l-53 16q68 170 90 211q29 53 88 123l82 94 q100 115 100 256q0 102 -64.5 177t-154.5 75q-84 0 -110 -84q-8 -27 -8 -110q0 -74 -17 -99q-25 -43 -84 -43q-86 0 -86 80z" />
<glyph unicode="@" horiz-adv-x="1542" d="M154 668q0 291 202.5 492.5t495.5 201.5q260 0 442.5 -167t182.5 -407t-185 -387q-129 -102 -258 -102q-115 0 -143 107q-109 -98 -215 -99q-102 0 -167 73t-65 187q0 174 121 318.5t266 144.5q133 0 193 -115l31 82h133l-162 -483q-16 -49 -16 -76q0 -57 61 -57 q94 0 189 102q119 127 118 299q0 205 -153.5 346.5t-372.5 141.5q-250 0 -422 -173t-172 -427q0 -250 171 -424t419 -174q150 0 285.5 75.5t209.5 200.5h109q-82 -168 -250 -270.5t-362 -102.5q-285 0 -485.5 203t-200.5 490zM592 522q0 -143 108 -143q133 0 209 215l45 129 q25 70 25 106q0 51 -30.5 87t-76.5 36q-100 0 -190 -138t-90 -292z" />
<glyph unicode="A" horiz-adv-x="1263" d="M-78 0v45q57 6 86 33q16 16 66 90l116 178l672 1071h35l135 -1055q33 -254 58 -288q18 -27 106 -29v-45h-451v45h25q76 0 88 27q6 12 6 39q0 41 -6 90l-33 266h-471l-180 -293q-39 -63 -39 -90q0 -37 105 -39v-45h-318zM397 535h420l-67 575z" />
<glyph unicode="B" horiz-adv-x="1212" d="M61 0v45q80 6 98.5 46t63.5 253l152 717q35 164 35 205q0 51 -97 55q-8 0 -30 2v43h473q209 0 297 -45q118 -59 118 -214q0 -181 -141 -276q-78 -51 -229 -83q150 -20 215 -76q94 -78 94 -226q0 -203 -156 -329q-143 -117 -442 -117h-451zM383 111q0 -55 102 -56 q188 0 291 90q121 106 121 295q0 266 -301 267q-28 -1 -94 -7l-101 -477q-18 -88 -18 -112zM516 766l59 -2h22q166 0 265 86q105 92 105 256q0 207 -254 207q-20 0 -82 -4z" />
<glyph unicode="C" horiz-adv-x="1271" d="M115 498q0 197 84 382t229 312q222 194 466 194h3q96 0 240 -43q106 -32 139 -32h2q20 0 57 14l-90 -426h-43q2 20 2 51q0 176 -77.5 272.5t-221.5 96.5q-225 0 -401 -237.5t-176 -544.5q0 -199 106.5 -327t274.5 -128q252 0 417 254l43 -12q-201 -344 -540 -344 q-236 0 -375 140t-139 378z" />
<glyph unicode="D" horiz-adv-x="1486" d="M59 0v45q82 4 99 43q23 49 65 254l152 717q35 164 35 205q0 49 -97 55l-30 2v45h571q283 0 414 -82q196 -122 196 -417q0 -353 -241 -607q-248 -260 -688 -260h-476zM391 121q0 -37 32 -51.5t118 -14.5q307 0 491 209q213 242 213 584q0 463 -469 463q-55 0 -145 -8 l-199 -930q-41 -193 -41 -252z" />
<glyph unicode="E" horiz-adv-x="1232" d="M47 43q84 4 106.5 42t69.5 257l154 717q37 172 37 207q0 49 -97 55l-30 2v43h940l-41 -313h-43v18q0 147 -50.5 187t-230.5 40h-231l-119 -555h186q147 0 188.5 24t67.5 130h45l-86 -399h-43q8 80 9 100q0 55 -28 66.5t-157 11.5h-196l-129 -608h221q231 0 332.5 56 t156.5 218h49l-84 -342h-995z" />
<glyph unicode="F" horiz-adv-x="1048" d="M41 0v45q88 4 112.5 43t69.5 254l152 717q35 164 35 207q0 49 -97 55l-30 2v43h868l-37 -313h-45q-2 139 -33 182q-45 63 -198 63h-209l-117 -557h190q121 0 162 29t62 129h45l-86 -403h-45q6 53 6 98q0 61 -43 76q-14 4 -103 4h-202l-80 -369q-35 -160 -35 -205 q0 -39 49 -49q8 -2 80 -6v-45h-471z" />
<glyph unicode="G" horiz-adv-x="1509" d="M115 532q0 346 255 600t601 254q106 0 301 -47q51 -12 98 -12q19 0 82 12l-84 -393h-41q-23 375 -350 375q-256 0 -450.5 -235.5t-194.5 -544.5q0 -201 120.5 -335t303.5 -134q156 0 241 65q35 27 56 127l47 225q16 78 16 95q0 35 -51 47q-4 2 -78 8v45h500v-45 q-106 -6 -138 -20.5t-59 -135.5l-76 -354q-266 -149 -515 -149h-3q-266 0 -423.5 149.5t-157.5 402.5z" />
<glyph unicode="H" horiz-adv-x="1505" d="M61 0v45q82 6 99.5 45t62.5 254l152 717q35 164 35 203q0 33 -25 44t-102 13v45h512v-45q-127 -2 -156 -33q-16 -18 -64 -239l-65 -312h608l68 324q35 166 35 203q0 39 -47 51q-8 2 -80 6v45h450v-45q-82 -6 -98 -43q-18 -43 -64 -254l-153 -717q-35 -162 -35 -207 q0 -47 98 -53l31 -2v-45h-512v45q59 2 82 6q57 8 71.5 25.5t63.5 240.5l76 353h-608l-78 -363q-35 -162 -35 -205q0 -41 47 -51q10 -2 82 -6v-45h-451z" />
<glyph unicode="I" horiz-adv-x="694" d="M41 0v45q88 4 112.5 43t69.5 254l152 719q35 166 35 203q0 49 -97 55l-30 2v45h469v-45q-88 -4 -112 -45t-69 -252l-153 -719q-35 -164 -35 -205q0 -39 47 -49q10 -2 80 -6l2 -45h-471z" />
<glyph unicode="J" horiz-adv-x="661" d="M-37 -293q76 20 119 97t84 272l209 985q35 164 35 205q0 39 -48 49q-10 2 -79 6v45h467v-45q-86 -2 -109 -41t-70 -256l-131 -612q-88 -416 -176 -555q-90 -148 -301 -197v47z" />
<glyph unicode="K" horiz-adv-x="1394" d="M61 0v45q82 6 99.5 47t62.5 250l152 719q35 166 35 203q0 49 -97 55l-30 2v45h512v-45q-133 -2 -156 -33q-12 -16 -33 -102q-8 -31 -31 -137l-157 -744q-35 -164 -35 -205q0 -39 49 -49q8 -2 80 -6v-45h-451zM520 723l498 428q135 117 135 137q0 33 -98 33v45h372v-45 q-63 -10 -114 -41t-189 -141l-436 -355l371 -532q98 -141 138 -173t130 -34l2 -45h-532v45q131 8 131 47q0 25 -62 117z" />
<glyph unicode="L" horiz-adv-x="1177" d="M0 0v45q131 6 156 33q4 4 30 102l11 37l20 100l150 699q43 201 43 250q0 31 -25 41t-102 14v45h512v-45q-127 -2 -156 -33q-16 -16 -64 -239l-206 -973h182q209 0 319.5 62.5t210.5 234.5h54l-164 -373h-971z" />
<glyph unicode="M" horiz-adv-x="1701" d="M51 45q82 4 99 33q8 12 18 45q16 70 55 231l144 611q63 270 63 303q0 29 -24.5 40t-100.5 13v45h324l180 -1077l655 1077h265v-45q-72 -10 -87 -37q-18 -43 -63 -254l-160 -749q-33 -154 -33 -181q0 -35 35 -45q14 -4 66 -8l31 -2v-45h-506v45q100 4 131 16q25 10 36 35 t33 131l207 928l-714 -1155h-17l-203 1169l-198 -909q-29 -131 -29 -164q0 -29 23.5 -39t95.5 -12l2 -45h-326z" />
<glyph unicode="N" horiz-adv-x="1460" d="M61 0v45q82 6 99 43q23 51 65 254l191 901q-41 53 -56.5 64.5t-54.5 13.5v45h281l528 -1059l160 754q35 164 35 205q0 31 -24.5 42t-102.5 13v45h336v-45q-80 -2 -101.5 -45t-66.5 -252l-226 -1059h-47l-598 1190l-180 -850q-35 -164 -35 -205q0 -39 47 -49q10 -2 80 -6 v-45h-330z" />
<glyph unicode="O" horiz-adv-x="1509" d="M119 506q0 352 245.5 616t573.5 264q250 0 398.5 -151.5t148.5 -405.5q0 -184 -86 -368.5t-228 -302.5q-211 -178 -487 -178q-254 0 -409.5 144t-155.5 382zM332 504q0 -197 105.5 -316.5t277.5 -119.5q227 0 387 235q78 113 125 271.5t47 304.5q0 205 -91 322.5 t-249 117.5q-233 0 -417.5 -250t-184.5 -565z" />
<glyph unicode="P" horiz-adv-x="1128" d="M41 0v45q86 4 111.5 44t70.5 253l152 717q35 164 35 205q0 49 -97 55l-30 2v45h485q229 0 315 -72q96 -80 97 -227q0 -125 -74 -238.5t-191 -169.5q-131 -63 -436 -65l-61 -289q-35 -164 -35 -205q0 -39 49 -49q8 -2 80 -6v-45h-471zM492 645q231 6 323 74 q66 49 110 156.5t44 220.5q0 215 -254 215q-6 0 -84 -4z" />
<glyph unicode="Q" horiz-adv-x="1509" d="M119 506q0 352 245.5 616t575.5 264q244 0 394.5 -150.5t150.5 -393.5q0 -313 -199 -566q-100 -129 -250 -210q212 -122 357 -132l4 -49q-168 4 -316.5 37t-208.5 80q-92 -22 -178 -22h-8q-256 0 -411.5 144t-155.5 382zM332 504q0 -197 105.5 -316.5t277.5 -119.5 q227 0 387 235q78 113 125 271.5t47 304.5q0 205 -91 322.5t-249 117.5q-233 0 -417.5 -250t-184.5 -565z" />
<glyph unicode="R" horiz-adv-x="1316" d="M43 0v45q90 6 111 43q27 47 69 254l152 717q39 184 39 207q0 47 -97 53l-30 2v45h571q193 0 282 -68.5t89 -218.5q0 -201 -170 -313q-86 -57 -176 -72q2 0 -34 -2t-73 -2h-14q45 -25 65.5 -49.5t51.5 -89.5l143 -301q68 -141 103.5 -171t134.5 -34v-45h-324l-236 496 q-57 121 -75.5 143.5t-57.5 22.5h-73l-76 -357q-35 -164 -35 -205q0 -39 47 -49q10 -2 80 -6l2 -45h-469zM506 719q35 -2 84 -2q430 0 430 356q0 238 -297 238q-53 0 -92 -4z" />
<glyph unicode="S" horiz-adv-x="1028" d="M39 0l90 485h47q0 -174 74 -280q94 -137 252 -137q113 0 190.5 73.5t77.5 180.5q0 106 -154 235l-165 139q-135 113 -178.5 179.5t-43.5 164.5q0 150 111 248t278 98q82 0 189 -32q86 -27 119 -27q39 1 100 21l-72 -338h-45q-41 309 -284 309q-100 0 -167 -60.5 t-67 -150.5q0 -113 187 -262l157 -127q188 -152 189 -332q0 -174 -124 -290.5t-308 -116.5q-94 0 -256 51q-39 12 -80 12q-51 0 -117 -43z" />
<glyph unicode="T" horiz-adv-x="1165" d="M147 1020l76 356q184 -10 342 -10h418q139 0 342 10l-68 -356h-45q2 23 2 49q0 152 -59 195q-29 20 -80 26t-209 8l-211 -993q-34 -159 -34 -203q0 -49 96 -55l33 -2v-45h-512v45q53 2 81 4q57 8 73 26.5t63 241.5l209 981q-236 0 -317 -47t-157 -231h-43z" />
<glyph unicode="U" horiz-adv-x="1429" d="M225 344q0 84 27 209l108 508q33 154 33 203q0 41 -47 51q-8 2 -80 6v45h516v-45q-129 -2 -155 -33q-16 -8 -66 -239l-100 -474q-33 -154 -33 -231q0 -119 85 -188.5t230 -69.5q168 0 269 109q76 82 137 370l104 496q33 156 33 205q0 47 -98 53q-4 2 -31 2v45h332v-45 q-82 -6 -98 -43q-18 -45 -64 -254l-104 -489q-41 -197 -79 -285t-106 -150q-134 -120 -354 -120h-4q-211 0 -333 98t-122 266z" />
<glyph unicode="V" horiz-adv-x="1214" d="M127 1321v45h502v-45q-94 -4 -121 -14.5t-27 -42.5q0 -31 23 -177l123 -798l456 768q119 201 119 223q0 41 -88 41h-27v45h336v-45q-70 -8 -108 -53q-25 -29 -144 -226l-655 -1083h-29l-202 1231q-14 86 -37 104.5t-121 26.5z" />
<glyph unicode="W" horiz-adv-x="1761" d="M127 1321v45h485v-45q-86 -4 -92 -6q-51 -10 -51 -58q0 -27 14 -137l103 -796l409 766l-18 129q-8 61 -26.5 78.5t-80.5 21.5l-34 2v45h477v-45q-96 -6 -119 -16.5t-23 -49.5q0 -35 13 -135l98 -796l438 809q57 106 58 149q0 37 -117 39v45h305v-45q-43 -10 -73.5 -55 t-168.5 -293l-559 -1014h-24l-131 1006l-545 -1006h-21l-143 1065q-6 37 -27 174q-10 76 -26.5 93.5t-81.5 27.5q-20 0 -39 2z" />
<glyph unicode="X" horiz-adv-x="1327" d="M-27 0v45q57 8 91 34.5t172 176.5l387 420l-189 440q-61 143 -90 170t-131 37v43h504v-43q-139 -8 -139 -43q0 -20 53 -145l135 -320l258 291q152 170 152 184q0 29 -70 31q-10 0 -35 2v43h334v-43q-66 -8 -117 -57q-25 -25 -192 -199l-303 -315l233 -529 q57 -129 84 -151.5t131 -26.5v-45h-520v45q82 4 110.5 14.5t28.5 34.5q0 16 -47 129l-162 385l-332 -372q-120 -134 -120 -154q0 -29 112 -37v-45h-338z" />
<glyph unicode="Y" horiz-adv-x="1183" d="M133 1321v45h494v-45q-47 -4 -101 -10q-29 -8 -28 -37q0 -20 30 -100l4 -15l173 -465l307 391q147 188 147 205q0 27 -59 29q-6 0 -47 2v45h354v-45q-78 -6 -118 -38t-161 -179l-399 -492l-63 -307q-35 -168 -35 -205q0 -39 47 -49q8 -2 80 -6v-45h-504v45q129 2 156 33 q18 20 63 239l62 295l-175 455q-31 82 -61 158q-23 55 -43 70.5t-84 21.5q-10 2 -39 4z" />
<glyph unicode="Z" horiz-adv-x="1269" d="M4 0l995 1280h-288q-188 0 -272.5 -44t-153.5 -181h-45l100 311h963l-992 -1280h338q229 0 315.5 48t161.5 218h48l-89 -352h-1081z" />
<glyph unicode="[" horiz-adv-x="585" d="M8 -281l354 1667h353l-15 -65h-208l-326 -1536h209l-15 -66h-352z" />
<glyph unicode="\" horiz-adv-x="811" d="M279 1378h100l248 -1700h-103z" />
<glyph unicode="]" horiz-adv-x="585" d="M-86 -281l14 66h209l326 1536h-209l14 65h353l-355 -1667h-352z" />
<glyph unicode="^" horiz-adv-x="1024" d="M-49 586l565 848h14l545 -848h-76l-417 641l-428 -641h-203z" />
<glyph unicode="_" horiz-adv-x="1024" d="M47 -180h930v-86h-930v86z" />
<glyph unicode="`" horiz-adv-x="1024" d="M422 1366q0 53 59 53q43 0 86 -71l154 -256h-68l-180 190q-51 53 -51 84z" />
<glyph unicode="a" horiz-adv-x="980" d="M45 193q0 248 176 491.5t357 243.5q143 0 161 -162l47 162h140q-18 -57 -103 -342l-88 -301q-43 -147 -43 -174q0 -31 29 -31q45 0 141 127l31 -23q-156 -221 -264 -221q-80 0 -80 78q0 39 33 166l26 102q-119 -188 -206 -269t-173 -81q-84 0 -134 63.5t-50 170.5z M203 248q0 -68 31.5 -109t82.5 -41q94 0 222 178q172 242 172 429q0 172 -127 172q-158 0 -293 -291q-88 -190 -88 -338z" />
<glyph unicode="b" horiz-adv-x="985" d="M84 141q0 63 35 226l125 581q61 287 61 320q0 30 -48 30h-3l-70 -4v43l320 111q-58 -225 -76 -309l-100 -473q104 143 185 202.5t173 59.5q109 0 175.5 -78t66.5 -207q0 -127 -58.5 -266t-156.5 -250q-150 -168 -351 -168q-131 0 -204.5 48t-73.5 134zM250 209 q0 -174 149 -174q141 0 249 184t108 381q0 201 -152 201q-78 0 -144.5 -52.5t-152.5 -177.5q-4 -20 -12 -57q-45 -215 -45 -305z" />
<glyph unicode="c" horiz-adv-x="833" d="M57 293q0 233 184.5 434t401.5 201q100 0 158.5 -46t58.5 -124q0 -125 -90 -125q-104 0 -104 53q0 16 20 78q12 37 12 59q0 57 -71 58q-141 0 -269.5 -178.5t-128.5 -374.5q0 -113 56.5 -181.5t148.5 -68.5q148 0 277 176l32 -21q-174 -274 -387 -274q-133 0 -216 92 t-83 242z" />
<glyph unicode="d" horiz-adv-x="1017" d="M53 233q0 250 164 472.5t346 222.5q84 0 129 -60q25 -33 41 -108l39 188q63 307 64 320q0 30 -54 30h-4t-71 -4v43l335 111q-51 -178 -79 -309l-156 -736q-45 -213 -45 -247q0 -35 22 -35q60 0 138 119l34 -25q-154 -252 -274 -252q-90 0 -90 96q0 51 41 228 q-86 -156 -152 -224q-100 -104 -213 -104q-98 0 -156.5 75t-58.5 199zM225 293q0 -197 133 -197q146 0 304 332l51 236q-12 202 -137 202h-1q-125 0 -237.5 -184t-112.5 -389z" />
<glyph unicode="e" horiz-adv-x="860" d="M51 270q0 297 279 525q162 133 327 133q92 0 146.5 -47t54.5 -129q0 -88 -71.5 -169t-192.5 -128q-154 -61 -371 -70q-6 -45 -6 -68q0 -104 57.5 -167.5t151.5 -63.5q150 0 297 190l41 -20q-180 -297 -424 -297q-131 0 -210 85t-79 226zM229 422q160 29 254.5 72 t155.5 121.5t61 158.5q0 98 -77 98q-102 0 -236 -157q-101 -119 -158 -293z" />
<glyph unicode="f" horiz-adv-x="589" d="M-123 -301q0 41 26.5 69.5t65.5 28.5q43 0 70 -63q6 -16 16 -17q23 0 40.5 57.5t51.5 243.5l144 775h-180v67h194l33 141q66 279 199 379q82 61 188 62q70 0 111 -36t41 -97q0 -104 -82 -105q-78 0 -78 74q0 6 4 55q2 4 2 15q0 31 -35 30q-41 0 -80 -45t-52 -82t-44 -182 l-45 -209h176v-67h-190l-111 -519q-143 -669 -359 -669h-1q-45 0 -75 26.5t-30 67.5z" />
<glyph unicode="g" horiz-adv-x="866" d="M-41 -195q0 166 231 246q-116 39 -116 93q0 38 34.5 72t137.5 93q-131 82 -131 226q0 156 115.5 274.5t265.5 118.5q96 0 172 -68q80 86 149 86q37 0 62.5 -24.5t25.5 -61.5q0 -82 -78 -82q-47 0 -65 56q-8 23 -25 22q-12 0 -47 -22q72 -74 72 -185q0 -145 -112.5 -266 t-250.5 -121q-43 0 -110 23q-68 -57 -68 -82q0 -21 127 -56l184 -51q133 -37 179 -73q61 -49 61 -148q0 -133 -127 -222t-319 -89q-166 0 -266.5 66.5t-100.5 174.5zM133 -164q0 -90 75 -146.5t193 -56.5q113 0 192 56.5t79 136.5q0 88 -197 141l-166 45q-18 5 -55 17l-27 8 q-94 -119 -94 -201zM272 508q0 -63 36 -108.5t89 -45.5q82 0 140 103q82 143 81 266q1 141 -112 141q-76 0 -135 -80q-98 -131 -99 -276z" />
<glyph unicode="h" horiz-adv-x="1069" d="M61 0l224 1055q43 195 43 213q0 30 -51 30h-3q-2 0 -59 -4v43l317 111q-52 -178 -81 -309l-136 -635q152 178 226 248q173 163 285 163h1q51 0 85 -34.5t34 -87.5q0 -59 -35 -177l-102 -344q-29 -96 -29 -127q0 -37 31 -36q55 0 152 129l34 -25q-168 -240 -286 -240 q-45 0 -74 26t-29 64q0 39 27 130l117 397q24 81 24 129q0 57 -43 57q-133 0 -434 -356l-90 -420h-148z" />
<glyph unicode="i" horiz-adv-x="534" d="M111 72q0 37 24 149l90 416q8 37 17.5 83t9.5 58q0 31 -59 31h-62v37l313 102q-41 -160 -65 -276l-60 -285q-40 -192 -40 -225q0 -43 26 -43q51 0 137 125l35 -23q-152 -248 -270 -248q-96 0 -96 99zM303 1284q0 51 32 85t79 34q98 0 98 -107q0 -55 -28.5 -90t-75.5 -35 q-45 0 -75 32t-30 81z" />
<glyph unicode="j" horiz-adv-x="505" d="M-129 -295q0 37 24.5 64.5t59.5 27.5q41 0 76 -55q8 -14 16 -14q27 0 35 104q14 193 59 410l84 397q29 135 29 141q0 31 -52 31h-7l-66 -2v39l322 102l-27 -112q-6 -31 -37 -166l-135 -633q-94 -440 -272 -440q-45 0 -77 30.5t-32 75.5zM274 1284q0 51 32 85t79 34 q98 0 98 -105q0 -57 -28.5 -92t-75.5 -35q-45 0 -75 32t-30 81z" />
<glyph unicode="k" horiz-adv-x="1001" d="M61 0l201 946q57 270 57 316q0 36 -54 36h-3t-59 -4v43l319 109q-23 -86 -71 -307l-136 -641l197 143q139 102 166 124.5t27 47.5q0 29 -46 29h-20v45h358v-45q-53 -2 -86.5 -18.5t-146.5 -92.5l-223 -149l49 -162q55 -180 93 -249t83 -69q55 0 143 142l43 -31 q-74 -135 -127 -187.5t-114 -52.5q-76 0 -129.5 74t-106.5 256l-57 195l-119 -78l-90 -420h-148z" />
<glyph unicode="l" horiz-adv-x="516" d="M82 78q0 51 35 215l139 655q57 270 57 318q0 32 -50 32h-3q-2 0 -76 -4v43l332 111q-33 -117 -55 -229l-17 -80l-129 -604q-69 -321 -69 -366q0 -50 35 -50q53 0 135 119l30 -25q-139 -240 -260 -240q-45 0 -74.5 30t-29.5 75z" />
<glyph unicode="m" horiz-adv-x="1587" d="M80 0l147 637q10 41 21 86q10 37 10 59q0 29 -47 29h-12q-35 -2 -56 -2h-4l-2 37l322 102q-35 -94 -74 -276l-33 -154q307 397 477 397q45 0 73 -29.5t28 -76.5q0 -43 -64 -291q180 221 291 309t209 88q43 0 72.5 -28.5t29.5 -71.5q0 -53 -38 -188l-103 -357 q-27 -92 -27 -116q0 -37 31 -37q66 0 148 123l39 -23q-176 -244 -295 -244q-37 0 -63.5 28t-26.5 67q0 43 36 172l107 372q27 94 27 129q0 39 -39 39q-129 0 -418 -356l-90 -424h-152l121 520q41 176 41 215q0 45 -41 45q-119 0 -393 -356l-90 -424h-162z" />
<glyph unicode="n" horiz-adv-x="1089" d="M80 0l127 547q47 203 47 233q0 35 -72 35q-27 0 -43 -2v37l314 98l-103 -434q190 225 303 313t211 88q106 0 107 -98q0 -41 -39 -174l-109 -373q-24 -81 -24 -110q0 -43 35 -43q51 0 153 129l29 -29q-170 -244 -289 -244q-39 0 -66.5 28t-27.5 67q0 49 33 161l108 375 q33 113 33 135q0 43 -43 43q-66 0 -186.5 -97t-243.5 -247l-92 -438h-162z" />
<glyph unicode="o" horiz-adv-x="1003" d="M59 313q0 227 179.5 421t390.5 194q145 0 232 -93.5t87 -250.5q0 -123 -67.5 -265.5t-167.5 -230.5q-145 -129 -316 -129q-152 0 -245 98.5t-93 255.5zM233 289q0 -113 55.5 -183.5t143.5 -70.5q109 0 197 115q59 78 102 213t43 243q0 121 -45 190.5t-123 69.5 q-139 0 -256 -180t-117 -397z" />
<glyph unicode="p" horiz-adv-x="997" d="M-70 -373q55 8 70 47l10 45q18 72 56 236l143 682q20 98 20 141q0 33 -55 33h-6l-64 -2v37l332 102l-26 -96q-8 -27 -37 -137q167 200 330 200h2q109 0 172 -68.5t63 -184.5q0 -121 -48 -258.5t-128 -243.5q-141 -186 -305 -187q-150 1 -205 179l-82 -383 q-16 -76 -16 -93q0 -27 23.5 -35t94.5 -12v-45h-344v43zM285 242q0 -84 44 -133.5t120 -49.5q131 0 227 186.5t96 362.5q0 88 -42 139.5t-114 51.5q-108 0 -258 -160l-63 -291q-10 -47 -10 -106z" />
<glyph unicode="q" horiz-adv-x="993" d="M53 264q0 231 175 441t370 210h2q118 0 195 -112l123 98h32q-31 -109 -73 -311l-136 -641q-49 -233 -49 -271q0 -33 47 -43q6 0 72 -6v-45h-438v47q98 2 127.5 15.5t54.5 130.5l96 459q-88 -141 -165.5 -202t-174.5 -61q-117 0 -187.5 80t-70.5 211zM229 315 q0 -94 46.5 -151.5t121.5 -57.5q100 0 195 121q82 105 98 187l53 254q4 20 5 37q0 74 -37 116.5t-99 42.5q-135 0 -259 -177t-124 -372z" />
<glyph unicode="r" horiz-adv-x="700" d="M72 0l159 637q29 115 29 141q0 33 -70 33q-18 0 -47 -2l-2 37l330 102l-115 -381q12 16 103.5 159.5t124 179.5t73.5 36q74 0 74 -102q0 -152 -90 -152q-47 0 -53 35q-2 20 -19 20q-25 0 -92 -84q-76 -94 -143 -196l-98 -463h-164z" />
<glyph unicode="s" horiz-adv-x="727" d="M25 -12l43 346l38 2q10 -137 76 -218t168 -81q66 0 107 37t41 96q0 72 -105 172l-117 113q-139 135 -139 250q0 96 73 160.5t183 64.5q39 0 123 -15l14 -2q59 -10 95 -10q24 0 51 2l-23 -264h-45q-8 111 -51 162q-56 69 -146 69h-3q-61 0 -99.5 -31.5t-38.5 -82.5 q0 -61 101 -156l121 -113q124 -116 124 -241q0 -121 -81.5 -205t-198.5 -84q-55 0 -139 27q-45 14 -97 14q-35 0 -75 -12z" />
<glyph unicode="t" horiz-adv-x="563" d="M100 793v55q127 39 189.5 107.5t124.5 236.5h69l-71 -332h170v-67h-185l-80 -381q-36 -171 -36 -213q0 -51 32 -52q49 0 133 123l33 -26q-90 -152 -152.5 -211.5t-125.5 -59.5q-94 0 -95 111q0 39 23 147l119 562h-148z" />
<glyph unicode="u" horiz-adv-x="1075" d="M94 104q0 45 41 209l86 344q2 14 15 58q16 57 16 78q0 25 -47 24q-2 0 -64 -4v45l303 90l-133 -532q-47 -188 -47 -226q0 -79 68 -79h2q133 0 407 401l109 430h164l-119 -401q-96 -326 -96 -365t28 -39q55 0 142 123l35 -27q-63 -92 -115 -155q-86 -102 -166 -103 q-39 0 -63.5 30t-24.5 75q0 33 61 258q6 23 21 76q-264 -440 -473 -441q-68 0 -109 36t-41 95z" />
<glyph unicode="v" horiz-adv-x="915" d="M70 813l239 102q84 -176 84 -456q0 -184 -47 -373q141 55 277 256q66 96 111.5 203.5t45.5 165.5q0 35 -53 49q-41 12 -41 74q0 74 41 88q20 6 53 6q68 0 93.5 -21.5t25.5 -79.5q0 -141 -102.5 -332.5t-264.5 -349.5q-180 -176 -356 -186q63 193 64 461q0 276 -37 350 q-10 20 -37 21q-4 0 -60 -9q-8 -4 -26 -4z" />
<glyph unicode="w" horiz-adv-x="1423" d="M72 819l245 109q76 -182 76 -439q0 -217 -37 -378q96 47 215 227t170 362q-4 33 -4 37q-10 63 -43 64l-20 -2q-4 0 -15 -4l-14 45l182 71q70 -182 70 -438q0 -174 -43 -367q147 51 297 293q129 207 129 312q0 23 -35 38t-46 28.5t-11 47.5q0 45 14 78q10 25 70 25 q78 0 100 -19q33 -27 33 -84q0 -125 -101.5 -317.5t-242.5 -333.5q-174 -176 -377 -215q72 254 72 518q0 14 -4 105q-96 -258 -263 -437.5t-317 -185.5q70 227 70 485q0 162 -27 299q-8 45 -39 45q-25 0 -90 -16z" />
<glyph unicode="x" horiz-adv-x="927" d="M72 184q47 0 63 -43q6 -14 15 -14q33 0 124 133l111 160l-47 153q-49 162 -78 203q-10 16 -33 17q-27 0 -80 -15l-22 -6l-12 45l247 125q76 -137 144 -405q242 391 352 391q61 0 62 -84q0 -137 -84 -137q-37 0 -62 41q-4 8 -12 8q-33 0 -158 -170l-78 -107l64 -207 q51 -166 102 -166q55 0 121 138l43 -25q-63 -147 -111.5 -203.5t-113.5 -56.5q-55 0 -88 38t-64 134l-71 227l-125 -194q-131 -205 -220 -205q-69 0 -69 91q0 134 80 134z" />
<glyph unicode="y" horiz-adv-x="931" d="M41 -272q0 55 14.5 74.5t61.5 19.5q63 0 76 -51q8 -29 28 -29q29 0 95.5 69.5t132.5 168.5q-27 270 -144 595q-49 139 -72.5 181.5t-48.5 42.5q-23 0 -98 -23l-14 43l237 123q90 -129 170 -385t82 -418q88 150 155.5 321t67.5 249q0 35 -48 45t-48 71q0 59 17.5 82 t70.5 23q131 0 131 -107q0 -129 -126 -398t-296 -501q-158 -215 -256 -284q-49 -35 -106 -35q-45 0 -63.5 26.5t-18.5 96.5z" />
<glyph unicode="z" horiz-adv-x="825" d="M14 -14q86 203 365 481q2 2 135 139q86 88 148 148q-72 -10 -140 -11h-168q-82 0 -112 -14q-41 -18 -74 -86h-41l82 258q70 -14 145 -14h215q115 0 252 14q-29 -74 -74 -134t-163 -179q-297 -295 -406 -457q92 12 205 12h121q80 0 119 22.5t59 82.5h41l-82 -262 q-184 14 -250 14h-108q-111 0 -269 -14z" />
<glyph unicode="{" horiz-adv-x="712" d="M127 -182q0 31 6 59l111 522q6 29 6 45q0 39 -66 74q-29 20 -26 35l2 6l2 14q8 23 71.5 47.5t77.5 94.5l113 528q31 143 149 143h256l-16 -81h-102q-86 0 -113 -25t-47 -117l-98 -456q-14 -66 -39 -95.5t-86 -52.5q68 -39 67 -104q0 -23 -4 -41l-98 -457q-12 -57 -12 -86 q0 -49 28 -61q23 -8 82 -9h103l-19 -82h-229q-119 0 -119 99z" />
<glyph unicode="|" horiz-adv-x="1024" d="M459 -342v1708h108v-1708h-108z" />
<glyph unicode="}" horiz-adv-x="712" d="M-74 -281l19 82h102q86 0 114 25t46 117l96 456q14 66 39 95.5t86 52.5q-68 39 -68 104q0 23 5 41l98 457q14 68 14 86q0 49 -31 61q-23 8 -81 9h-103l19 81h229q121 0 121 -98q0 -20 -8 -59l-111 -522q-6 -29 -6 -45q0 -39 65 -74q29 -20 27 -35l-2 -6l-2 -15 q-6 -23 -70.5 -46t-79.5 -95l-110 -528q-31 -143 -152 -144h-256z" />
<glyph unicode="~" horiz-adv-x="1366" d="M252 1276q121 197 283 197q53 0 129 -25q63 -20 127 -43q51 -14 92 -14q110 -1 202 112l29 -18q-49 -88 -127 -142.5t-151 -54.5q-43 0 -129 29q-178 59 -240 59q-61 0 -107 -35q-23 -18 -79 -84z" />
<glyph unicode="&#xa1;" horiz-adv-x="624" d="M8 -432q0 37 43 166l258 780h47l-125 -831q-18 -125 -44.5 -170t-82.5 -45q-41 0 -68.5 27.5t-27.5 72.5zM289 778q0 49 37 86t86 37q41 0 68.5 -27.5t27.5 -68.5q0 -47 -38 -85t-85 -38q-41 0 -68.5 27.5t-27.5 68.5z" />
<glyph unicode="&#xa2;" d="M240 537q0 193 132 371.5t326 248.5l41 193h99l-39 -183q240 0 239 -172q0 -123 -90 -123q-104 0 -104 56q0 16 20 76q12 37 13 53q0 57 -74 57q-139 0 -266 -175t-127 -368q0 -115 57 -184.5t151 -69.5q147 0 277 177l33 -21q-147 -242 -334 -272l-39 -185h-100l41 185 q-117 16 -186.5 107t-69.5 229z" />
<glyph unicode="&#xa3;" d="M-18 150q0 72 53 117.5t139 45.5q76 0 170 -26q16 104 16 233q0 25 -4 123h-200v84h200l-2 158q-4 256 140 391q117 111 284 110q129 0 216 -67.5t87 -167.5q0 -61 -32.5 -102t-79.5 -41q-39 0 -67 27.5t-28 66.5t52 92q12 16 12 37q0 39 -44 65.5t-103 26.5 q-145 0 -205 -147q-35 -88 -41 -291l-4 -158h282v-84h-284q-12 -184 -101 -385l121 -39q154 -49 227 -49q172 0 230 215l57 -10q-45 -199 -88 -269q-78 -127 -233 -126q-66 0 -122.5 23.5t-260.5 135.5q-121 -145 -224 -145q-72 0 -117.5 44t-45.5 112zM78 154q0 -66 74 -66 q55 0 137 88q-84 45 -144 45q-68 0 -67 -67z" />
<glyph unicode="&#xa4;" horiz-adv-x="1495" d="M115 563l51 80h102q3 23 17 80h-138l52 80h110q88 252 295 417.5t432 165.5q96 0 240 -43q109 -33 143 -32q20 0 58 14l-91 -426h-43v51q0 176 -77.5 272.5t-218.5 96.5q-170 0 -323 -145.5t-218 -370.5h635l-49 -80h-605q-4 -23 -12 -80h565l-51 -80h-520q0 -4 -2 -6 v-22q0 -199 107.5 -326t273.5 -127q252 0 418 254l43 -12q-199 -344 -541 -344q-233 0 -373.5 140t-140.5 374q0 8 4 69h-143z" />
<glyph unicode="&#xa5;" d="M172 1282v43h461v-43q-84 -8 -98 -12q-27 -6 -27 -33q0 -8 29 -115l116 -436l310 406q106 139 106 161q0 25 -57 27q-6 0 -45 2v43h342v-43q-78 -6 -119 -39t-150 -172l-235 -307h166v-82h-230l-67 -88l-19 -82h263v-82h-279l-29 -133q-33 -152 -32 -199q0 -47 94 -53 l30 -2v-43h-466v43q98 2 133 20q20 10 27 29t28 119q8 43 20 96l27 123h-281v82h299l17 82l-25 88h-235v82h213l-76 266q-49 174 -73.5 208t-100.5 40q-10 0 -37 4z" />
<glyph unicode="&#xa6;" horiz-adv-x="1024" d="M459 313h108v-655h-108v655zM459 682v684h108v-684h-108z" />
<glyph unicode="&#xa7;" horiz-adv-x="942" d="M49 -31q0 96 94 97q94 0 95 -72q0 -16 -11 -51q-12 -41 -12 -60q0 -49 50 -87t116 -38q80 0 136 52.5t56 123.5q0 78 -112 205l-154 172q-150 168 -149 299q0 135 102 219q61 49 184 72q-92 117 -92 207q0 115 94.5 193.5t229.5 78.5q115 0 189.5 -59t74.5 -154 q0 -109 -86 -108q-88 0 -88 74q0 27 14 84q4 16 4 28q0 39 -33.5 63.5t-84.5 24.5q-74 0 -129.5 -48t-55.5 -114q0 -73 111 -204l135 -160q129 -152 129 -272q0 -129 -111 -203q-63 -43 -184 -62q135 -156 135 -274q0 -123 -97 -206t-239 -83q-139 0 -225 73t-86 189z M270 696q0 -104 142 -258l127 -137q199 43 198 170q0 74 -82 172l-184 221q-201 -31 -201 -168z" />
<glyph unicode="&#xa8;" horiz-adv-x="1024" d="M424 1225q0 45 32.5 80.5t73.5 35.5q35 0 58.5 -26.5t23.5 -65.5q0 -45 -32.5 -80.5t-73.5 -35.5q-35 0 -58.5 26.5t-23.5 65.5zM743 1225q0 45 33 80.5t74 35.5q35 0 58.5 -26.5t23.5 -65.5q0 -47 -32 -81.5t-75 -34.5q-35 0 -58.5 26.5t-23.5 65.5z" />
<glyph unicode="&#xa9;" horiz-adv-x="1593" d="M135 682q0 295 209 499.5t512 204.5q289 0 497 -207.5t208 -496.5q0 -291 -209 -496.5t-504 -205.5t-504 205.5t-209 496.5zM211 682q0 -266 186.5 -454.5t448.5 -188.5t448.5 188.5t186.5 454.5q0 264 -185.5 454.5t-443.5 190.5q-268 0 -454.5 -187.5t-186.5 -457.5z M453 596q0 197 139 349.5t319 152.5q55 0 142 -25q66 -18 82 -18q10 0 41 12l-56 -256h-37v31q0 205 -170 205q-127 0 -225 -129.5t-98 -294.5q0 -113 61.5 -183.5t157.5 -70.5q141 0 238 143l36 -12q-121 -203 -325 -203q-139 0 -222 81t-83 218z" />
<glyph unicode="&#xaa;" horiz-adv-x="737" d="M221 936q0 150 111.5 293t226.5 143q80 0 100 -72l23 72h102q-37 -109 -67 -207l-53 -176q-27 -88 -27 -100q0 -10 12 -10q33 0 84 77l31 -22q-94 -137 -172 -137q-57 0 -57 51q0 -2 20 100l4 21q-125 -174 -217 -174q-121 0 -121 141zM334 971q0 -82 63 -82t149.5 126 t86.5 220t-72 94t-149.5 -122t-77.5 -236z" />
<glyph unicode="&#xab;" horiz-adv-x="829" d="M63 461q213 180 353 373h106q-160 -268 -297 -373q74 -138 140 -365h-86q-86 236 -216 365zM377 461q205 172 354 373h105q-156 -264 -297 -373q80 -152 139 -365h-86q-82 231 -215 365z" />
<glyph unicode="&#xac;" horiz-adv-x="1024" d="M74 465v82h878v-547h-188v465h-690z" />
<glyph unicode="&#xad;" horiz-adv-x="454" d="M18 395v137h426v-137h-426z" />
<glyph unicode="&#xae;" horiz-adv-x="1593" d="M135 682q0 295 209 499.5t512 204.5q289 0 497 -207.5t208 -496.5q0 -291 -209 -496.5t-504 -205.5t-504 205.5t-209 496.5zM211 682q0 -266 186.5 -454.5t448.5 -188.5t448.5 188.5t186.5 454.5q0 264 -185.5 454.5t-443.5 190.5q-268 0 -454.5 -187.5t-186.5 -457.5z M459 307v39q53 2 65 21q14 33 37 139l86 401q20 96 21 115q0 23 -52 25q-6 0 -22 2v36h340q221 0 221 -165q0 -96 -70.5 -160t-179.5 -66q29 -27 49 -67l84 -168q41 -80 60.5 -95.5t79.5 -17.5v-39h-199l-141 281q-33 68 -42.5 79t-29.5 11h-37l-41 -193q-18 -86 -18 -114 q0 -25 51 -25h22v-39h-284zM739 723h41q240 0 240 190q0 129 -166 129q-27 0 -47 -2z" />
<glyph unicode="&#xaf;" horiz-adv-x="1024" d="M47 1638v86h930v-86h-930z" />
<glyph unicode="&#xb0;" horiz-adv-x="841" d="M276 1102q0 113 84 193.5t199 80.5q119 0 202 -81t83 -195q0 -115 -84 -197t-199 -82q-119 0 -202 82t-83 199zM365 1102q0 -82 57 -139.5t139 -57.5q80 0 137.5 57.5t57.5 137.5q0 78 -57.5 135t-137.5 57q-82 0 -139 -56t-57 -134z" />
<glyph unicode="&#xb1;" d="M158 27v110h886v-110h-886zM158 625v110h385v359h119v-359h382v-110h-382v-361h-119v361h-385z" />
<glyph unicode="&#xb2;" horiz-adv-x="722" d="M127 604l145 125q203 174 266.5 251t63.5 148q0 63 -42 101.5t-109 38.5q-145 -1 -170 -144h-48q12 109 82 169.5t183 60.5q104 0 170.5 -58.5t66.5 -148.5q0 -76 -50 -142.5t-196 -181.5l-204 -161q84 6 121 6h165q47 0 68 22h45l-66 -145h-489z" />
<glyph unicode="&#xb3;" horiz-adv-x="722" d="M150 645l34 33q86 -78 166 -78q82 0 140.5 63.5t58.5 151.5q0 96 -74 139q-41 23 -123 29l238 250h-236q-51 0 -61 -23h-53l84 131h436l-297 -309q18 2 47 2q72 0 122 -59.5t50 -143.5q0 -119 -90 -207.5t-211 -88.5t-231 110z" />
<glyph unicode="&#xb4;" horiz-adv-x="1024" d="M541 1094l241 249q74 76 105 76q53 0 53 -55q0 -39 -78 -94l-246 -176h-75z" />
<glyph unicode="&#xb5;" horiz-adv-x="1075" d="M-80 -322q0 33 41 138l6 14q125 313 168 483l158 629h149l-131 -526q-47 -188 -47 -226q0 -80 70 -79q133 0 407 401l109 430h164l-158 -536q-57 -197 -57 -230q0 -39 28 -39q58 0 142 123l35 -27q-70 -100 -115 -155q-84 -102 -166 -103q-39 0 -63.5 30t-24.5 75 q0 35 61 258q6 20 21 76q-262 -440 -473 -441q-76 0 -121 70q-6 -29 -8 -50.5t-11 -76.5l-12 -98q-16 -127 -49 -170q-27 -35 -66 -35q-57 0 -57 65z" />
<glyph unicode="&#xb6;" horiz-adv-x="1150" d="M203 -410l10 50q113 0 141 26q23 29 60 201l164 774h-23q-319 0 -319 283q0 231 188 356q90 59 211 78q63 8 225 8h387l-10 -49q-113 0 -141 -29q-20 -20 -60 -201l-260 -1220q-31 -143 -31 -174q0 -43 52 -49q27 -4 84 -4l-11 -50h-266l363 1710h-142l-364 -1710h-258z " />
<glyph unicode="&#xb7;" horiz-adv-x="491" d="M139 451q0 49 37 85.5t86 36.5q41 0 68.5 -27.5t27.5 -68.5q0 -49 -36.5 -86t-85.5 -37q-41 0 -69 28t-28 69z" />
<glyph unicode="&#xb8;" horiz-adv-x="1024" d="M213 -352l23 55q68 -31 131 -31q109 0 108 78q0 72 -84 72q-14 0 -45 -6l-20 16l100 168h66l-70 -117q23 4 47 4q59 0 96 -34.5t37 -90.5q0 -70 -58.5 -112.5t-154.5 -42.5q-86 0 -176 41z" />
<glyph unicode="&#xb9;" horiz-adv-x="722" d="M252 547v39h27q51 0 67 25.5t41 140.5l78 366q16 78 16 84q0 10 -8 10q-23 0 -123 -53l-22 39l315 174q-8 -31 -22 -94q-12 -49 -25 -111l-90 -424q-23 -106 -23 -127q0 -31 54 -30h28v-39h-313z" />
<glyph unicode="&#xba;" horiz-adv-x="737" d="M225 1010q0 133 114 247.5t247 114.5q92 0 150.5 -59.5t54.5 -149.5q-6 -145 -112 -256.5t-237 -111.5q-96 0 -156.5 59t-60.5 156zM346 995q0 -63 33 -103t84 -40q66 0 117 63q37 45 63.5 123t26.5 138q-1 147 -99 147q-84 0 -154.5 -103.5t-70.5 -224.5z" />
<glyph unicode="&#xbb;" horiz-adv-x="829" d="M0 96q164 274 297 373q-80 146 -139 365h86q80 -225 215 -365q-207 -174 -355 -373h-104zM313 96q162 270 297 373q-82 158 -139 365h86q80 -225 215 -365q-207 -176 -352 -373h-107z" />
<glyph unicode="&#xbc;" horiz-adv-x="1718" d="M252 547v39h27q51 0 67 25.5t41 140.5l78 366q16 78 16 84q0 10 -8 10q-23 0 -123 -53l-22 39l315 174q-8 -31 -22 -94q-12 -49 -25 -111l-90 -424q-23 -106 -23 -127q0 -31 54 -30h28v-39h-313zM438 4l887 1389l53 -37l-886 -1387zM1038 326l475 487h82l-104 -494h145 l-18 -83h-143l-50 -236h-118l49 236h-316zM1112 319h262l74 347z" />
<glyph unicode="&#xbd;" horiz-adv-x="1718" d="M252 547v39h27q51 0 67 25.5t41 140.5l78 366q16 78 16 84q0 10 -8 10q-23 0 -123 -53l-22 39l315 174q-8 -31 -22 -94q-12 -49 -25 -111l-90 -424q-23 -106 -23 -127q0 -31 54 -30h28v-39h-313zM438 4l887 1389l53 -37l-886 -1387zM1006 59l145 123q168 141 260 244 q70 76 70 156q0 61 -42 100t-110 39q-143 0 -170 -143h-47q12 109 82 169t182 60q104 0 171 -58.5t67 -148.5q0 -78 -52.5 -146.5t-191.5 -177.5l-207 -159q84 6 123 6h164q49 0 68 20h45l-66 -143h-489z" />
<glyph unicode="&#xbe;" horiz-adv-x="1718" d="M150 645l34 33q86 -78 166 -78q82 0 140.5 63.5t58.5 151.5q0 96 -74 139q-41 23 -123 29l238 250h-236q-51 0 -61 -23h-53l84 131h436l-297 -309q18 2 47 2q72 0 122 -59.5t50 -143.5q0 -119 -90 -207.5t-211 -88.5t-231 110zM438 4l887 1389l53 -37l-886 -1387z M1038 326l475 487h82l-104 -494h143l-16 -83h-143l-50 -236h-118l49 236h-316zM1112 319h262l74 347z" />
<glyph unicode="&#xbf;" horiz-adv-x="884" d="M-51 -205q0 174 174 316l110 90q142 116 216 309l51 -16q-61 -152 -90 -207q-33 -61 -88 -127l-80 -94q-104 -123 -105 -256q0 -102 65.5 -177t155.5 -75q121 0 121 161v23q-2 20 -2 39q0 113 101 113q86 0 86 -80q0 -125 -112 -221.5t-257 -96.5q-156 0 -251 83t-95 216 zM453 780q0 47 38 84t87 37q41 0 68.5 -27.5t27.5 -68.5q0 -49 -37 -86t-86 -37q-43 0 -70.5 27.5t-27.5 70.5z" />
<glyph unicode="&#xc0;" horiz-adv-x="1263" d="M-78 0v45q57 6 86 33q16 16 66 90l116 178l672 1071h35l135 -1055q33 -254 58 -288q18 -27 106 -29v-45h-451v45h25q76 0 88 27q6 12 6 39q0 41 -6 90l-33 266h-471l-180 -293q-39 -63 -39 -90q0 -37 105 -39v-45h-318zM397 535h420l-67 575zM602 1761q0 20 20.5 38 t47.5 18q31 0 92 -70l203 -227h-80l-230 163q-53 39 -53 78z" />
<glyph unicode="&#xc1;" horiz-adv-x="1263" d="M-78 0v45q57 6 86 33q16 16 66 90l116 178l672 1071h35l135 -1055q33 -254 58 -288q18 -27 106 -29v-45h-451v45h25q76 0 88 27q6 12 6 39q0 41 -6 90l-33 266h-471l-180 -293q-39 -63 -39 -90q0 -37 105 -39v-45h-318zM397 535h420l-67 575zM852 1520l272 223 q84 70 121 69q55 0 55 -49q0 -45 -75 -86l-289 -157h-84z" />
<glyph unicode="&#xc2;" horiz-adv-x="1263" d="M-78 0v45q57 6 86 33q16 16 66 90l116 178l672 1071h35l135 -1055q33 -254 58 -288q18 -27 106 -29v-45h-451v45h25q76 0 88 27q6 12 6 39q0 41 -6 90l-33 266h-471l-180 -293q-39 -63 -39 -90q0 -37 105 -39v-45h-318zM397 535h420l-67 575zM618 1520l302 292h90 l176 -292h-74l-158 178l-258 -178h-78z" />
<glyph unicode="&#xc3;" horiz-adv-x="1263" d="M-78 0v45q57 6 86 33q16 16 66 90l116 178l672 1071h35l135 -1055q33 -254 58 -288q18 -27 106 -29v-45h-451v45h25q76 0 88 27q6 12 6 39q0 41 -6 90l-33 266h-471l-180 -293q-39 -63 -39 -90q0 -37 105 -39v-45h-318zM397 535h420l-67 575zM651 1565q43 176 178 176 q39 0 97 -23l84 -32q57 -23 86 -23q59 0 106 78h47q-41 -176 -172 -176q-35 0 -106 26l-82 31q-59 23 -84 23q-55 0 -103 -80h-51z" />
<glyph unicode="&#xc4;" horiz-adv-x="1263" d="M-78 0v45q57 6 86 33q16 16 66 90l116 178l672 1071h35l135 -1055q33 -254 58 -288q18 -27 106 -29v-45h-451v45h25q76 0 88 27q6 12 6 39q0 41 -6 90l-33 266h-471l-180 -293q-39 -63 -39 -90q0 -37 105 -39v-45h-318zM397 535h420l-67 575zM657 1632q0 45 33 81t74 36 q35 0 58.5 -26.5t23.5 -65.5q0 -45 -33 -81t-74 -36q-35 0 -58.5 26.5t-23.5 65.5zM1006 1632q0 45 32.5 81t73.5 36q35 0 58.5 -26.5t23.5 -65.5q0 -47 -32 -82t-75 -35q-35 0 -58 26.5t-23 65.5z" />
<glyph unicode="&#xc5;" horiz-adv-x="1263" d="M-78 0v45q57 6 86 33q16 16 66 90l116 178l672 1071h35l135 -1055q33 -254 58 -288q18 -27 106 -29v-45h-451v45h25q76 0 88 27q6 12 6 39q0 41 -6 90l-33 266h-471l-180 -293q-39 -63 -39 -90q0 -37 105 -39v-45h-318zM397 535h420l-67 575zM733 1653q0 74 52 127 t128 53t128.5 -53.5t52.5 -128.5q0 -72 -53.5 -125t-127.5 -53q-76 0 -128 52t-52 128zM811 1653q0 -41 30.5 -72t71.5 -31t72 31t31 72t-31 71.5t-72 30.5t-71.5 -30.5t-30.5 -71.5z" />
<glyph unicode="&#xc6;" horiz-adv-x="1808" d="M-76 0v43q59 18 94 52t142 175l606 809q125 166 125 199t-60 41q-43 2 -83 4l2 43h1054l-41 -313h-43v18q0 143 -52 185t-230 42h-232l-116 -555h184q150 0 188.5 24t69.5 130h43l-84 -399h-45q8 66 8 100q0 55 -26.5 66.5t-157.5 11.5h-195l-129 -608h221 q231 0 330.5 56t157.5 218h51l-86 -342h-995v43q88 8 106 45q29 57 70 254l26 125h-419l-187 -246q-90 -119 -90 -141q0 -35 109 -37v-43h-316zM457 535h385l153 725z" />
<glyph unicode="&#xc7;" horiz-adv-x="1271" d="M115 498q0 197 84 382t229 312q223 195 469 194q98 0 240 -43q109 -33 141 -32q20 0 57 14l-90 -426h-43q2 23 2 55q0 174 -77.5 269.5t-221.5 95.5q-225 0 -401 -237.5t-176 -544.5q0 -199 107.5 -327t273.5 -128q252 0 417 254l43 -12q-80 -137 -161 -207 q-160 -137 -357 -137h-26l-58 -97q20 4 45 4q59 0 96 -34.5t37 -90.5q0 -70 -58 -112.5t-155 -42.5q-86 0 -176 41l23 55q70 -31 131 -31q109 0 108 78q0 72 -83 72q-10 0 -46 -6l-18 16l88 150q-444 70 -444 516z" />
<glyph unicode="&#xc8;" horiz-adv-x="1232" d="M47 43q84 4 106.5 42t69.5 257l154 717q37 172 37 207q0 49 -97 55l-30 2v43h940l-41 -313h-43v18q0 147 -50.5 187t-230.5 40h-231l-119 -555h186q147 0 188.5 24t67.5 130h45l-86 -399h-43q8 80 9 100q0 55 -28 66.5t-157 11.5h-196l-129 -608h221q231 0 332.5 56 t156.5 218h49l-84 -342h-995zM580 1761q0 20 20.5 38t46.5 18q31 0 92 -70l203 -227h-80l-229 163q-53 39 -53 78z" />
<glyph unicode="&#xc9;" horiz-adv-x="1232" d="M47 43q84 4 106.5 42t69.5 257l154 717q37 172 37 207q0 49 -97 55l-30 2v43h940l-41 -313h-43v18q0 147 -50.5 187t-230.5 40h-231l-119 -555h186q147 0 188.5 24t67.5 130h45l-86 -399h-43q8 80 9 100q0 55 -28 66.5t-157 11.5h-196l-129 -608h221q231 0 332.5 56 t156.5 218h49l-84 -342h-995zM809 1520l272 223q84 70 121 69q55 0 55 -49q0 -45 -75 -86l-289 -157h-84z" />
<glyph unicode="&#xca;" horiz-adv-x="1232" d="M47 43q84 4 106.5 42t69.5 257l154 717q37 172 37 207q0 49 -97 55l-30 2v43h940l-41 -313h-43v18q0 147 -50.5 187t-230.5 40h-231l-119 -555h186q147 0 188.5 24t67.5 130h45l-86 -399h-43q8 80 9 100q0 55 -28 66.5t-157 11.5h-196l-129 -608h221q231 0 332.5 56 t156.5 218h49l-84 -342h-995zM575 1520l302 292h90l176 -292h-74l-158 178l-258 -178h-78z" />
<glyph unicode="&#xcb;" horiz-adv-x="1232" d="M47 43q84 4 106.5 42t69.5 257l154 717q37 172 37 207q0 49 -97 55l-30 2v43h940l-41 -313h-43v18q0 147 -50.5 187t-230.5 40h-231l-119 -555h186q147 0 188.5 24t67.5 130h45l-86 -399h-43q8 80 9 100q0 55 -28 66.5t-157 11.5h-196l-129 -608h221q231 0 332.5 56 t156.5 218h49l-84 -342h-995zM616 1632q0 45 33 81t74 36q35 0 58.5 -26.5t23.5 -65.5q0 -45 -33 -81t-74 -36q-35 0 -58.5 26.5t-23.5 65.5zM965 1632q0 45 32.5 81t73.5 36q35 0 58.5 -26.5t23.5 -65.5q0 -47 -31.5 -82t-74.5 -35q-35 0 -58.5 26.5t-23.5 65.5z" />
<glyph unicode="&#xcc;" horiz-adv-x="694" d="M41 0v45q88 4 112.5 43t69.5 254l152 719q35 166 35 203q0 49 -97 55l-30 2v45h469v-45q-88 -4 -112 -45t-69 -252l-153 -719q-35 -164 -35 -205q0 -39 47 -49q10 -2 80 -6l2 -45h-471zM283 1761q0 20 20.5 38t46.5 18q31 0 92 -70l203 -227h-80l-229 163q-53 39 -53 78z " />
<glyph unicode="&#xcd;" horiz-adv-x="694" d="M41 0v45q88 4 112.5 43t69.5 254l152 719q35 166 35 203q0 49 -97 55l-30 2v45h469v-45q-88 -4 -112 -45t-69 -252l-153 -719q-35 -164 -35 -205q0 -39 47 -49q10 -2 80 -6l2 -45h-471zM528 1520l273 223q84 70 121 69q55 0 55 -49q0 -45 -76 -86l-289 -157h-84z" />
<glyph unicode="&#xce;" horiz-adv-x="694" d="M41 0v45q88 4 112.5 43t69.5 254l152 719q35 166 35 203q0 41 -48 51q-7 2 -79 6v45h469v-45q-88 -6 -111 -43q-25 -43 -70 -254l-153 -719q-35 -164 -35 -205q0 -39 47 -49q10 -2 80 -6l2 -45h-471zM279 1520l301 292h90l176 -292h-74l-158 178l-258 -178h-77z" />
<glyph unicode="&#xcf;" horiz-adv-x="694" d="M41 0v45q88 4 112.5 43t69.5 254l152 719q35 166 35 203q0 49 -97 55l-30 2v45h469v-45q-88 -4 -112 -45t-69 -252l-153 -719q-35 -164 -35 -205q0 -39 47 -49q10 -2 80 -6l2 -45h-471zM358 1632q0 45 33 81t74 36q35 0 58.5 -26.5t23.5 -65.5q0 -45 -33 -81t-74 -36 q-35 0 -58.5 26.5t-23.5 65.5zM668 1632q0 45 32.5 81t73.5 36q35 0 58.5 -26.5t23.5 -65.5q0 -47 -31.5 -82t-74.5 -35q-35 0 -58.5 26.5t-23.5 65.5z" />
<glyph unicode="&#xd0;" horiz-adv-x="1486" d="M59 0v45q82 4 99 43q23 51 65 254l68 322h-135v75h151l68 320q35 164 35 205q0 49 -97 55l-30 2v45h573q281 0 412 -82q197 -123 196 -420q0 -354 -241 -606q-248 -258 -688 -258h-476zM391 121q0 -39 32 -53.5t118 -14.5q307 0 491 209q213 242 213 584q0 465 -467 465 q-55 0 -147 -8l-121 -564h334v-75h-348l-64 -291q-41 -188 -41 -252z" />
<glyph unicode="&#xd1;" horiz-adv-x="1460" d="M61 0v45q82 6 99 43q23 51 65 254l191 901q-41 53 -56.5 64.5t-54.5 13.5v45h281l528 -1059l160 754q35 164 35 205q0 31 -24.5 42t-102.5 13v45h336v-45q-80 -2 -101.5 -45t-66.5 -252l-226 -1059h-47l-598 1190l-180 -850q-35 -164 -35 -205q0 -39 47 -49q10 -2 80 -6 v-45h-330zM725 1565q43 176 178 176q39 0 96 -23l84 -32q57 -23 86 -23q60 0 107 78h47q-41 -176 -172 -176q-35 0 -107 26l-81 31q-59 23 -84 23q-55 0 -103 -80h-51z" />
<glyph unicode="&#xd2;" horiz-adv-x="1509" d="M119 506q0 352 245.5 616t573.5 264q250 0 398.5 -151.5t148.5 -405.5q0 -184 -86 -368.5t-228 -302.5q-211 -178 -487 -178q-254 0 -409.5 144t-155.5 382zM332 504q0 -197 105.5 -316.5t277.5 -119.5q227 0 387 235q78 113 125 271.5t47 304.5q0 205 -91 322.5 t-249 117.5q-233 0 -417.5 -250t-184.5 -565zM692 1761q0 20 20.5 38t47.5 18q31 0 92 -70l203 -227h-80l-230 163q-53 39 -53 78z" />
<glyph unicode="&#xd3;" horiz-adv-x="1509" d="M119 506q0 352 245.5 616t573.5 264q250 0 398.5 -151.5t148.5 -405.5q0 -184 -86 -368.5t-228 -302.5q-211 -178 -487 -178q-254 0 -409.5 144t-155.5 382zM332 504q0 -197 105.5 -316.5t277.5 -119.5q227 0 387 235q78 113 125 271.5t47 304.5q0 205 -91 322.5 t-249 117.5q-233 0 -417.5 -250t-184.5 -565zM915 1520l273 223q84 70 121 69q55 0 55 -49q0 -45 -76 -86l-289 -157h-84z" />
<glyph unicode="&#xd4;" horiz-adv-x="1509" d="M119 506q0 352 245.5 616t573.5 264q250 0 398.5 -151.5t148.5 -405.5q0 -184 -86 -368.5t-228 -302.5q-211 -178 -487 -178q-254 0 -409.5 144t-155.5 382zM332 504q0 -197 105.5 -316.5t277.5 -119.5q227 0 387 235q78 113 125 271.5t47 304.5q0 205 -91 322.5 t-249 117.5q-233 0 -417.5 -250t-184.5 -565zM715 1520l301 292h90l176 -292h-74l-157 178l-258 -178h-78z" />
<glyph unicode="&#xd5;" horiz-adv-x="1509" d="M119 506q0 352 245.5 616t573.5 264q250 0 398.5 -151.5t148.5 -405.5q0 -184 -86 -368.5t-228 -302.5q-211 -178 -487 -178q-254 0 -409.5 144t-155.5 382zM332 504q0 -197 105.5 -316.5t277.5 -119.5q227 0 387 235q78 113 125 271.5t47 304.5q0 205 -91 322.5 t-249 117.5q-233 0 -417.5 -250t-184.5 -565zM741 1565q43 176 179 176q39 0 96 -23l84 -32q57 -23 86 -23q59 0 106 78h47q-41 -176 -172 -176q-35 0 -106 26l-82 31q-59 23 -84 23q-55 0 -102 -80h-52z" />
<glyph unicode="&#xd6;" horiz-adv-x="1509" d="M119 506q0 352 245.5 616t573.5 264q250 0 398.5 -151.5t148.5 -405.5q0 -184 -86 -368.5t-228 -302.5q-211 -178 -487 -178q-254 0 -409.5 144t-155.5 382zM332 504q0 -197 105.5 -316.5t277.5 -119.5q227 0 387 235q78 113 125 271.5t47 304.5q0 205 -91 322.5 t-249 117.5q-233 0 -417.5 -250t-184.5 -565zM748 1632q0 45 32.5 81t73.5 36q35 0 58.5 -26.5t23.5 -65.5q0 -45 -33 -81t-74 -36q-35 0 -58 26.5t-23 65.5zM1096 1632q0 45 32.5 81t73.5 36q35 0 58.5 -26.5t23.5 -65.5q0 -47 -31.5 -82t-74.5 -35q-35 0 -58.5 26.5 t-23.5 65.5z" />
<glyph unicode="&#xd7;" d="M207 362l317 316l-317 317l78 78l317 -315l318 315l77 -78l-317 -317l317 -316l-77 -79l-318 317l-317 -317z" />
<glyph unicode="&#xd8;" horiz-adv-x="1509" d="M119 18l127 136q-127 145 -127 352q0 352 245.5 616t575.5 264q203 0 356 -116l123 129l64 -56l-125 -133q127 -145 127 -368q0 -195 -85 -379t-229 -305q-213 -178 -487 -178q-221 -1 -375 116l-127 -133zM332 500q0 -96 43 -221l825 897q-86 143 -268 143 q-231 0 -415.5 -251t-184.5 -568zM426 203q109 -135 289 -135q223 0 385 235q174 252 174 588q0 107 -33 203z" />
<glyph unicode="&#xd9;" horiz-adv-x="1429" d="M225 344q0 84 27 209l108 508q33 154 33 203q0 41 -47 51q-8 2 -80 6v45h516v-45q-129 -2 -155 -33q-16 -8 -66 -239l-100 -474q-33 -154 -33 -231q0 -119 85 -188.5t230 -69.5q168 0 269 109q76 82 137 370l104 496q33 156 33 205q0 47 -98 53q-4 2 -31 2v45h332v-45 q-82 -6 -98 -43q-18 -45 -64 -254l-104 -489q-41 -197 -79 -285t-106 -150q-135 -121 -358 -120q-211 0 -333 98t-122 266zM688 1761q0 20 20.5 38t47.5 18q31 0 92 -70l203 -227h-80l-230 163q-53 39 -53 78z" />
<glyph unicode="&#xda;" horiz-adv-x="1429" d="M225 344q0 84 27 209l108 508q33 154 33 203q0 41 -47 51q-8 2 -80 6v45h516v-45q-129 -2 -155 -33q-16 -8 -66 -239l-100 -474q-33 -154 -33 -231q0 -119 85 -188.5t230 -69.5q168 0 269 109q76 82 137 370l104 496q33 156 33 205q0 47 -98 53q-4 2 -31 2v45h332v-45 q-82 -6 -98 -43q-18 -45 -64 -254l-104 -489q-41 -197 -79 -285t-106 -150q-135 -121 -358 -120q-211 0 -333 98t-122 266zM928 1520l272 223q84 70 121 69q55 0 55 -49q0 -45 -76 -86l-288 -157h-84z" />
<glyph unicode="&#xdb;" horiz-adv-x="1429" d="M225 344q0 84 27 209l108 508q33 154 33 203q0 41 -47 51q-8 2 -80 6v45h516v-45q-129 -2 -155 -33q-16 -8 -66 -239l-100 -474q-33 -154 -33 -231q0 -119 85 -188.5t230 -69.5q168 0 269 109q76 82 137 370l104 496q33 156 33 205q0 47 -98 53q-4 2 -31 2v45h332v-45 q-82 -6 -98 -43q-18 -45 -64 -254l-104 -489q-41 -197 -79 -285t-106 -150q-135 -121 -358 -120q-211 0 -333 98t-122 266zM707 1520l301 292h90l176 -292h-74l-158 178l-258 -178h-77z" />
<glyph unicode="&#xdc;" horiz-adv-x="1429" d="M225 344q0 84 27 209l108 508q33 154 33 203q0 41 -47 51q-8 2 -80 6v45h516v-45q-129 -2 -155 -33q-16 -8 -66 -239l-100 -474q-33 -154 -33 -231q0 -119 85 -188.5t230 -69.5q168 0 269 109q76 82 137 370l104 496q33 156 33 205q0 47 -98 53q-4 2 -31 2v45h332v-45 q-82 -6 -98 -43q-18 -45 -64 -254l-104 -489q-41 -197 -79 -285t-106 -150q-135 -121 -358 -120q-211 0 -333 98t-122 266zM743 1632q0 45 33 81t74 36q35 0 58.5 -26.5t23.5 -65.5q0 -45 -33 -81t-74 -36q-35 0 -58.5 26.5t-23.5 65.5zM1092 1632q0 45 32.5 81t73.5 36 q35 0 58.5 -26.5t23.5 -65.5q0 -47 -31.5 -82t-74.5 -35q-35 0 -58.5 26.5t-23.5 65.5z" />
<glyph unicode="&#xdd;" horiz-adv-x="1183" d="M133 1321v45h494v-45q-47 -4 -101 -10q-29 -8 -28 -37q0 -20 30 -100l4 -15l173 -465l307 391q147 188 147 205q0 27 -59 29q-6 0 -47 2v45h354v-45q-78 -6 -118 -38t-161 -179l-399 -492l-63 -307q-35 -168 -35 -205q0 -39 47 -49q8 -2 80 -6v-45h-504v45q129 2 156 33 q18 20 63 239l62 295l-175 455q-31 82 -61 158q-23 55 -43 70.5t-84 21.5q-10 2 -39 4zM793 1520l272 223q84 70 121 69q55 0 55 -49q0 -45 -76 -86l-288 -157h-84z" />
<glyph unicode="&#xde;" horiz-adv-x="1144" d="M55 0v45q86 4 112 44t71 253l151 717q35 164 35 205q0 49 -96 55l-31 2v45h469v-45q-86 -2 -105.5 -26.5t-54.5 -174.5h125q229 0 316 -71q94 -78 94 -226q0 -125 -74 -239.5t-190 -169.5q-134 -64 -435 -66l-10 -43q-35 -145 -35 -205q0 -39 47 -49q10 -2 80 -6l2 -45 h-471zM453 399q231 6 323 74q66 49 110 156.5t44 220.5q0 215 -254 215q-8 0 -82 -4z" />
<glyph unicode="&#xdf;" horiz-adv-x="1003" d="M-186 -291q0 94 84 94q47 0 71 -51q6 -20 23 -20q20 0 39 75q16 66 114 525l113 526q70 328 182 459q125 145 301 145q119 0 187.5 -60.5t68.5 -162.5q0 -125 -100 -233.5t-281 -178.5q119 -6 181 -43q119 -72 118 -258q0 -201 -142 -377t-306 -176q-96 0 -141 47 q-20 20 -21 74q0 113 78 113q90 0 90 -57q0 -29 -8 -64v-12q0 -39 35 -39q45 0 98 41t88 104q66 117 66 275q-1 262 -265 307l17 65q119 20 215 127q117 131 117 275q0 72 -40 119t-104 47q-63 0 -106 -47q-55 -59 -121 -322l-139 -555q-143 -569 -242 -733 q-80 -133 -168 -133q-45 0 -73.5 29.5t-28.5 74.5z" />
<glyph unicode="&#xe0;" horiz-adv-x="980" d="M45 193q0 248 176 491.5t357 243.5q143 0 161 -162l47 162h140q-18 -57 -103 -342l-88 -301q-43 -147 -43 -174q0 -31 29 -31q45 0 141 127l31 -23q-156 -221 -264 -221q-80 0 -80 78q0 39 33 166l26 102q-119 -188 -206 -269t-173 -81q-84 0 -134 63.5t-50 170.5z M203 248q0 -68 31.5 -109t82.5 -41q94 0 222 178q172 242 172 429q0 172 -127 172q-158 0 -293 -291q-88 -190 -88 -338zM440 1366q0 53 60 53q43 0 86 -71l153 -256h-67l-180 190q-51 53 -52 84z" />
<glyph unicode="&#xe1;" horiz-adv-x="980" d="M45 193q0 248 176 491.5t357 243.5q143 0 161 -162l47 162h140q-18 -57 -103 -342l-88 -301q-43 -147 -43 -174q0 -31 29 -31q45 0 141 127l31 -23q-156 -221 -264 -221q-80 0 -80 78q0 39 33 166l26 102q-119 -188 -206 -269t-173 -81q-84 0 -134 63.5t-50 170.5z M203 248q0 -68 31.5 -109t82.5 -41q94 0 222 178q172 242 172 429q0 172 -127 172q-158 0 -293 -291q-88 -190 -88 -338zM633 1094l241 249q74 76 105 76q53 0 53 -55q0 -39 -78 -94l-245 -176h-76z" />
<glyph unicode="&#xe2;" horiz-adv-x="980" d="M45 193q0 248 176 491.5t357 243.5q143 0 161 -162l47 162h140q-18 -57 -103 -342l-88 -301q-43 -147 -43 -174q0 -31 29 -31q45 0 141 127l31 -23q-156 -221 -264 -221q-80 0 -80 78q0 39 33 166l26 102q-119 -188 -206 -269t-173 -81q-84 0 -134 63.5t-50 170.5z M203 248q0 -68 31.5 -109t82.5 -41q94 0 222 178q172 242 172 429q0 172 -127 172q-158 0 -293 -291q-88 -190 -88 -338zM455 1096l280 321h78l139 -321h-65l-127 196l-238 -196h-67z" />
<glyph unicode="&#xe3;" horiz-adv-x="980" d="M45 193q0 248 176 491.5t357 243.5q143 0 161 -162l47 162h140q-18 -57 -103 -342l-88 -301q-43 -147 -43 -174q0 -31 29 -31q45 0 141 127l31 -23q-156 -221 -264 -221q-80 0 -80 78q0 39 33 166l26 102q-119 -188 -206 -269t-173 -81q-84 0 -134 63.5t-50 170.5z M203 248q0 -68 31.5 -109t82.5 -41q94 0 222 178q172 242 172 429q0 172 -127 172q-158 0 -293 -291q-88 -190 -88 -338zM457 1139q25 78 41 106q43 70 123 70q37 0 90 -23l63 -26q68 -29 84 -29q53 0 94 57q3 5 15 21h47q-49 -176 -172 -176q-35 0 -107 30l-61 27 q-57 25 -82 25q-37 0 -84 -82h-51z" />
<glyph unicode="&#xe4;" horiz-adv-x="980" d="M45 193q0 248 176 491.5t357 243.5q143 0 161 -162l47 162h140q-18 -57 -103 -342l-88 -301q-43 -147 -43 -174q0 -31 29 -31q45 0 141 127l31 -23q-156 -221 -264 -221q-80 0 -80 78q0 39 33 166l26 102q-119 -188 -206 -269t-173 -81q-84 0 -134 63.5t-50 170.5z M203 248q0 -68 31.5 -109t82.5 -41q94 0 222 178q172 242 172 429q0 172 -127 172q-158 0 -293 -291q-88 -190 -88 -338zM457 1225q0 45 32.5 80.5t73.5 35.5q35 0 58.5 -26.5t23.5 -65.5q0 -45 -32.5 -80.5t-73.5 -35.5q-35 0 -58.5 26.5t-23.5 65.5zM776 1225 q0 45 33 80.5t74 35.5q35 0 58.5 -26.5t23.5 -65.5q0 -47 -32 -81.5t-75 -34.5q-35 0 -58.5 26.5t-23.5 65.5z" />
<glyph unicode="&#xe5;" horiz-adv-x="980" d="M45 193q0 248 176 491.5t357 243.5q143 0 161 -162l47 162h140q-18 -57 -103 -342l-88 -301q-43 -147 -43 -174q0 -31 29 -31q45 0 141 127l31 -23q-156 -221 -264 -221q-80 0 -80 78q0 39 33 166l26 102q-119 -188 -206 -269t-173 -81q-84 0 -134 63.5t-50 170.5z M203 248q0 -68 31.5 -109t82.5 -41q94 0 222 178q172 242 172 429q0 172 -127 172q-158 0 -293 -291q-88 -190 -88 -338zM514 1257q0 74 52 127.5t128 53.5t128 -53.5t52 -129.5q0 -72 -53 -125t-127 -53q-76 0 -128 52.5t-52 127.5zM592 1257q0 -41 30.5 -71.5t71.5 -30.5 t72 31t31 71q0 41 -31 72t-72 31t-71.5 -31t-30.5 -72z" />
<glyph unicode="&#xe6;" horiz-adv-x="1378" d="M25 152q0 164 163.5 259t466.5 105l35 105q27 80 27 129q0 111 -150 110q-104 0 -145 -47q-16 -18 -33 -104q-18 -98 -113 -99q-78 0 -77 74q0 96 114.5 170t261.5 74q213 0 277 -164q184 164 330 164q80 0 130 -48.5t50 -123.5q0 -178 -244 -291q-152 -70 -356 -76 q-16 -66 -17 -110q0 -86 59.5 -144.5t147.5 -58.5q143 0 301 170l35 -21q-199 -266 -426 -266q-221 0 -252 238q-207 -238 -381 -238q-92 0 -148 52t-56 141zM190 197q0 -49 33 -82t82 -33q139 0 299 192q0 93 39 195q-201 -27 -327 -102.5t-126 -169.5zM770 430q20 4 21 4 q190 31 313 123t123 203q0 96 -82 96q-109 0 -240 -162q-72 -90 -135 -264z" />
<glyph unicode="&#xe7;" horiz-adv-x="833" d="M57 291q0 236 184.5 436.5t401.5 200.5q100 0 158.5 -46t58.5 -124q0 -125 -90 -125q-104 0 -104 53q0 16 20 78q12 37 12 59q0 57 -71 58q-141 0 -269.5 -177.5t-128.5 -375.5q0 -111 56.5 -179.5t148.5 -68.5q145 0 277 174l32 -21q-174 -274 -389 -274h-18l-43 -76 q31 6 45 6q59 0 96 -34.5t37 -92.5q0 -70 -58.5 -112.5t-154.5 -42.5q-82 0 -176 43l22 53q70 -31 132 -31q109 0 108 78q0 72 -84 72q-10 0 -45 -6l-18 16l79 137q-100 35 -147 94q-72 90 -72 228z" />
<glyph unicode="&#xe8;" horiz-adv-x="860" d="M51 270q0 297 279 525q162 133 327 133q92 0 146.5 -47t54.5 -129q0 -88 -71.5 -169t-192.5 -128q-154 -61 -371 -70q-6 -45 -6 -68q0 -104 57.5 -167.5t151.5 -63.5q150 0 297 190l41 -20q-180 -297 -424 -297q-131 0 -210 85t-79 226zM229 422q160 29 254.5 72 t155.5 121.5t61 158.5q0 98 -77 98q-102 0 -236 -157q-101 -119 -158 -293zM414 1366q0 53 59 53q43 0 86 -71l154 -256h-68l-180 190q-51 53 -51 84z" />
<glyph unicode="&#xe9;" horiz-adv-x="860" d="M51 270q0 297 279 525q162 133 327 133q92 0 146.5 -47t54.5 -129q0 -88 -71.5 -169t-192.5 -128q-154 -61 -371 -70q-6 -45 -6 -68q0 -104 57.5 -167.5t151.5 -63.5q150 0 297 190l41 -20q-180 -297 -424 -297q-131 0 -210 85t-79 226zM229 422q160 29 254.5 72 t155.5 121.5t61 158.5q0 98 -77 98q-102 0 -236 -157q-101 -119 -158 -293zM594 1094l242 249q74 76 104 76q53 0 53 -55q0 -39 -78 -94l-245 -176h-76z" />
<glyph unicode="&#xea;" horiz-adv-x="860" d="M51 270q0 297 279 525q162 133 327 133q92 0 146.5 -47t54.5 -129q0 -88 -71.5 -169t-192.5 -128q-154 -61 -371 -70q-6 -45 -6 -68q0 -104 57.5 -167.5t151.5 -63.5q150 0 297 190l41 -20q-180 -297 -424 -297q-131 0 -210 85t-79 226zM229 422q160 29 254.5 72 t155.5 121.5t61 158.5q0 98 -77 98q-102 0 -236 -157q-101 -119 -158 -293zM401 1096l281 321h78l139 -321h-65l-127 196l-238 -196h-68z" />
<glyph unicode="&#xeb;" horiz-adv-x="860" d="M51 270q0 297 279 525q162 133 327 133q92 0 146.5 -47t54.5 -129q0 -88 -71.5 -169t-192.5 -128q-154 -61 -371 -70q-6 -45 -6 -68q0 -104 57.5 -167.5t151.5 -63.5q150 0 297 190l41 -20q-180 -297 -424 -297q-131 0 -210 85t-79 226zM229 422q160 29 254.5 72 t155.5 121.5t61 158.5q0 98 -77 98q-102 0 -236 -157q-101 -119 -158 -293zM444 1225q0 45 33 80.5t74 35.5q35 0 58.5 -26.5t23.5 -65.5q0 -45 -33 -80.5t-74 -35.5q-35 0 -58.5 26.5t-23.5 65.5zM764 1225q0 45 32.5 80.5t73.5 35.5q35 0 58.5 -26.5t23.5 -65.5 q0 -47 -31.5 -81.5t-74.5 -34.5q-35 0 -58.5 26.5t-23.5 65.5z" />
<glyph unicode="&#xec;" horiz-adv-x="534" d="M111 72q0 37 24 149l90 416q8 41 17.5 85t9.5 56q0 31 -57 31h-64v37l313 102q-41 -156 -65 -276l-60 -285q-41 -197 -40 -227q0 -41 28 -41q47 0 135 125l35 -23q-152 -248 -270 -248q-96 0 -96 99zM164 1366q0 53 59 53q27 0 39 -11t39 -60l139 -256h-65l-168 190 q-27 31 -33 45t-10 39z" />
<glyph unicode="&#xed;" horiz-adv-x="534" d="M111 72q0 37 24 149l109 500q8 45 8 57q0 31 -59 31h-62v37l313 102q-33 -117 -65 -276l-60 -285q-41 -197 -40 -227q0 -41 26 -41q49 0 137 125l35 -23q-150 -248 -270 -248q-96 0 -96 99zM330 1094l215 249q66 76 98 76q53 0 53 -55q0 -35 -73 -94l-217 -176h-76z" />
<glyph unicode="&#xee;" horiz-adv-x="534" d="M111 72q0 37 24 149l109 500q8 41 8 57q0 31 -59 31h-62v37l313 102q-41 -160 -65 -276l-60 -285q-41 -197 -40 -227q0 -41 26 -41q51 0 137 125l35 -23q-152 -248 -270 -248q-96 0 -96 99zM117 1096l280 321h78l139 -321h-65l-127 196l-238 -196h-67z" />
<glyph unicode="&#xef;" horiz-adv-x="534" d="M111 72q0 37 24 149l109 500q8 41 8 57q0 31 -59 31h-62v37l313 102q-41 -160 -65 -276l-60 -285q-41 -197 -40 -227q0 -41 26 -41q51 0 137 125l35 -23q-152 -248 -270 -248q-96 0 -96 99zM170 1225q0 45 32.5 80.5t73.5 35.5q35 0 58.5 -26.5t23.5 -65.5 q0 -45 -32.5 -80.5t-73.5 -35.5q-35 0 -58.5 26.5t-23.5 65.5zM463 1225q0 45 32.5 80.5t73.5 35.5q35 0 58.5 -26.5t23.5 -65.5q0 -47 -31.5 -81.5t-74.5 -34.5q-35 0 -58.5 26.5t-23.5 65.5z" />
<glyph unicode="&#xf0;" horiz-adv-x="1003" d="M59 313q0 219 177.5 417t371.5 198q102 0 164 -78q-14 182 -135 362l-160 -79l-43 59l164 86q-33 39 -109 117l76 55l39 -35l88 -92l158 82l47 -57l-160 -84q215 -291 215 -619q0 -274 -167 -480t-388 -206q-152 0 -245 98.5t-93 255.5zM233 289q0 -113 55.5 -183.5 t143.5 -70.5q109 0 197 115q59 78 102 213t43 243q0 121 -45 190.5t-123 69.5q-139 0 -256 -180t-117 -397z" />
<glyph unicode="&#xf1;" horiz-adv-x="1089" d="M80 0l127 547q47 203 47 233q0 35 -72 35q-27 0 -43 -2v37l314 98l-103 -434q190 225 303 313t211 88q106 0 107 -98q0 -41 -39 -174l-109 -373q-25 -84 -24 -112q0 -41 35 -41q51 0 153 129l29 -29q-170 -244 -289 -244q-39 0 -66.5 28t-27.5 67q0 49 33 161l108 375 q33 113 33 135q0 43 -43 43q-66 0 -186.5 -97t-243.5 -247l-92 -438h-162zM455 1139q25 78 41 106q43 70 122 70q37 0 91 -23l63 -26q68 -29 84 -29q53 0 94 57q3 5 15 21h47q-49 -176 -172 -176q-35 0 -107 30l-61 27q-57 25 -82 25q-37 0 -84 -82h-51z" />
<glyph unicode="&#xf2;" horiz-adv-x="1003" d="M59 313q0 227 179.5 421t390.5 194q145 0 232 -93.5t87 -250.5q0 -123 -67.5 -265.5t-167.5 -230.5q-145 -129 -316 -129q-152 0 -245 98.5t-93 255.5zM233 289q0 -113 55.5 -183.5t143.5 -70.5q109 0 197 115q59 78 102 213t43 243q0 121 -45 190.5t-123 69.5 q-139 0 -256 -180t-117 -397zM403 1366q0 53 60 53q43 0 86 -71l153 -256h-67l-180 190q-51 53 -52 84z" />
<glyph unicode="&#xf3;" horiz-adv-x="1003" d="M59 313q0 227 179.5 421t390.5 194q145 0 232 -93.5t87 -250.5q0 -123 -67.5 -265.5t-167.5 -230.5q-145 -129 -316 -129q-152 0 -245 98.5t-93 255.5zM233 289q0 -113 55.5 -183.5t143.5 -70.5q109 0 197 115q59 78 102 213t43 243q0 121 -45 190.5t-123 69.5 q-139 0 -256 -180t-117 -397zM618 1094l242 249q74 76 105 76q53 0 53 -55q0 -39 -78 -94l-246 -176h-76z" />
<glyph unicode="&#xf4;" horiz-adv-x="1003" d="M59 313q0 227 179.5 421t390.5 194q145 0 232 -93.5t87 -250.5q0 -123 -67.5 -265.5t-167.5 -230.5q-145 -129 -316 -129q-152 0 -245 98.5t-93 255.5zM233 289q0 -113 55.5 -183.5t143.5 -70.5q109 0 197 115q59 78 102 213t43 243q0 121 -45 190.5t-123 69.5 q-139 0 -256 -180t-117 -397zM412 1096l280 321h78l139 -321h-65l-127 196l-238 -196h-67z" />
<glyph unicode="&#xf5;" horiz-adv-x="1003" d="M59 313q0 227 179.5 421t390.5 194q145 0 232 -93.5t87 -250.5q0 -123 -67.5 -265.5t-167.5 -230.5q-145 -129 -316 -129q-152 0 -245 98.5t-93 255.5zM233 289q0 -113 55.5 -183.5t143.5 -70.5q109 0 197 115q59 78 102 213t43 243q0 121 -45 190.5t-123 69.5 q-139 0 -256 -180t-117 -397zM426 1139q25 78 41 106q43 70 123 70q37 0 90 -23l63 -26q68 -29 84 -29q53 0 95 57q2 5 14 21h47q-49 -176 -172 -176q-35 0 -106 30l-62 27q-57 25 -82 25q-37 0 -84 -82h-51z" />
<glyph unicode="&#xf6;" horiz-adv-x="1003" d="M59 313q0 227 179.5 421t390.5 194q145 0 232 -93.5t87 -250.5q0 -123 -67.5 -265.5t-167.5 -230.5q-145 -129 -316 -129q-152 0 -245 98.5t-93 255.5zM233 289q0 -113 55.5 -183.5t143.5 -70.5q109 0 197 115q59 78 102 213t43 243q0 121 -45 190.5t-123 69.5 q-139 0 -256 -180t-117 -397zM434 1225q0 45 33 80.5t74 35.5q35 0 58.5 -26.5t23.5 -65.5q0 -45 -33 -80.5t-74 -35.5q-35 0 -58.5 26.5t-23.5 65.5zM754 1225q0 45 32.5 80.5t73.5 35.5q35 0 58.5 -26.5t23.5 -65.5q0 -47 -31.5 -81.5t-74.5 -34.5q-35 0 -58.5 26.5 t-23.5 65.5z" />
<glyph unicode="&#xf7;" d="M158 625v110h886v-110h-886zM514 299q0 37 26.5 62.5t61.5 25.5t61.5 -26.5t26.5 -61.5t-25.5 -61.5t-62.5 -26.5q-35 0 -61.5 26.5t-26.5 61.5zM514 1057q0 37 25.5 62.5t62.5 25.5q35 0 61.5 -26.5t26.5 -61.5t-26.5 -61.5t-61.5 -26.5q-37 0 -62.5 25.5t-25.5 62.5z " />
<glyph unicode="&#xf8;" horiz-adv-x="1003" d="M-12 18l110 113q-39 88 -39 182q0 227 180.5 421t391.5 194q115 0 200 -68l115 113l53 -53l-112 -115q61 -94 61 -209q0 -131 -66.5 -273.5t-168.5 -234.5q-145 -129 -318 -129q-135 0 -250 102l-102 -98zM233 305q1 -32 3 -57l501 536q-39 82 -131 82q-150 0 -264 -192 q-109 -182 -109 -369zM258 160q18 -55 66.5 -90t107.5 -35q109 0 197 115q63 84 104 217t41 258q0 28 -8 77z" />
<glyph unicode="&#xf9;" horiz-adv-x="1075" d="M94 104q0 45 41 209l86 344q2 14 15 58q16 57 16 78q0 25 -47 24q-2 0 -64 -4v45l303 90l-133 -532q-47 -188 -47 -226q0 -80 70 -79q133 0 407 401l109 430h164l-119 -401q-96 -326 -96 -365t28 -39q55 0 142 123l35 -27q-63 -92 -115 -155q-86 -102 -166 -103 q-39 0 -63.5 30t-24.5 75q0 33 61 258q6 23 21 76q-264 -440 -473 -441q-68 0 -109 36t-41 95zM438 1366q0 53 60 53q43 0 86 -71l153 -256h-67l-181 190q-51 53 -51 84z" />
<glyph unicode="&#xfa;" horiz-adv-x="1075" d="M94 104q0 45 41 209l86 344q2 14 15 58q16 57 16 78q0 25 -47 24q-2 0 -64 -4v45l303 90l-133 -532q-47 -188 -47 -226q0 -80 70 -79q133 0 407 401l109 430h164l-119 -401q-96 -326 -96 -365t28 -39q55 0 142 123l35 -27q-63 -92 -115 -155q-86 -102 -166 -103 q-39 0 -63.5 30t-24.5 75q0 33 61 258q6 23 21 76q-264 -440 -473 -441q-68 0 -109 36t-41 95zM627 1094l241 249q74 76 105 76q53 0 53 -55q0 -39 -78 -94l-246 -176h-75z" />
<glyph unicode="&#xfb;" horiz-adv-x="1075" d="M94 104q0 45 41 209l86 344q2 14 15 58q16 57 16 78q0 25 -47 24q-2 0 -64 -4v45l303 90l-133 -532q-47 -188 -47 -226q0 -80 70 -79q133 0 407 401l109 430h164l-119 -401q-96 -326 -96 -365t28 -39q55 0 142 123l35 -27q-63 -92 -115 -155q-86 -102 -166 -103 q-39 0 -63.5 30t-24.5 75q0 33 61 258q6 23 21 76q-264 -440 -473 -441q-68 0 -109 36t-41 95zM434 1096l281 321h78l139 -321h-66l-127 196l-237 -196h-68z" />
<glyph unicode="&#xfc;" horiz-adv-x="1075" d="M94 104q0 45 41 209l86 344q2 14 15 58q16 57 16 78q0 25 -47 24q-2 0 -64 -4v45l303 90l-133 -532q-47 -188 -47 -226q0 -80 70 -79q133 0 407 401l109 430h164l-119 -401q-96 -326 -96 -365t28 -39q55 0 142 123l35 -27q-63 -92 -115 -155q-86 -102 -166 -103 q-39 0 -63.5 30t-24.5 75q0 33 61 258q6 23 21 76q-264 -440 -473 -441q-68 0 -109 36t-41 95zM457 1225q0 45 32.5 80.5t73.5 35.5q35 0 58.5 -26.5t23.5 -65.5q0 -45 -32.5 -80.5t-73.5 -35.5q-35 0 -58.5 26.5t-23.5 65.5zM776 1225q0 45 33 80.5t74 35.5 q35 0 58.5 -26.5t23.5 -65.5q0 -47 -32 -81.5t-75 -34.5q-35 0 -58.5 26.5t-23.5 65.5z" />
<glyph unicode="&#xfd;" horiz-adv-x="931" d="M41 -272q0 55 14.5 74.5t61.5 19.5q63 0 76 -51q8 -29 28 -29q29 0 95.5 69.5t132.5 168.5q-27 270 -144 595q-49 139 -72.5 181.5t-48.5 42.5q-23 0 -98 -23l-14 43l237 123q90 -129 170 -385t82 -418q88 150 155.5 321t67.5 249q0 35 -48 45t-48 71q0 59 17.5 82 t70.5 23q131 0 131 -107q0 -129 -126 -398t-296 -501q-158 -215 -256 -284q-49 -35 -106 -35q-45 0 -63.5 26.5t-18.5 96.5zM537 1094l241 249q74 76 105 76q53 0 53 -55q0 -39 -78 -94l-246 -176h-75z" />
<glyph unicode="&#xfe;" horiz-adv-x="980" d="M-86 -373q55 8 70 47q6 25 26 121q12 49 39 160l250 1182q20 96 20 139q0 33 -61 33q-39 0 -61 -2l-2 39l331 102q-29 -98 -63 -236l-107 -497q172 201 332 200q109 0 172.5 -68.5t63.5 -184.5q0 -121 -48.5 -258.5t-127.5 -243.5q-141 -186 -306 -187q-149 1 -204 179 l-82 -383q-14 -68 -15 -93q0 -27 22.5 -35t94.5 -12l2 -45h-344zM268 242q0 -84 44 -133.5t120 -49.5q131 0 227.5 186.5t96.5 362.5q0 88 -42 139.5t-114 51.5q-108 0 -258 -160l-63 -291q-10 -47 -11 -106z" />
<glyph unicode="&#xff;" horiz-adv-x="931" d="M41 -272q0 55 14.5 74.5t61.5 19.5q63 0 76 -51q8 -29 28 -29q29 0 95.5 69.5t132.5 168.5q-27 270 -144 595q-49 139 -72.5 181.5t-48.5 42.5q-23 0 -98 -23l-14 43l237 123q90 -129 170 -385t82 -418q88 150 155.5 321t67.5 249q0 35 -48 45t-48 71q0 59 17.5 82 t70.5 23q131 0 131 -107q0 -129 -126 -398t-296 -501q-158 -215 -256 -284q-49 -35 -106 -35q-45 0 -63.5 26.5t-18.5 96.5zM362 1225q0 45 33 80.5t74 35.5q35 0 58.5 -26.5t23.5 -65.5q0 -45 -33 -80.5t-74 -35.5q-35 0 -58.5 26.5t-23.5 65.5zM682 1225q0 45 32.5 80.5 t73.5 35.5q35 0 58.5 -26.5t23.5 -65.5q0 -47 -31.5 -81.5t-74.5 -34.5q-35 0 -58.5 26.5t-23.5 65.5z" />
<glyph unicode="&#x152;" horiz-adv-x="1945" d="M123 522q0 381 289 656q219 209 536 208q49 0 164 -12q76 -8 242 -8h585l-38 -313h-43v18q0 143 -52.5 185t-230.5 42h-232l-116 -555h184q150 0 188.5 24t69.5 130h43l-84 -399h-45q8 66 8 100q0 55 -26.5 66.5t-157.5 11.5h-195l-129 -608h222q231 0 330.5 56 t156.5 218h51l-86 -342h-762q-131 0 -264 -14q-57 -6 -104 -6q-236 0 -379 161q-125 141 -125 381zM330 549q0 -217 106.5 -352.5t276.5 -135.5q123 0 161 58q12 18 23 53q14 51 55 246l123 573q43 201 43 248q0 86 -172 86q-254 0 -435 -228.5t-181 -547.5z" />
<glyph unicode="&#x153;" horiz-adv-x="1445" d="M57 262q0 248 176.5 457t382.5 209q141 0 195 -107q29 -55 31 -159q201 266 405 266q88 0 139.5 -43t51.5 -115q0 -174 -213 -285q-141 -74 -402 -88q-10 -49 -10 -86q0 -106 56.5 -167.5t152.5 -61.5q153 0 311 178l27 -22q-111 -154 -204 -216.5t-204 -62.5 q-127 0 -196 80q-37 43 -54 131q-121 -211 -333 -211q-139 0 -225.5 83t-86.5 220zM221 231q0 -92 43 -146t117 -54q125 0 229 174q53 86 89 221t36 240q0 200 -141 200q-129 0 -251 -207.5t-122 -427.5zM831 438q117 25 170 41q291 94 291 305q0 88 -78 88 q-94 0 -205.5 -126t-177.5 -308z" />
<glyph unicode="&#x178;" horiz-adv-x="1183" d="M133 1321v45h494v-45q-47 -4 -101 -10q-29 -8 -28 -37q0 -20 30 -100l4 -15l173 -465l307 391q147 188 147 205q0 27 -59 29q-6 0 -47 2v45h354v-45q-78 -6 -118 -38t-161 -179l-399 -492l-63 -307q-35 -168 -35 -205q0 -39 47 -49q8 -2 80 -6v-45h-504v45q129 2 156 33 q18 20 63 239l62 295l-175 455q-31 82 -61 158q-23 55 -43 70.5t-84 21.5q-10 2 -39 4zM604 1632q0 45 33 81t74 36q35 0 58.5 -26.5t23.5 -65.5q0 -45 -33 -81t-74 -36q-35 0 -58.5 26.5t-23.5 65.5zM952 1632q0 45 33 81t74 36q35 0 58.5 -26.5t23.5 -65.5q0 -47 -32 -82 t-75 -35q-35 0 -58.5 26.5t-23.5 65.5z" />
<glyph unicode="&#x2c6;" horiz-adv-x="1024" d="M395 1096l281 321h78l139 -321h-66l-127 196l-237 -196h-68z" />
<glyph unicode="&#x2dc;" horiz-adv-x="1024" d="M397 1139q25 78 41 106q43 70 123 70q37 0 90 -23l64 -26q68 -29 84 -29q53 0 94 57q2 5 14 21h47q-49 -176 -172 -176q-35 0 -106 30l-62 27q-57 25 -82 25q-37 0 -83 -82h-52z" />
<glyph unicode="&#x2000;" horiz-adv-x="916" />
<glyph unicode="&#x2001;" horiz-adv-x="1833" />
<glyph unicode="&#x2002;" horiz-adv-x="916" />
<glyph unicode="&#x2003;" horiz-adv-x="1833" />
<glyph unicode="&#x2004;" horiz-adv-x="611" />
<glyph unicode="&#x2005;" horiz-adv-x="458" />
<glyph unicode="&#x2006;" horiz-adv-x="305" />
<glyph unicode="&#x2007;" horiz-adv-x="305" />
<glyph unicode="&#x2008;" horiz-adv-x="229" />
<glyph unicode="&#x2009;" horiz-adv-x="366" />
<glyph unicode="&#x200a;" horiz-adv-x="101" />
<glyph unicode="&#x2010;" horiz-adv-x="454" d="M18 395v137h426v-137h-426z" />
<glyph unicode="&#x2011;" horiz-adv-x="454" d="M18 395v137h426v-137h-426z" />
<glyph unicode="&#x2012;" horiz-adv-x="454" d="M18 395v137h426v-137h-426z" />
<glyph unicode="&#x2013;" d="M207 410v108h698v-108h-698z" />
<glyph unicode="&#x2014;" horiz-adv-x="1220" d="M14 410v108h1198v-108h-1198z" />
<glyph unicode="&#x2018;" horiz-adv-x="542" d="M274 1042q0 109 85.5 201t228.5 137l16 -30q-106 -45 -162.5 -104.5t-89.5 -166.5q39 41 74 41q74 0 74 -88q0 -53 -35 -90t-84 -37q-106 0 -107 137z" />
<glyph unicode="&#x2019;" horiz-adv-x="542" d="M233 936q106 45 162 104.5t88 165.5q-39 -41 -71 -41q-76 0 -76 88q0 51 36 89t83 38q109 0 108 -137q0 -111 -85 -202t-228 -136z" />
<glyph unicode="&#x201a;" horiz-adv-x="542" d="M-16 -240q106 45 160.5 104.5t88.5 166.5q-39 -41 -71 -41q-76 0 -76 88q0 51 36 89t83 38q109 0 108 -137q0 -109 -85 -201t-228 -137z" />
<glyph unicode="&#x201c;" horiz-adv-x="897" d="M274 1042q0 109 85.5 201t228.5 137l16 -30q-106 -45 -162.5 -104.5t-89.5 -166.5q39 41 74 41q74 0 74 -88q0 -53 -35 -90t-84 -37q-106 0 -107 137zM629 1042q0 109 86 201t229 137l14 -30q-106 -45 -160.5 -104.5t-88.5 -166.5q39 41 71 41q76 0 76 -88q0 -51 -36 -89 t-83 -38q-109 0 -108 137z" />
<glyph unicode="&#x201d;" horiz-adv-x="897" d="M233 936q106 45 162 104.5t88 165.5q-39 -41 -71 -41q-76 0 -76 88q0 51 36 89t83 38q109 0 108 -137q0 -111 -85 -202t-228 -136zM588 936q106 45 162.5 104.5t89.5 165.5q-39 -41 -74 -41q-74 0 -74 88q0 53 35 90t84 37q106 0 107 -137q0 -111 -85.5 -203t-228.5 -135 z" />
<glyph unicode="&#x201e;" horiz-adv-x="897" d="M-16 -240q106 45 160.5 104.5t88.5 166.5q-39 -41 -71 -41q-76 0 -76 88q0 51 36 89t83 38q109 0 108 -137q0 -109 -85 -201t-228 -137zM338 -240q106 45 162.5 104.5t89.5 166.5q-39 -41 -74 -41q-74 0 -74 88q0 53 35 90t84 37q106 0 107 -137q0 -109 -85.5 -201 t-228.5 -137z" />
<glyph unicode="&#x2022;" horiz-adv-x="1366" d="M401 692q0 119 84 202t205 83q113 0 196 -84t83 -199q0 -119 -83 -201.5t-200 -82.5t-201 82.5t-84 199.5z" />
<glyph unicode="&#x2026;" horiz-adv-x="1474" d="M61 82q0 49 37 86t86 37q41 0 69 -27.5t28 -68.5q0 -49 -37 -86t-86 -37q-41 0 -69 27.5t-28 68.5zM553 82q0 49 37 86t86 37q41 0 68.5 -27.5t27.5 -68.5q0 -49 -37 -86t-86 -37q-41 0 -68.5 27.5t-27.5 68.5zM1044 82q0 49 37 86t86 37q41 0 69 -27.5t28 -68.5 q0 -49 -37 -86t-86 -37q-41 0 -69 27.5t-28 68.5z" />
<glyph unicode="&#x202f;" horiz-adv-x="366" />
<glyph unicode="&#x2039;" horiz-adv-x="514" d="M63 461q213 180 353 373h106q-160 -268 -297 -373q74 -138 140 -365h-86q-86 236 -216 365z" />
<glyph unicode="&#x203a;" horiz-adv-x="514" d="M0 96q164 274 297 373q-80 146 -139 365h86q80 -225 215 -365q-207 -174 -355 -373h-104z" />
<glyph unicode="&#x205f;" horiz-adv-x="458" />
<glyph unicode="&#x20ac;" horiz-adv-x="1495" d="M115 563l51 80h102q3 23 17 80h-138l52 80h110q88 252 295 417.5t432 165.5q96 0 240 -43q109 -33 143 -32q20 0 58 14l-91 -426h-43v51q0 176 -77.5 272.5t-218.5 96.5q-170 0 -323 -145.5t-218 -370.5h635l-49 -80h-605q-4 -23 -12 -80h565l-51 -80h-520q0 -4 -2 -6 v-22q0 -199 107.5 -326t273.5 -127q252 0 418 254l43 -12q-199 -344 -541 -344q-233 0 -373.5 140t-140.5 374q0 8 4 69h-143z" />
<glyph unicode="&#x2122;" horiz-adv-x="1703" d="M186 1167l43 205q123 -6 195 -6h240q53 0 194 6l-39 -205h-24v29q0 88 -31 108.5t-168 22.5l-121 -565q-18 -86 -18 -117q0 -25 55 -31l16 -2v-24h-290v24q70 2 86 17q8 8 18 51q4 10 10 43l8 45l119 559q-125 0 -166 -20q-57 -29 -102 -140h-25zM805 588v24q39 2 53 17 q6 10 16 51q4 12 27 108l82 349q37 158 37 174q0 27 -72 30l4 25h187l102 -608l371 608h160v-25q-41 -8 -50 -22q-10 -20 -36 -145l-91 -426q-18 -88 -18 -103q0 -25 57 -31q4 0 17 -2v-24h-293v24q66 2 84 17q12 10 31 88l118 528l-409 -657h-8l-117 665l-113 -518 q-16 -76 -16 -92q0 -25 67 -31v-24h-190z" />
<glyph unicode="&#x25fc;" horiz-adv-x="942" d="M0 0v942h942v-942h-942z" />
<glyph unicode="&#xfb03;" horiz-adv-x="1648" d="M-123 -301q0 41 26.5 69.5t65.5 28.5q43 0 70 -63q6 -16 16 -17q23 0 40.5 57.5t51.5 243.5l144 775h-180v67h194l33 141q66 281 197 379q82 61 188 62q70 0 110.5 -37t40.5 -96q0 -104 -81 -105q-78 0 -78 74q0 6 4 55q2 4 2 15q0 31 -35 30q-43 0 -81 -45t-52 -82 q-14 -43 -43 -182l-43 -209h379l28 141q41 203 179.5 322t332.5 119q106 0 172 -41t66 -107q0 -51 -35 -83.5t-88 -32.5q-80 0 -80 84q0 8 11 65v6q0 45 -93 45q-106 0 -186 -85t-106 -224l-41 -209h243q117 0 318 88q-47 -160 -72 -276l-59 -285q-45 -215 -45 -227 q0 -41 26 -41q51 0 139 125l35 -23q-162 -248 -274 -248q-92 0 -92 97q0 14 28 151l84 400q8 39 21 84q10 37 10 59q0 20 -17.5 24.5t-103.5 4.5h-252l-110 -521q-80 -377 -168 -526q-84 -141 -182 -141q-45 0 -76 27.5t-31 68.5t25.5 68.5t64.5 27.5q45 0 72 -63 q6 -16 16 -17q23 0 39.5 55.5t48.5 245.5l137 775h-378l-111 -521q-141 -668 -360 -667q-45 0 -75 26.5t-30 67.5z" />
<glyph unicode="&#xfb04;" horiz-adv-x="1667" d="M-123 -301q0 41 26.5 69.5t65.5 28.5q43 0 70 -63q6 -16 16 -17q23 0 40.5 57.5t51.5 243.5l144 775h-180v67h194l33 141q66 281 197 379q82 61 188 62q70 0 110.5 -37t40.5 -96q0 -104 -81 -105q-78 0 -78 74q0 6 4 55q2 4 2 15q0 31 -35 30q-43 0 -81 -45t-52 -82 q-14 -43 -43 -182l-43 -209h379l28 141q53 264 267 383q119 66 223 66q27 0 78 -4t78 -4q41 0 159 6q-57 -182 -84 -307l-129 -606q-70 -328 -69 -367q0 -49 35 -49q51 0 135 119l30 -25q-143 -240 -260 -240q-45 0 -74.5 29t-29.5 74q0 53 35 217l155 731q57 270 58 311 q0 33 -41 41q-10 2 -66 2q-117 0 -207 -86t-118 -223l-43 -209h176v-67h-187l-110 -521q-80 -379 -166 -523t-184 -144q-45 0 -76 27.5t-31 68.5t25.5 68.5t64.5 27.5q45 0 72 -63q6 -16 16 -17q23 0 39 60q16 53 49 241l137 775h-378l-111 -521q-141 -668 -360 -667 q-45 0 -75 26.5t-30 67.5z" />
</font>
</defs>
</svg>
